TiroBangla-Italic.ufo
<glyph name="Danda" format="2">
  <advance width="246"/>
  <unicode hex="0964"/>
  <outline>
    <contour>
      <point x="104" y="-43" type="line"/>
      <point x="223" y="567" type="line"/>
      <point x="165" y="620" type="line"/>
      <point x="157" y="620" type="line"/>
      <point x="38" y="10" type="line"/>
      <point x="96" y="-43" type="line"/>
    </contour>
  </outline>
</glyph>
<glyph name="bCandrabindu" format="2">
  <unicode hex="0981"/>
  <outline>
    <contour>
      <point x="-29" y="671" type="curve" smooth="yes"/>
      <point x="35" y="671"/>
      <point x="104" y="712"/>
      <point x="141" y="839" type="curve"/>
      <point x="119" y="849" type="line"/>
      <point x="113" y="847" type="line"/>
      <point x="82" y="775"/>
      <point x="26" y="743"/>
      <point x="-28" y="743" type="curve" smooth="yes"/>
      <point x="-84" y="743"/>
      <point x="-126" y="777"/>
      <point x="-134" y="839" type="curve"/>
      <point x="-160" y="847" type="line"/>
      <point x="-168" y="845" type="line"/>
      <point x="-170" y="728"/>
      <point x="-105" y="671"/>
    </contour>
    <contour>
      <point x="-15" y="790" type="curve" smooth="yes"/>
      <point x="14" y="790"/>
      <point x="36" y="813"/>
      <point x="36" y="840" type="curve" smooth="yes"/>
      <point x="36" y="868"/>
      <point x="14" y="890"/>
      <point x="-15" y="890" type="curve" smooth="yes"/>
      <point x="-45" y="890"/>
      <point x="-67" y="868"/>
      <point x="-67" y="840" type="curve" smooth="yes"/>
      <point x="-67" y="813"/>
      <point x="-45" y="790"/>
    </contour>
  </outline>
  <guideline angle="0" x="0" y="837"/>
</glyph>
<glyph name="bAi" format="2">
  <advance width="769"/>
  <unicode hex="0990"/>
  <outline>
    <contour>
      <point x="614" y="396" type="line"/>
      <point x="714" y="421"/>
      <point x="775" y="499"/>
      <point x="775" y="591" type="curve" smooth="yes"/>
      <point x="775" y="746"/>
      <point x="601" y="771"/>
      <point x="526" y="783" type="curve" smooth="yes"/>
      <point x="444" y="796"/>
      <point x="400" y="814"/>
      <point x="400" y="852" type="curve" smooth="yes"/>
      <point x="400" y="873"/>
      <point x="413" y="895"/>
      <point x="443" y="914" type="curve"/>
      <point x="428" y="940" type="line"/>
      <point x="420" y="940" type="line"/>
      <point x="373" y="910"/>
      <point x="352" y="872"/>
      <point x="352" y="832" type="curve" smooth="yes"/>
      <point x="352" y="728"/>
      <point x="494" y="706"/>
      <point x="547" y="697" type="curve" smooth="yes"/>
      <point x="646" y="680"/>
      <point x="729" y="658"/>
      <point x="729" y="578" type="curve" smooth="yes"/>
      <point x="729" y="528"/>
      <point x="695" y="482"/>
      <point x="628" y="468" type="curve"/>
    </contour>
    <contour>
      <point x="518" y="106" type="line"/>
      <point x="500" y="98" type="line"/>
      <point x="455" y="157"/>
      <point x="402" y="168"/>
      <point x="343" y="168" type="curve" smooth="yes"/>
      <point x="299" y="168"/>
      <point x="251" y="162"/>
      <point x="212" y="162" type="curve" smooth="yes"/>
      <point x="113" y="162"/>
      <point x="81" y="201"/>
      <point x="81" y="263" type="curve" smooth="yes"/>
      <point x="81" y="306"/>
      <point x="96" y="355"/>
      <point x="133" y="407" type="curve"/>
      <point x="113" y="422" type="line"/>
      <point x="104" y="422" type="line"/>
      <point x="61" y="368"/>
      <point x="30" y="302"/>
      <point x="30" y="238" type="curve" smooth="yes"/>
      <point x="30" y="138"/>
      <point x="106" y="75"/>
      <point x="222" y="75" type="curve" smooth="yes"/>
      <point x="272" y="75"/>
      <point x="336" y="87"/>
      <point x="403" y="87" type="curve" smooth="yes"/>
      <point x="482" y="87"/>
      <point x="502" y="70"/>
      <point x="513" y="-19" type="curve"/>
    </contour>
    <contour>
      <point x="548" y="-36" type="line"/>
      <point x="564" y="65"/>
      <point x="576" y="129"/>
      <point x="591" y="205" type="curve" smooth="yes"/>
      <point x="642" y="466"/>
      <point x="651" y="488"/>
      <point x="651" y="509" type="curve" smooth="yes"/>
      <point x="651" y="566"/>
      <point x="582" y="620"/>
      <point x="529" y="620" type="curve" smooth="yes"/>
      <point x="450" y="620"/>
      <point x="240" y="495"/>
      <point x="240" y="357" type="curve" smooth="yes"/>
      <point x="240" y="295"/>
      <point x="283" y="257"/>
      <point x="341" y="257" type="curve" smooth="yes"/>
      <point x="406" y="257"/>
      <point x="447" y="304"/>
      <point x="447" y="349" type="curve" smooth="yes"/>
      <point x="447" y="387"/>
      <point x="419" y="414"/>
      <point x="382" y="414" type="curve" smooth="yes"/>
      <point x="368" y="414"/>
      <point x="350" y="410"/>
      <point x="338" y="393" type="curve"/>
      <point x="390" y="396" type="line"/>
      <point x="358" y="412" type="line"/>
      <point x="399" y="481"/>
      <point x="526" y="554"/>
      <point x="562" y="554" type="curve" smooth="yes"/>
      <point x="571" y="554"/>
      <point x="576" y="549"/>
      <point x="576" y="532" type="curve" smooth="yes"/>
      <point x="576" y="495"/>
      <point x="552" y="418"/>
      <point x="538" y="344" type="curve" smooth="yes"/>
      <point x="500" y="149"/>
      <point x="504" y="110"/>
      <point x="501" y="77" type="curve"/>
      <point x="513" y="-19" type="line"/>
      <point x="537" y="-36" type="line"/>
    </contour>
  </outline>
</glyph>
<glyph name="bKha" format="2">
  <advance width="622"/>
  <unicode hex="0996"/>
  <outline>
    <contour>
      <point x="471" y="132" type="line"/>
      <point x="453" y="121" type="line"/>
      <point x="421" y="207"/>
      <point x="348" y="265"/>
      <point x="290" y="296" type="curve"/>
      <point x="106" y="355" type="line"/>
      <point x="103" y="348" type="line"/>
      <point x="164" y="252" type="line"/>
      <point x="352" y="232"/>
      <point x="449" y="112"/>
      <point x="461" y="-16" type="curve"/>
    </contour>
    <contour>
      <point x="301" y="293" type="line"/>
      <point x="411" y="323"/>
      <point x="456" y="382"/>
      <point x="456" y="460" type="curve" smooth="yes"/>
      <point x="456" y="519"/>
      <point x="429" y="570"/>
      <point x="371" y="621" type="curve"/>
      <point x="365" y="620" type="line"/>
      <point x="308" y="548"/>
      <point x="219" y="519"/>
      <point x="195" y="522" type="curve"/>
      <point x="195" y="488" type="line"/>
      <point x="203" y="504"/>
      <point x="206" y="518"/>
      <point x="206" y="531" type="curve" smooth="yes"/>
      <point x="206" y="571"/>
      <point x="177" y="591"/>
      <point x="145" y="591" type="curve" smooth="yes"/>
      <point x="110" y="591"/>
      <point x="71" y="567"/>
      <point x="71" y="520" type="curve" smooth="yes"/>
      <point x="71" y="466"/>
      <point x="122" y="437"/>
      <point x="183" y="437" type="curve" smooth="yes"/>
      <point x="264" y="437"/>
      <point x="359" y="488"/>
      <point x="399" y="534" type="curve"/>
      <point x="367" y="543" type="line"/>
      <point x="394" y="526"/>
      <point x="402" y="512"/>
      <point x="402" y="490" type="curve" smooth="yes"/>
      <point x="402" y="416"/>
      <point x="307" y="354"/>
      <point x="137" y="354" type="curve" smooth="yes"/>
      <point x="125" y="354"/>
      <point x="116" y="354"/>
      <point x="106" y="355" type="curve"/>
      <point x="297" y="274" type="line"/>
    </contour>
    <contour>
      <point x="496" y="-33" type="line"/>
      <point x="512" y="68"/>
      <point x="524" y="139"/>
      <point x="536" y="208" type="curve" smooth="yes"/>
      <point x="598" y="552" type="line"/>
      <point x="690" y="552" type="line"/>
      <point x="692" y="560" type="line"/>
      <point x="643" y="620" type="line"/>
      <point x="540" y="620" type="line"/>
      <point x="500" y="416" type="line" smooth="yes"/>
      <point x="468" y="251"/>
      <point x="455" y="157"/>
      <point x="457" y="116" type="curve"/>
      <point x="461" y="-16" type="line"/>
      <point x="485" y="-33" type="line"/>
    </contour>
  </outline>
</glyph>
<glyph name="bGha" format="2">
  <advance width="582"/>
  <unicode hex="0998"/>
  <outline>
    <contour>
      <point x="427" y="127" type="line"/>
      <point x="409" y="116" type="line"/>
      <point x="351" y="191"/>
      <point x="280" y="233"/>
      <point x="210" y="252" type="curve"/>
      <point x="210" y="255" type="line"/>
      <point x="259" y="289"/>
      <point x="297" y="313"/>
      <point x="403" y="376" type="curve"/>
      <point x="359" y="451" type="line"/>
      <point x="327" y="428"/>
      <point x="301" y="414"/>
      <point x="262" y="390" type="curve" smooth="yes"/>
      <point x="204" y="355"/>
      <point x="170" y="333"/>
      <point x="90" y="280" type="curve"/>
      <point x="141" y="193" type="line"/>
      <point x="326" y="173"/>
      <point x="405" y="87"/>
      <point x="422" y="-16" type="curve"/>
    </contour>
    <contour>
      <point x="359" y="451" type="line"/>
      <point x="317" y="426"/>
      <point x="284" y="416"/>
      <point x="258" y="416" type="curve" smooth="yes"/>
      <point x="219" y="416"/>
      <point x="202" y="439"/>
      <point x="202" y="466" type="curve" smooth="yes"/>
      <point x="202" y="498"/>
      <point x="226" y="544"/>
      <point x="266" y="560" type="curve"/>
      <point x="139" y="567" type="line"/>
      <point x="111" y="543"/>
      <point x="92" y="508"/>
      <point x="92" y="472" type="curve" smooth="yes"/>
      <point x="92" y="412"/>
      <point x="144" y="378"/>
      <point x="203" y="378" type="curve" smooth="yes"/>
      <point x="214" y="378"/>
      <point x="231" y="379"/>
      <point x="243" y="382" type="curve"/>
      <point x="246" y="364" type="line"/>
    </contour>
    <contour>
      <point x="458" y="-33" type="line"/>
      <point x="472" y="68"/>
      <point x="483" y="132"/>
      <point x="498" y="208" type="curve" smooth="yes"/>
      <point x="568" y="568" type="line"/>
      <point x="489" y="568" type="line"/>
      <point x="460" y="418" type="line" smooth="yes"/>
      <point x="430" y="264"/>
      <point x="410" y="156"/>
      <point x="413" y="111" type="curve"/>
      <point x="422" y="-16" type="line"/>
      <point x="447" y="-33" type="line"/>
    </contour>
    <contour>
      <point x="650" y="552" type="line"/>
      <point x="652" y="560" type="line"/>
      <point x="604" y="620" type="line"/>
      <point x="22" y="620" type="line"/>
      <point x="20" y="612" type="line"/>
      <point x="68" y="552" type="line"/>
    </contour>
  </outline>
</glyph>
<glyph name="bJa" format="2">
  <advance width="785"/>
  <unicode hex="099C"/>
  <outline>
    <contour>
      <point x="309" y="49" type="curve" smooth="yes"/>
      <point x="426" y="49"/>
      <point x="499" y="128"/>
      <point x="499" y="232" type="curve" smooth="yes"/>
      <point x="499" y="294"/>
      <point x="473" y="349"/>
      <point x="419" y="381" type="curve"/>
      <point x="414" y="380" type="line"/>
      <point x="358" y="341"/>
      <point x="307" y="321"/>
      <point x="275" y="321" type="curve" smooth="yes"/>
      <point x="249" y="321"/>
      <point x="235" y="334"/>
      <point x="235" y="355" type="curve" smooth="yes"/>
      <point x="235" y="423"/>
      <point x="381" y="524"/>
      <point x="490" y="559" type="curve"/>
      <point x="279" y="570" type="line"/>
      <point x="283" y="549" type="line"/>
      <point x="206" y="496"/>
      <point x="177" y="435"/>
      <point x="177" y="385" type="curve" smooth="yes"/>
      <point x="177" y="312"/>
      <point x="239" y="248"/>
      <point x="313" y="248" type="curve" smooth="yes"/>
      <point x="360" y="248"/>
      <point x="429" y="274"/>
      <point x="465" y="309" type="curve"/>
      <point x="423" y="307" type="line"/>
      <point x="442" y="300"/>
      <point x="453" y="280"/>
      <point x="453" y="255" type="curve" smooth="yes"/>
      <point x="453" y="198"/>
      <point x="396" y="143"/>
      <point x="302" y="143" type="curve" smooth="yes"/>
      <point x="167" y="143"/>
      <point x="109" y="256"/>
      <point x="109" y="477" type="curve"/>
      <point x="81" y="486" type="line"/>
      <point x="71" y="486" type="line"/>
      <point x="70" y="464"/>
      <point x="69" y="441"/>
      <point x="69" y="421" type="curve" smooth="yes"/>
      <point x="69" y="132"/>
      <point x="188" y="49"/>
    </contour>
    <contour>
      <point x="584" y="-35" type="line"/>
      <point x="584" y="163"/>
      <point x="600" y="279"/>
      <point x="773" y="400" type="curve"/>
      <point x="774" y="406" type="line"/>
      <point x="678" y="499" type="line"/>
      <point x="632" y="478"/>
      <point x="594" y="465"/>
      <point x="540" y="465" type="curve" smooth="yes"/>
      <point x="498" y="465"/>
      <point x="446" y="473"/>
      <point x="422" y="547" type="curve"/>
      <point x="385" y="534" type="line"/>
      <point x="414" y="446"/>
      <point x="490" y="396"/>
      <point x="577" y="396" type="curve" smooth="yes"/>
      <point x="598" y="396"/>
      <point x="621" y="399"/>
      <point x="642" y="406" type="curve"/>
      <point x="645" y="404" type="line"/>
      <point x="557" y="307"/>
      <point x="539" y="204"/>
      <point x="539" y="116" type="curve" smooth="yes"/>
      <point x="539" y="75"/>
      <point x="542" y="19"/>
      <point x="548" y="-17" type="curve"/>
      <point x="573" y="-35" type="line"/>
    </contour>
    <contour>
      <point x="853" y="552" type="line"/>
      <point x="855" y="560" type="line"/>
      <point x="807" y="620" type="line"/>
      <point x="22" y="620" type="line"/>
      <point x="20" y="612" type="line"/>
      <point x="68" y="552" type="line"/>
    </contour>
  </outline>
</glyph>
<glyph name="bDda" format="2">
  <advance width="661"/>
  <unicode hex="09A1"/>
  <outline>
    <contour>
      <point x="364" y="27" type="curve" smooth="yes"/>
      <point x="513" y="27"/>
      <point x="615" y="140"/>
      <point x="615" y="284" type="curve" smooth="yes"/>
      <point x="615" y="357"/>
      <point x="589" y="418"/>
      <point x="541" y="453" type="curve"/>
      <point x="536" y="452" type="line"/>
      <point x="474" y="380"/>
      <point x="392" y="318"/>
      <point x="359" y="318" type="curve" smooth="yes"/>
      <point x="349" y="318"/>
      <point x="345" y="323"/>
      <point x="345" y="332" type="curve" smooth="yes"/>
      <point x="345" y="336"/>
      <point x="346" y="340"/>
      <point x="347" y="345" type="curve" smooth="yes"/>
      <point x="390" y="568" type="line"/>
      <point x="311" y="568" type="line"/>
      <point x="273" y="371" type="line" smooth="yes"/>
      <point x="272" y="366"/>
      <point x="271" y="361"/>
      <point x="271" y="356" type="curve" smooth="yes"/>
      <point x="271" y="298"/>
      <point x="332" y="242"/>
      <point x="381" y="242" type="curve" smooth="yes"/>
      <point x="426" y="242"/>
      <point x="502" y="291"/>
      <point x="570" y="370" type="curve"/>
      <point x="532" y="374" type="line"/>
      <point x="555" y="356"/>
      <point x="568" y="334"/>
      <point x="568" y="301" type="curve" smooth="yes"/>
      <point x="568" y="217"/>
      <point x="483" y="121"/>
      <point x="354" y="121" type="curve" smooth="yes"/>
      <point x="218" y="121"/>
      <point x="128" y="227"/>
      <point x="123" y="500" type="curve"/>
      <point x="95" y="509" type="line"/>
      <point x="85" y="509" type="line"/>
      <point x="84" y="489"/>
      <point x="84" y="470"/>
      <point x="84" y="452" type="curve" smooth="yes"/>
      <point x="84" y="133"/>
      <point x="220" y="27"/>
    </contour>
    <contour>
      <point x="729" y="552" type="line"/>
      <point x="731" y="560" type="line"/>
      <point x="683" y="620" type="line"/>
      <point x="22" y="620" type="line"/>
      <point x="20" y="612" type="line"/>
      <point x="68" y="552" type="line"/>
    </contour>
  </outline>
</glyph>
<glyph name="bTha" format="2">
  <advance width="612"/>
  <unicode hex="09A5"/>
  <outline>
    <contour>
      <point x="455" y="123" type="line"/>
      <point x="437" y="112" type="line"/>
      <point x="389" y="181"/>
      <point x="329" y="238"/>
      <point x="248" y="271" type="curve"/>
      <point x="98" y="324" type="line"/>
      <point x="93" y="320" type="line"/>
      <point x="130" y="212" type="line"/>
      <point x="339" y="212"/>
      <point x="439" y="85"/>
      <point x="451" y="-16" type="curve"/>
    </contour>
    <contour>
      <point x="262" y="268" type="line"/>
      <point x="377" y="303"/>
      <point x="449" y="369"/>
      <point x="449" y="458" type="curve" smooth="yes"/>
      <point x="449" y="540"/>
      <point x="388" y="620"/>
      <point x="277" y="620" type="curve" smooth="yes"/>
      <point x="161" y="620"/>
      <point x="70" y="532"/>
      <point x="70" y="458" type="curve" smooth="yes"/>
      <point x="70" y="415"/>
      <point x="101" y="384"/>
      <point x="146" y="384" type="curve" smooth="yes"/>
      <point x="196" y="384"/>
      <point x="236" y="423"/>
      <point x="236" y="465" type="curve" smooth="yes"/>
      <point x="236" y="481"/>
      <point x="230" y="511"/>
      <point x="198" y="521" type="curve"/>
      <point x="204" y="489" type="line"/>
      <point x="241" y="535"/>
      <point x="290" y="560"/>
      <point x="332" y="560" type="curve" smooth="yes"/>
      <point x="372" y="560"/>
      <point x="390" y="537"/>
      <point x="390" y="505" type="curve" smooth="yes"/>
      <point x="390" y="411"/>
      <point x="234" y="323"/>
      <point x="110" y="323" type="curve"/>
      <point x="108" y="323"/>
      <point x="105" y="323"/>
      <point x="98" y="324" type="curve"/>
      <point x="258" y="251" type="line"/>
    </contour>
    <contour>
      <point x="486" y="-33" type="line"/>
      <point x="502" y="68"/>
      <point x="513" y="132"/>
      <point x="528" y="208" type="curve" smooth="yes"/>
      <point x="595" y="552" type="line"/>
      <point x="680" y="552" type="line"/>
      <point x="681" y="560" type="line"/>
      <point x="633" y="620" type="line"/>
      <point x="531" y="620" type="line"/>
      <point x="489" y="405" type="line" smooth="yes"/>
      <point x="456" y="235"/>
      <point x="442" y="160"/>
      <point x="440" y="105" type="curve"/>
      <point x="451" y="-16" type="line"/>
      <point x="475" y="-33" type="line"/>
    </contour>
  </outline>
</glyph>
<glyph name="bPa" format="2">
  <advance width="679"/>
  <unicode hex="09AA"/>
  <outline>
    <contour>
      <point x="280" y="363" type="line"/>
      <point x="263" y="374" type="line"/>
      <point x="267" y="384"/>
      <point x="269" y="399"/>
      <point x="269" y="411" type="curve" smooth="yes"/>
      <point x="269" y="459"/>
      <point x="237" y="487"/>
      <point x="193" y="490" type="curve"/>
      <point x="192" y="493" type="line"/>
      <point x="235" y="537"/>
      <point x="292" y="559"/>
      <point x="348" y="559" type="curve" smooth="yes"/>
      <point x="482" y="559"/>
      <point x="540" y="430"/>
      <point x="540" y="332" type="curve" smooth="yes"/>
      <point x="540" y="319"/>
      <point x="539" y="308"/>
      <point x="537" y="299" type="curve"/>
      <point x="586" y="433" type="line"/>
      <point x="565" y="428" type="line"/>
      <point x="521" y="569"/>
      <point x="434" y="630"/>
      <point x="323" y="630" type="curve" smooth="yes"/>
      <point x="171" y="630"/>
      <point x="55" y="526"/>
      <point x="55" y="457" type="curve" smooth="yes"/>
      <point x="55" y="430"/>
      <point x="73" y="411"/>
      <point x="102" y="411" type="curve" smooth="yes"/>
      <point x="139" y="411"/>
      <point x="153" y="442"/>
      <point x="186" y="442" type="curve" smooth="yes"/>
      <point x="216" y="442"/>
      <point x="228" y="418"/>
      <point x="228" y="393" type="curve" smooth="yes"/>
      <point x="228" y="359"/>
      <point x="205" y="329"/>
      <point x="146" y="278" type="curve"/>
    </contour>
    <contour>
      <point x="225" y="225" type="line"/>
      <point x="328" y="314"/>
      <point x="417" y="390"/>
      <point x="519" y="461" type="curve"/>
      <point x="472" y="531" type="line"/>
      <point x="379" y="465"/>
      <point x="311" y="409"/>
      <point x="255" y="363" type="curve"/>
      <point x="146" y="278" type="line"/>
      <point x="145" y="273" type="line"/>
    </contour>
    <contour>
      <point x="548" y="-43" type="line"/>
      <point x="656" y="552" type="line"/>
      <point x="747" y="552" type="line"/>
      <point x="749" y="560" type="line"/>
      <point x="700" y="620" type="line"/>
      <point x="600" y="620" type="line"/>
      <point x="598" y="608" type="line" smooth="yes"/>
      <point x="584" y="523"/>
      <point x="571" y="471"/>
      <point x="568" y="415" type="curve"/>
      <point x="537" y="299" type="line"/>
      <point x="535" y="291"/>
      <point x="493" y="80"/>
      <point x="480" y="10" type="curve"/>
      <point x="537" y="-43" type="line"/>
    </contour>
  </outline>
</glyph>
<glyph name="bBa" format="2">
  <advance width="535"/>
  <unicode hex="09AC"/>
  <outline>
    <contour>
      <point x="381" y="132" type="line"/>
      <point x="363" y="121" type="line"/>
      <point x="301" y="222"/>
      <point x="228" y="268"/>
      <point x="155" y="298" type="curve"/>
      <point x="155" y="301" type="line"/>
      <point x="244" y="352"/>
      <point x="341" y="396"/>
      <point x="432" y="429" type="curve"/>
      <point x="451" y="525" type="line"/>
      <point x="304" y="471"/>
      <point x="220" y="432"/>
      <point x="27" y="330" type="curve"/>
      <point x="87" y="231" type="line"/>
      <point x="261" y="206"/>
      <point x="358" y="94"/>
      <point x="375" y="-16" type="curve"/>
    </contour>
    <contour>
      <point x="411" y="-33" type="line"/>
      <point x="426" y="75"/>
      <point x="436" y="131"/>
      <point x="451" y="208" type="curve" smooth="yes"/>
      <point x="521" y="568" type="line"/>
      <point x="443" y="568" type="line"/>
      <point x="419" y="446" type="line" smooth="yes"/>
      <point x="386" y="279"/>
      <point x="365" y="164"/>
      <point x="366" y="116" type="curve"/>
      <point x="375" y="-16" type="line"/>
      <point x="400" y="-33" type="line"/>
    </contour>
    <contour>
      <point x="603" y="552" type="line"/>
      <point x="605" y="560" type="line"/>
      <point x="557" y="620" type="line"/>
      <point x="22" y="620" type="line"/>
      <point x="20" y="612" type="line"/>
      <point x="68" y="552" type="line"/>
    </contour>
  </outline>
</glyph>
<glyph name="bYa" format="2">
  <advance width="564"/>
  <unicode hex="09AF"/>
  <outline>
    <contour>
      <point x="409" y="128" type="line"/>
      <point x="391" y="117" type="line"/>
      <point x="331" y="205"/>
      <point x="253" y="251"/>
      <point x="181" y="277" type="curve"/>
      <point x="180" y="280" type="line"/>
      <point x="238" y="317"/>
      <point x="301" y="351"/>
      <point x="366" y="386" type="curve"/>
      <point x="330" y="445"/>
      <point x="289" y="502"/>
      <point x="234" y="550" type="curve"/>
      <point x="250" y="573" type="line"/>
      <point x="90" y="525" type="line"/>
      <point x="177" y="524"/>
      <point x="229" y="503"/>
      <point x="301" y="409" type="curve"/>
      <point x="292" y="444" type="line"/>
      <point x="218" y="405"/>
      <point x="140" y="359"/>
      <point x="59" y="307" type="curve"/>
      <point x="114" y="214" type="line"/>
      <point x="300" y="191"/>
      <point x="387" y="96"/>
      <point x="404" y="-16" type="curve"/>
    </contour>
    <contour>
      <point x="440" y="-33" type="line"/>
      <point x="454" y="68"/>
      <point x="465" y="132"/>
      <point x="480" y="208" type="curve" smooth="yes"/>
      <point x="550" y="568" type="line"/>
      <point x="471" y="568" type="line"/>
      <point x="443" y="422" type="line" smooth="yes"/>
      <point x="413" y="268"/>
      <point x="393" y="157"/>
      <point x="394" y="112" type="curve"/>
      <point x="404" y="-16" type="line"/>
      <point x="429" y="-33" type="line"/>
    </contour>
    <contour>
      <point x="224" y="552" type="line"/>
      <point x="632" y="552" type="line"/>
      <point x="634" y="560" type="line"/>
      <point x="586" y="620" type="line"/>
      <point x="22" y="620" type="line"/>
      <point x="20" y="612" type="line"/>
      <point x="90" y="525" type="line"/>
    </contour>
  </outline>
  <guideline angle="135" x="568" y="0"/>
</glyph>
<glyph name="bLa" format="2">
  <advance width="684"/>
  <unicode hex="09B2"/>
  <outline>
    <contour>
      <point x="204" y="130" type="curve" smooth="yes"/>
      <point x="281" y="130"/>
      <point x="333" y="175"/>
      <point x="333" y="232" type="curve" smooth="yes"/>
      <point x="333" y="277"/>
      <point x="299" y="308"/>
      <point x="254" y="308" type="curve" smooth="yes"/>
      <point x="213" y="308"/>
      <point x="174" y="279"/>
      <point x="174" y="234" type="curve" smooth="yes"/>
      <point x="174" y="219"/>
      <point x="178" y="202"/>
      <point x="188" y="187" type="curve"/>
      <point x="187" y="184" type="line"/>
      <point x="138" y="184"/>
      <point x="117" y="222"/>
      <point x="117" y="266" type="curve" smooth="yes"/>
      <point x="117" y="351"/>
      <point x="195" y="402"/>
      <point x="267" y="402" type="curve" smooth="yes"/>
      <point x="317" y="402"/>
      <point x="358" y="378"/>
      <point x="374" y="307" type="curve"/>
      <point x="377" y="390" type="line"/>
      <point x="352" y="441"/>
      <point x="312" y="488"/>
      <point x="235" y="488" type="curve" smooth="yes"/>
      <point x="132" y="488"/>
      <point x="43" y="403"/>
      <point x="43" y="294" type="curve" smooth="yes"/>
      <point x="43" y="202"/>
      <point x="107" y="130"/>
    </contour>
    <contour>
      <point x="588" y="396" type="line"/>
      <point x="565" y="386" type="line"/>
      <point x="543" y="449"/>
      <point x="515" y="481"/>
      <point x="468" y="481" type="curve" smooth="yes"/>
      <point x="419" y="481"/>
      <point x="386" y="445"/>
      <point x="364" y="390" type="curve"/>
      <point x="374" y="307" type="line"/>
      <point x="397" y="296" type="line"/>
      <point x="403" y="298" type="line"/>
      <point x="431" y="373"/>
      <point x="454" y="402"/>
      <point x="488" y="402" type="curve" smooth="yes"/>
      <point x="523" y="402"/>
      <point x="556" y="370"/>
      <point x="537" y="272" type="curve"/>
    </contour>
    <contour>
      <point x="554" y="-43" type="line"/>
      <point x="665" y="569" type="line"/>
      <point x="596" y="569" type="line"/>
      <point x="575" y="465"/>
      <point x="567" y="425"/>
      <point x="567" y="376" type="curve"/>
      <point x="537" y="272" type="line"/>
      <point x="534" y="257"/>
      <point x="497" y="73"/>
      <point x="485" y="10" type="curve"/>
      <point x="543" y="-43" type="line"/>
    </contour>
    <contour>
      <point x="752" y="552" type="line"/>
      <point x="754" y="560" type="line"/>
      <point x="706" y="620" type="line"/>
      <point x="22" y="620" type="line"/>
      <point x="20" y="612" type="line"/>
      <point x="68" y="552" type="line"/>
    </contour>
  </outline>
</glyph>
<glyph name="bSignUu" format="2">
  <unicode hex="09C2"/>
  <outline>
    <contour>
      <point x="-220" y="-200" type="curve" smooth="yes"/>
      <point x="-190" y="-200"/>
      <point x="-152" y="-193"/>
      <point x="-113" y="-170" type="curve"/>
      <point x="-134" y="-118" type="line"/>
      <point x="-139" y="-118" type="line"/>
      <point x="-170" y="-134"/>
      <point x="-217" y="-145"/>
      <point x="-252" y="-145" type="curve" smooth="yes"/>
      <point x="-283" y="-145"/>
      <point x="-301" y="-136"/>
      <point x="-301" y="-116" type="curve" smooth="yes"/>
      <point x="-301" y="-94"/>
      <point x="-277" y="-71"/>
      <point x="-203" y="-71" type="curve" smooth="yes"/>
      <point x="-182" y="-71"/>
      <point x="-161" y="-73"/>
      <point x="-129" y="-77" type="curve"/>
      <point x="-167" y="-33" type="line"/>
      <point x="-186" y="-25"/>
      <point x="-208" y="-21"/>
      <point x="-228" y="-21" type="curve" smooth="yes"/>
      <point x="-287" y="-21"/>
      <point x="-339" y="-55"/>
      <point x="-339" y="-110" type="curve" smooth="yes"/>
      <point x="-339" y="-164"/>
      <point x="-290" y="-200"/>
    </contour>
    <contour>
      <point x="11" y="-255" type="line"/>
      <point x="9" y="-209" type="line"/>
      <point x="-45" y="-168"/>
      <point x="-100" y="-135"/>
      <point x="-134" y="-118" type="curve"/>
      <point x="-155" y="-157" type="line"/>
      <point x="-113" y="-174"/>
      <point x="-61" y="-205"/>
      <point x="3" y="-255" type="curve"/>
    </contour>
    <contour>
      <point x="-129" y="-77" type="line"/>
      <point x="-128" y="-67"/>
      <point x="-124" y="-31"/>
      <point x="-124" y="-5" type="curve" smooth="yes"/>
      <point x="-124" y="6"/>
      <point x="-125" y="14"/>
      <point x="-126" y="19" type="curve" smooth="yes"/>
      <point x="-130" y="32"/>
      <point x="-145" y="40"/>
      <point x="-160" y="47" type="curve"/>
      <point x="-165" y="44" type="line"/>
      <point x="-163" y="29"/>
      <point x="-163" y="18"/>
      <point x="-163" y="8" type="curve" smooth="yes"/>
      <point x="-163" y="-12"/>
      <point x="-166" y="-27"/>
      <point x="-171" y="-53" type="curve"/>
    </contour>
  </outline>
</glyph>
<glyph name="bSignVocalicRr" format="2">
  <unicode hex="09C4"/>
  <outline>
    <contour>
      <point x="-111" y="-248" type="line"/>
      <point x="-113" y="-207" type="line"/>
      <point x="-147" y="-170"/>
      <point x="-208" y="-119"/>
      <point x="-254" y="-81" type="curve"/>
      <point x="-267" y="-109" type="line"/>
      <point x="-125" y="-33" type="line"/>
      <point x="-131" y="34" type="line"/>
      <point x="-336" y="-70" type="line"/>
      <point x="-334" y="-77" type="line"/>
      <point x="-254" y="-133"/>
      <point x="-194" y="-179"/>
      <point x="-120" y="-248" type="curve"/>
    </contour>
    <contour>
      <point x="-138" y="-388" type="line"/>
      <point x="-140" y="-347" type="line"/>
      <point x="-175" y="-310"/>
      <point x="-237" y="-258"/>
      <point x="-283" y="-220" type="curve"/>
      <point x="-296" y="-248" type="line"/>
      <point x="-166" y="-178" type="line"/>
      <point x="-210" y="-133" type="line"/>
      <point x="-363" y="-210" type="line"/>
      <point x="-361" y="-217" type="line"/>
      <point x="-282" y="-273"/>
      <point x="-221" y="-319"/>
      <point x="-147" y="-388" type="curve"/>
    </contour>
  </outline>
</glyph>
<glyph name="bSignAi" format="2">
  <advance width="405"/>
  <unicode hex="09C8"/>
  <outline>
    <contour>
      <point x="247" y="-34" type="curve" smooth="yes"/>
      <point x="317" y="-34"/>
      <point x="366" y="7"/>
      <point x="366" y="61" type="curve" smooth="yes"/>
      <point x="366" y="105"/>
      <point x="333" y="133"/>
      <point x="293" y="133" type="curve" smooth="yes"/>
      <point x="245" y="133"/>
      <point x="219" y="95"/>
      <point x="219" y="59" type="curve" smooth="yes"/>
      <point x="219" y="40"/>
      <point x="227" y="13"/>
      <point x="253" y="7" type="curve"/>
      <point x="246" y="49" type="line"/>
      <point x="231" y="17" type="line"/>
      <point x="225" y="15"/>
      <point x="222" y="15"/>
      <point x="217" y="15" type="curve" smooth="yes"/>
      <point x="170" y="15"/>
      <point x="123" y="66"/>
      <point x="123" y="171" type="curve" smooth="yes"/>
      <point x="123" y="390"/>
      <point x="330" y="552"/>
      <point x="473" y="552" type="curve"/>
      <point x="240" y="567" type="line"/>
      <point x="243" y="549" type="line"/>
      <point x="116" y="468"/>
      <point x="52" y="337"/>
      <point x="52" y="214" type="curve" smooth="yes"/>
      <point x="52" y="78"/>
      <point x="130" y="-34"/>
    </contour>
    <contour>
      <point x="473" y="552" type="line"/>
      <point x="475" y="560" type="line"/>
      <point x="427" y="620" type="line"/>
      <point x="22" y="620" type="line"/>
      <point x="20" y="612" type="line"/>
      <point x="68" y="552" type="line"/>
    </contour>
    <contour>
      <point x="427" y="620" type="line"/>
      <point x="428" y="631"/>
      <point x="429" y="642"/>
      <point x="429" y="653" type="curve" smooth="yes"/>
      <point x="429" y="726"/>
      <point x="389" y="783"/>
      <point x="286" y="783" type="curve" smooth="yes"/>
      <point x="252" y="783"/>
      <point x="207" y="777"/>
      <point x="166" y="777" type="curve" smooth="yes"/>
      <point x="111" y="777"/>
      <point x="88" y="788"/>
      <point x="88" y="818" type="curve" smooth="yes"/>
      <point x="88" y="831"/>
      <point x="92" y="850"/>
      <point x="116" y="876" type="curve"/>
      <point x="96" y="896" type="line"/>
      <point x="88" y="896" type="line"/>
      <point x="57" y="867"/>
      <point x="43" y="833"/>
      <point x="43" y="802" type="curve" smooth="yes"/>
      <point x="43" y="744"/>
      <point x="89" y="695"/>
      <point x="192" y="695" type="curve" smooth="yes"/>
      <point x="231" y="695"/>
      <point x="284" y="702"/>
      <point x="323" y="702" type="curve" smooth="yes"/>
      <point x="361" y="702"/>
      <point x="386" y="695"/>
      <point x="386" y="664" type="curve" smooth="yes"/>
      <point x="386" y="641"/>
      <point x="373" y="624"/>
      <point x="349" y="606" type="curve"/>
    </contour>
  </outline>
</glyph>
<glyph name="bVirama" format="2">
  <unicode hex="09CD"/>
  <outline>
    <contour>
      <point x="-31" y="-256" type="line"/>
      <point x="-34" y="-206" type="line"/>
      <point x="-206" y="-36" type="line"/>
      <point x="-212" y="-38" type="line"/>
      <point x="-210" y="-104" type="line"/>
      <point x="-38" y="-258" type="line"/>
    </contour>
  </outline>
</glyph>
<glyph name="bAuMark" format="2">
  <advance width="247"/>
  <unicode hex="09D7"/>
  <outline>
    <contour>
      <point x="235" y="605" type="line"/>
      <point x="237" y="620"/>
      <point x="239" y="633"/>
      <point x="239" y="649" type="curve" smooth="yes"/>
      <point x="239" y="728"/>
      <point x="193" y="785"/>
      <point x="61" y="785" type="curve" smooth="yes"/>
      <point x="9" y="785"/>
      <point x="-136" y="776"/>
      <point x="-197" y="776" type="curve" smooth="yes"/>
      <point x="-268" y="776"/>
      <point x="-295" y="788"/>
      <point x="-295" y="819" type="curve" smooth="yes"/>
      <point x="-295" y="833"/>
      <point x="-290" y="851"/>
      <point x="-267" y="876" type="curve"/>
      <point x="-287" y="896" type="line"/>
      <point x="-295" y="896" type="line"/>
      <point x="-327" y="867"/>
      <point x="-340" y="833"/>
      <point x="-340" y="804" type="curve" smooth="yes"/>
      <point x="-340" y="740"/>
      <point x="-277" y="694"/>
      <point x="-151" y="694" type="curve" smooth="yes"/>
      <point x="-92" y="694"/>
      <point x="51" y="704"/>
      <point x="112" y="704" type="curve" smooth="yes"/>
      <point x="169" y="704"/>
      <point x="196" y="695"/>
      <point x="196" y="663" type="curve" smooth="yes"/>
      <point x="196" y="644"/>
      <point x="186" y="626"/>
      <point x="157" y="605" type="curve"/>
    </contour>
    <contour>
      <point x="117" y="-43" type="line"/>
      <point x="228" y="568" type="line"/>
      <point x="159" y="568" type="line"/>
      <point x="48" y="10" type="line"/>
      <point x="106" y="-43" type="line"/>
    </contour>
    <contour>
      <point x="316" y="552" type="line"/>
      <point x="317" y="560" type="line"/>
      <point x="269" y="620" type="line"/>
      <point x="22" y="620" type="line"/>
      <point x="20" y="612" type="line"/>
      <point x="69" y="552" type="line"/>
    </contour>
  </outline>
</glyph>
<glyph name="bSignVocalicLl" format="2">
  <unicode hex="09E3"/>
  <outline>
    <contour>
      <point x="-244" y="-368" type="line"/>
      <point x="-154" y="-317"/>
      <point x="-98" y="-267"/>
      <point x="-98" y="-186" type="curve" smooth="yes"/>
      <point x="-98" y="-89"/>
      <point x="-174" y="-57"/>
      <point x="-235" y="-32" type="curve" smooth="yes"/>
      <point x="-269" y="-18"/>
      <point x="-295" y="-6"/>
      <point x="-295" y="18" type="curve" smooth="yes"/>
      <point x="-295" y="33"/>
      <point x="-286" y="45"/>
      <point x="-271" y="56" type="curve"/>
      <point x="-282" y="71" type="line"/>
      <point x="-287" y="71" type="line"/>
      <point x="-319" y="51"/>
      <point x="-326" y="22"/>
      <point x="-326" y="3" type="curve" smooth="yes"/>
      <point x="-326" y="-48"/>
      <point x="-268" y="-75"/>
      <point x="-223" y="-96" type="curve" smooth="yes"/>
      <point x="-175" y="-119"/>
      <point x="-131" y="-140"/>
      <point x="-131" y="-188" type="curve" smooth="yes"/>
      <point x="-131" y="-227"/>
      <point x="-158" y="-260"/>
      <point x="-202" y="-286" type="curve"/>
      <point x="-220" y="-281" type="line"/>
    </contour>
    <contour>
      <point x="-420" y="-388" type="line"/>
      <point x="-382" y="-309"/>
      <point x="-373" y="-290"/>
      <point x="-373" y="-262" type="curve" smooth="yes"/>
      <point x="-373" y="-211"/>
      <point x="-403" y="-169"/>
      <point x="-461" y="-169" type="curve" smooth="yes"/>
      <point x="-531" y="-169"/>
      <point x="-568" y="-230"/>
      <point x="-568" y="-284" type="curve" smooth="yes"/>
      <point x="-568" y="-326"/>
      <point x="-545" y="-364"/>
      <point x="-503" y="-364" type="curve" smooth="yes"/>
      <point x="-472" y="-364"/>
      <point x="-453" y="-343"/>
      <point x="-453" y="-319" type="curve" smooth="yes"/>
      <point x="-453" y="-297"/>
      <point x="-469" y="-282"/>
      <point x="-490" y="-282" type="curve" smooth="yes"/>
      <point x="-514" y="-282"/>
      <point x="-529" y="-300"/>
      <point x="-529" y="-319" type="curve" smooth="yes"/>
      <point x="-529" y="-332"/>
      <point x="-522" y="-339"/>
      <point x="-514" y="-344" type="curve"/>
      <point x="-504" y="-305" type="line"/>
      <point x="-530" y="-331" type="line"/>
      <point x="-539" y="-325"/>
      <point x="-542" y="-312"/>
      <point x="-542" y="-300" type="curve" smooth="yes"/>
      <point x="-542" y="-255"/>
      <point x="-501" y="-222"/>
      <point x="-455" y="-222" type="curve" smooth="yes"/>
      <point x="-420" y="-222"/>
      <point x="-400" y="-242"/>
      <point x="-400" y="-277" type="curve" smooth="yes"/>
      <point x="-400" y="-308"/>
      <point x="-414" y="-342"/>
      <point x="-436" y="-376" type="curve"/>
    </contour>
    <contour>
      <point x="-420" y="-388" type="line"/>
      <point x="-329" y="-335"/>
      <point x="-275" y="-288"/>
      <point x="-275" y="-200" type="curve" smooth="yes"/>
      <point x="-275" y="-110"/>
      <point x="-350" y="-76"/>
      <point x="-403" y="-53" type="curve" smooth="yes"/>
      <point x="-435" y="-39"/>
      <point x="-458" y="-27"/>
      <point x="-458" y="-4" type="curve" smooth="yes"/>
      <point x="-458" y="12"/>
      <point x="-449" y="24"/>
      <point x="-433" y="36" type="curve"/>
      <point x="-445" y="51" type="line"/>
      <point x="-450" y="51" type="line"/>
      <point x="-479" y="33"/>
      <point x="-490" y="5"/>
      <point x="-490" y="-20" type="curve" smooth="yes"/>
      <point x="-490" y="-73"/>
      <point x="-434" y="-98"/>
      <point x="-395" y="-117" type="curve" smooth="yes"/>
      <point x="-347" y="-140"/>
      <point x="-308" y="-165"/>
      <point x="-308" y="-211" type="curve" smooth="yes"/>
      <point x="-308" y="-252"/>
      <point x="-338" y="-287"/>
      <point x="-382" y="-310" type="curve"/>
      <point x="-400" y="-304" type="line"/>
    </contour>
    <contour>
      <point x="-244" y="-368" type="line"/>
      <point x="-218" y="-307"/>
      <point x="-197" y="-293"/>
      <point x="-197" y="-243" type="curve" smooth="yes"/>
      <point x="-197" y="-197"/>
      <point x="-226" y="-151"/>
      <point x="-285" y="-151" type="curve" smooth="yes"/>
      <point x="-289" y="-151"/>
      <point x="-294" y="-151"/>
      <point x="-298" y="-152" type="curve"/>
      <point x="-297" y="-204" type="line"/>
      <point x="-292" y="-203"/>
      <point x="-286" y="-202"/>
      <point x="-279" y="-202" type="curve" smooth="yes"/>
      <point x="-246" y="-202"/>
      <point x="-224" y="-221"/>
      <point x="-224" y="-258" type="curve" smooth="yes"/>
      <point x="-224" y="-286"/>
      <point x="-238" y="-321"/>
      <point x="-260" y="-356" type="curve"/>
    </contour>
  </outline>
</glyph>
<glyph name="bOne" format="2">
  <advance width="491"/>
  <unicode hex="09E7"/>
  <outline>
    <contour>
      <point x="203" y="-10" type="curve" smooth="yes"/>
      <point x="310" y="-10"/>
      <point x="428" y="83"/>
      <point x="428" y="216" type="curve" smooth="yes"/>
      <point x="428" y="388"/>
      <point x="232" y="426"/>
      <point x="206" y="513" type="curve"/>
      <point x="193" y="477" type="line"/>
      <point x="234" y="501"/>
      <point x="247" y="529"/>
      <point x="247" y="552" type="curve" smooth="yes"/>
      <point x="247" y="582"/>
      <point x="225" y="608"/>
      <point x="189" y="608" type="curve" smooth="yes"/>
      <point x="149" y="608"/>
      <point x="114" y="576"/>
      <point x="114" y="526" type="curve" smooth="yes"/>
      <point x="114" y="449"/>
      <point x="200" y="397"/>
      <point x="258" y="363" type="curve" smooth="yes"/>
      <point x="332" y="319"/>
      <point x="380" y="282"/>
      <point x="380" y="223" type="curve" smooth="yes"/>
      <point x="380" y="193"/>
      <point x="368" y="135"/>
      <point x="246" y="96" type="curve"/>
      <point x="297" y="81" type="line"/>
      <point x="277" y="138"/>
      <point x="238" y="172"/>
      <point x="187" y="172" type="curve" smooth="yes"/>
      <point x="128" y="172"/>
      <point x="86" y="131"/>
      <point x="86" y="82" type="curve" smooth="yes"/>
      <point x="86" y="32"/>
      <point x="131" y="-10"/>
    </contour>
  </outline>
</glyph>
<glyph name="bFour" format="2">
  <advance width="544"/>
  <unicode hex="09EA"/>
  <outline>
    <contour>
      <point x="252" y="-10" type="curve" smooth="yes"/>
      <point x="395" y="-10"/>
      <point x="484" y="77"/>
      <point x="484" y="163" type="curve" smooth="yes"/>
      <point x="484" y="236"/>
      <point x="422" y="284"/>
      <point x="338" y="315" type="curve"/>
      <point x="288" y="293" type="line"/>
      <point x="362" y="268"/>
      <point x="391" y="228"/>
      <point x="391" y="188" type="curve" smooth="yes"/>
      <point x="391" y="117"/>
      <point x="296" y="42"/>
      <point x="206" y="42" type="curve" smooth="yes"/>
      <point x="161" y="42"/>
      <point x="119" y="61"/>
      <point x="119" y="112" type="curve" smooth="yes"/>
      <point x="119" y="200"/>
      <point x="245" y="241"/>
      <point x="349" y="288" type="curve" smooth="yes"/>
      <point x="438" y="328"/>
      <point x="521" y="376"/>
      <point x="521" y="462" type="curve" smooth="yes"/>
      <point x="521" y="544"/>
      <point x="444" y="608"/>
      <point x="334" y="608" type="curve" smooth="yes"/>
      <point x="211" y="608"/>
      <point x="123" y="529"/>
      <point x="123" y="446" type="curve" smooth="yes"/>
      <point x="123" y="399"/>
      <point x="151" y="352"/>
      <point x="237" y="313" type="curve"/>
      <point x="276" y="337" type="line"/>
      <point x="234" y="355"/>
      <point x="210" y="387"/>
      <point x="210" y="423" type="curve" smooth="yes"/>
      <point x="210" y="487"/>
      <point x="286" y="555"/>
      <point x="370" y="555" type="curve" smooth="yes"/>
      <point x="416" y="555"/>
      <point x="453" y="534"/>
      <point x="453" y="491" type="curve" smooth="yes"/>
      <point x="453" y="419"/>
      <point x="347" y="381"/>
      <point x="239" y="332" type="curve" smooth="yes"/>
      <point x="137" y="286"/>
      <point x="47" y="235"/>
      <point x="47" y="144" type="curve" smooth="yes"/>
      <point x="47" y="60"/>
      <point x="123" y="-10"/>
    </contour>
  </outline>
</glyph>
<glyph name="bSeven" format="2">
  <advance width="505"/>
  <unicode hex="09ED"/>
  <outline>
    <contour>
      <point x="373" y="-10" type="curve" smooth="yes"/>
      <point x="410" y="-10"/>
      <point x="441" y="14"/>
      <point x="441" y="50" type="curve" smooth="yes"/>
      <point x="441" y="79"/>
      <point x="420" y="99"/>
      <point x="394" y="99" type="curve" smooth="yes"/>
      <point x="378" y="99"/>
      <point x="368" y="92"/>
      <point x="363" y="87" type="curve"/>
      <point x="407" y="77" type="line"/>
      <point x="376" y="98" type="line"/>
      <point x="392" y="160"/>
      <point x="391" y="158"/>
      <point x="424" y="325" type="curve" smooth="yes"/>
      <point x="444" y="426" type="line" smooth="yes"/>
      <point x="445" y="433"/>
      <point x="446" y="440"/>
      <point x="446" y="449" type="curve" smooth="yes"/>
      <point x="446" y="524"/>
      <point x="373" y="608"/>
      <point x="297" y="608" type="curve" smooth="yes"/>
      <point x="214" y="608"/>
      <point x="72" y="507"/>
      <point x="72" y="412" type="curve" smooth="yes"/>
      <point x="72" y="342"/>
      <point x="149" y="243"/>
      <point x="266" y="243" type="curve" smooth="yes"/>
      <point x="289" y="243"/>
      <point x="310" y="247"/>
      <point x="331" y="253" type="curve"/>
      <point x="346" y="247" type="line"/>
      <point x="365" y="345" type="line"/>
      <point x="326" y="330"/>
      <point x="282" y="317"/>
      <point x="231" y="317" type="curve" smooth="yes"/>
      <point x="182" y="317"/>
      <point x="143" y="329"/>
      <point x="143" y="376" type="curve" smooth="yes"/>
      <point x="143" y="455"/>
      <point x="265" y="535"/>
      <point x="327" y="535" type="curve" smooth="yes"/>
      <point x="356" y="535"/>
      <point x="376" y="518"/>
      <point x="376" y="486" type="curve" smooth="yes"/>
      <point x="376" y="470"/>
      <point x="373" y="461"/>
      <point x="371" y="450" type="curve" smooth="yes"/>
      <point x="305" y="110" type="line" smooth="yes"/>
      <point x="302" y="96"/>
      <point x="301" y="83"/>
      <point x="301" y="73" type="curve" smooth="yes"/>
      <point x="301" y="11"/>
      <point x="339" y="-10"/>
    </contour>
  </outline>
</glyph>
<glyph name="bEight" format="2">
  <advance width="600"/>
  <unicode hex="09EE"/>
  <outline>
    <contour>
      <point x="213" y="-10" type="curve" smooth="yes"/>
      <point x="308" y="-10"/>
      <point x="463" y="129"/>
      <point x="463" y="217" type="curve" smooth="yes"/>
      <point x="463" y="247"/>
      <point x="445" y="268"/>
      <point x="411" y="283" type="curve"/>
      <point x="400" y="305" type="line"/>
      <point x="396" y="304" type="line"/>
      <point x="377" y="348"/>
      <point x="334" y="367"/>
      <point x="293" y="367" type="curve" smooth="yes"/>
      <point x="272" y="367"/>
      <point x="243" y="362"/>
      <point x="208" y="343" type="curve"/>
      <point x="180" y="353" type="line"/>
      <point x="188" y="260" type="line"/>
      <point x="219" y="274"/>
      <point x="269" y="293"/>
      <point x="313" y="293" type="curve" smooth="yes"/>
      <point x="351" y="293"/>
      <point x="385" y="280"/>
      <point x="385" y="242" type="curve" smooth="yes"/>
      <point x="385" y="162"/>
      <point x="238" y="61"/>
      <point x="186" y="61" type="curve" smooth="yes"/>
      <point x="168" y="61"/>
      <point x="158" y="74"/>
      <point x="158" y="95" type="curve" smooth="yes"/>
      <point x="158" y="101"/>
      <point x="159" y="105"/>
      <point x="160" y="111" type="curve" smooth="yes"/>
      <point x="233" y="488" type="line" smooth="yes"/>
      <point x="236" y="503"/>
      <point x="237" y="518"/>
      <point x="237" y="528" type="curve" smooth="yes"/>
      <point x="237" y="588"/>
      <point x="198" y="608"/>
      <point x="165" y="608" type="curve" smooth="yes"/>
      <point x="129" y="608"/>
      <point x="97" y="584"/>
      <point x="97" y="548" type="curve" smooth="yes"/>
      <point x="97" y="518"/>
      <point x="119" y="500"/>
      <point x="144" y="500" type="curve" smooth="yes"/>
      <point x="158" y="500"/>
      <point x="174" y="506"/>
      <point x="182" y="515" type="curve"/>
      <point x="136" y="526" type="line"/>
      <point x="162" y="500" type="line"/>
      <point x="151" y="464"/>
      <point x="145" y="431"/>
      <point x="126" y="335" type="curve" smooth="yes"/>
      <point x="88" y="139" type="line" smooth="yes"/>
      <point x="87" y="134"/>
      <point x="86" y="126"/>
      <point x="86" y="119" type="curve" smooth="yes"/>
      <point x="86" y="62"/>
      <point x="145" y="-10"/>
    </contour>
    <contour>
      <point x="408" y="277" type="line"/>
      <point x="416" y="290"/>
      <point x="424" y="295"/>
      <point x="451" y="295" type="curve" smooth="yes"/>
      <point x="472" y="295"/>
      <point x="498" y="291"/>
      <point x="522" y="291" type="curve" smooth="yes"/>
      <point x="581" y="291"/>
      <point x="605" y="316"/>
      <point x="624" y="396" type="curve"/>
      <point x="602" y="416" type="line"/>
      <point x="598" y="416" type="line"/>
      <point x="585" y="384"/>
      <point x="575" y="367"/>
      <point x="531" y="367" type="curve" smooth="yes"/>
      <point x="518" y="367"/>
      <point x="495" y="369"/>
      <point x="481" y="369" type="curve" smooth="yes"/>
      <point x="438" y="369"/>
      <point x="413" y="350"/>
      <point x="392" y="289" type="curve"/>
    </contour>
  </outline>
</glyph>
<glyph name="bRaAssamese" format="2">
  <advance width="535"/>
  <unicode hex="09F0"/>
  <outline>
    <contour>
      <point x="381" y="131" type="line"/>
      <point x="362" y="120" type="line"/>
      <point x="301" y="221"/>
      <point x="223" y="269"/>
      <point x="150" y="299" type="curve"/>
      <point x="150" y="302" type="line"/>
      <point x="239" y="353"/>
      <point x="340" y="398"/>
      <point x="432" y="434" type="curve"/>
      <point x="450" y="525" type="line"/>
      <point x="304" y="471"/>
      <point x="220" y="432"/>
      <point x="27" y="330" type="curve"/>
      <point x="87" y="231" type="line"/>
      <point x="261" y="206"/>
      <point x="358" y="96"/>
      <point x="375" y="-16" type="curve"/>
    </contour>
    <contour>
      <point x="395" y="261" type="line"/>
      <point x="352" y="311"/>
      <point x="304" y="350"/>
      <point x="255" y="387" type="curve"/>
      <point x="220" y="360" type="line"/>
      <point x="289" y="313"/>
      <point x="342" y="264"/>
      <point x="385" y="212" type="curve"/>
    </contour>
    <contour>
      <point x="411" y="-33" type="line"/>
      <point x="425" y="68"/>
      <point x="436" y="132"/>
      <point x="451" y="208" type="curve" smooth="yes"/>
      <point x="521" y="568" type="line"/>
      <point x="443" y="568" type="line"/>
      <point x="420" y="451" type="line" smooth="yes"/>
      <point x="387" y="285"/>
      <point x="364" y="162"/>
      <point x="365" y="115" type="curve"/>
      <point x="375" y="-16" type="line"/>
      <point x="400" y="-33" type="line"/>
    </contour>
    <contour>
      <point x="603" y="552" type="line"/>
      <point x="605" y="560" type="line"/>
      <point x="557" y="620" type="line"/>
      <point x="22" y="620" type="line"/>
      <point x="20" y="612" type="line"/>
      <point x="68" y="552" type="line"/>
    </contour>
  </outline>
</glyph>
<glyph name="bVaAssamese" format="2">
  <advance width="535"/>
  <unicode hex="09F1"/>
  <outline>
    <contour>
      <point x="391" y="138" type="line"/>
      <point x="363" y="121" type="line"/>
      <point x="301" y="222"/>
      <point x="228" y="268"/>
      <point x="155" y="298" type="curve"/>
      <point x="155" y="301" type="line"/>
      <point x="244" y="352"/>
      <point x="341" y="396"/>
      <point x="432" y="429" type="curve"/>
      <point x="451" y="525" type="line"/>
      <point x="304" y="471"/>
      <point x="220" y="432"/>
      <point x="27" y="330" type="curve"/>
      <point x="87" y="233" type="line"/>
      <point x="260" y="207"/>
      <point x="358" y="96"/>
      <point x="375" y="-16" type="curve"/>
    </contour>
    <contour>
      <point x="292" y="-17" type="line"/>
      <point x="297" y="32" type="line"/>
      <point x="238" y="92"/>
      <point x="171" y="137"/>
      <point x="107" y="170" type="curve"/>
      <point x="103" y="170" type="line"/>
      <point x="98" y="124" type="line"/>
      <point x="163" y="91"/>
      <point x="230" y="44"/>
      <point x="288" y="-17" type="curve"/>
    </contour>
    <contour>
      <point x="411" y="-33" type="line"/>
      <point x="425" y="68"/>
      <point x="436" y="132"/>
      <point x="451" y="208" type="curve" smooth="yes"/>
      <point x="521" y="568" type="line"/>
      <point x="443" y="568" type="line"/>
      <point x="419" y="446" type="line" smooth="yes"/>
      <point x="386" y="279"/>
      <point x="365" y="164"/>
      <point x="366" y="116" type="curve"/>
      <point x="375" y="-16" type="line"/>
      <point x="400" y="-33" type="line"/>
    </contour>
    <contour>
      <point x="603" y="552" type="line"/>
      <point x="605" y="560" type="line"/>
      <point x="557" y="620" type="line"/>
      <point x="22" y="620" type="line"/>
      <point x="20" y="612" type="line"/>
      <point x="68" y="552" type="line"/>
    </contour>
  </outline>
</glyph>
<glyph name="bRupeesign" format="2">
  <advance width="563"/>
  <unicode hex="09F3"/>
  <outline>
    <contour>
      <point x="224" y="-10" type="curve" smooth="yes"/>
      <point x="305" y="-10"/>
      <point x="501" y="148"/>
      <point x="501" y="293" type="curve" smooth="yes"/>
      <point x="501" y="360"/>
      <point x="459" y="403"/>
      <point x="403" y="403" type="curve" smooth="yes"/>
      <point x="348" y="403"/>
      <point x="313" y="364"/>
      <point x="313" y="322" type="curve" smooth="yes"/>
      <point x="313" y="280"/>
      <point x="344" y="251"/>
      <point x="385" y="251" type="curve" smooth="yes"/>
      <point x="410" y="251"/>
      <point x="427" y="262"/>
      <point x="439" y="277" type="curve"/>
      <point x="404" y="269" type="line"/>
      <point x="388" y="164"/>
      <point x="243" y="72"/>
      <point x="196" y="72" type="curve" smooth="yes"/>
      <point x="179" y="72"/>
      <point x="171" y="84"/>
      <point x="171" y="106" type="curve" smooth="yes"/>
      <point x="171" y="113"/>
      <point x="172" y="121"/>
      <point x="174" y="130" type="curve" smooth="yes"/>
      <point x="271" y="633" type="line" smooth="yes"/>
      <point x="274" y="648"/>
      <point x="275" y="663"/>
      <point x="275" y="672" type="curve" smooth="yes"/>
      <point x="275" y="726"/>
      <point x="243" y="753"/>
      <point x="203" y="753" type="curve" smooth="yes"/>
      <point x="165" y="753"/>
      <point x="135" y="729"/>
      <point x="135" y="693" type="curve" smooth="yes"/>
      <point x="135" y="661"/>
      <point x="160" y="645"/>
      <point x="185" y="645" type="curve" smooth="yes"/>
      <point x="199" y="645"/>
      <point x="210" y="650"/>
      <point x="220" y="660" type="curve"/>
      <point x="174" y="671" type="line"/>
      <point x="200" y="645" type="line"/>
      <point x="189" y="609"/>
      <point x="181" y="562"/>
      <point x="172" y="517" type="curve" smooth="yes"/>
      <point x="101" y="155" type="line" smooth="yes"/>
      <point x="100" y="150"/>
      <point x="99" y="144"/>
      <point x="99" y="136" type="curve" smooth="yes"/>
      <point x="99" y="75"/>
      <point x="166" y="-10"/>
    </contour>
    <contour>
      <point x="548" y="459" type="line"/>
      <point x="550" y="467" type="line"/>
      <point x="510" y="517" type="line"/>
      <point x="57" y="517" type="line"/>
      <point x="55" y="509" type="line"/>
      <point x="95" y="459" type="line"/>
    </contour>
  </outline>
</glyph>
<glyph name="bCurrencyNomThree" format="2">
  <advance width="661"/>
  <unicode hex="09F6"/>
  <outline>
    <contour>
      <point x="203" y="0" type="curve" smooth="yes"/>
      <point x="403" y="0"/>
      <point x="589" y="334"/>
      <point x="665" y="530" type="curve"/>
      <point x="643" y="550" type="line"/>
      <point x="637" y="550" type="line"/>
      <point x="532" y="335"/>
      <point x="325" y="69"/>
      <point x="160" y="69" type="curve" smooth="yes"/>
      <point x="124" y="69"/>
      <point x="109" y="82"/>
      <point x="109" y="97" type="curve" smooth="yes"/>
      <point x="109" y="125"/>
      <point x="157" y="138"/>
      <point x="208" y="155" type="curve" smooth="yes"/>
      <point x="284" y="180"/>
      <point x="359" y="215"/>
      <point x="359" y="306" type="curve" smooth="yes"/>
      <point x="359" y="381"/>
      <point x="308" y="434"/>
      <point x="223" y="434" type="curve" smooth="yes"/>
      <point x="145" y="434"/>
      <point x="90" y="390"/>
      <point x="90" y="333" type="curve" smooth="yes"/>
      <point x="90" y="289"/>
      <point x="123" y="266"/>
      <point x="159" y="266" type="curve" smooth="yes"/>
      <point x="194" y="266"/>
      <point x="232" y="287"/>
      <point x="232" y="335" type="curve" smooth="yes"/>
      <point x="232" y="351"/>
      <point x="228" y="376"/>
      <point x="209" y="391" type="curve"/>
      <point x="212" y="367" type="line"/>
      <point x="227" y="374"/>
      <point x="238" y="375"/>
      <point x="247" y="375" type="curve" smooth="yes"/>
      <point x="289" y="375"/>
      <point x="313" y="355"/>
      <point x="313" y="324" type="curve" smooth="yes"/>
      <point x="313" y="270"/>
      <point x="238" y="247"/>
      <point x="184" y="228" type="curve" smooth="yes"/>
      <point x="115" y="204"/>
      <point x="51" y="182"/>
      <point x="51" y="121" type="curve" smooth="yes"/>
      <point x="51" y="58"/>
      <point x="119" y="0"/>
    </contour>
  </outline>
</glyph>
<glyph name="bCurrencyDenomSixteen" format="2">
  <advance width="481"/>
  <unicode hex="09F9"/>
  <outline>
    <contour>
      <point x="243" y="133" type="curve" smooth="yes"/>
      <point x="352" y="133"/>
      <point x="439" y="210"/>
      <point x="439" y="312" type="curve" smooth="yes"/>
      <point x="439" y="396"/>
      <point x="381" y="470"/>
      <point x="274" y="470" type="curve" smooth="yes"/>
      <point x="153" y="470"/>
      <point x="79" y="379"/>
      <point x="79" y="288" type="curve" smooth="yes"/>
      <point x="79" y="206"/>
      <point x="139" y="133"/>
    </contour>
    <contour>
      <point x="203" y="187" type="curve" smooth="yes"/>
      <point x="167" y="187"/>
      <point x="146" y="213"/>
      <point x="146" y="251" type="curve" smooth="yes"/>
      <point x="146" y="331"/>
      <point x="243" y="414"/>
      <point x="312" y="414" type="curve" smooth="yes"/>
      <point x="351" y="414"/>
      <point x="372" y="387"/>
      <point x="372" y="352" type="curve" smooth="yes"/>
      <point x="372" y="273"/>
      <point x="271" y="187"/>
    </contour>
  </outline>
</glyph>
<glyph name="vKarshana" format="2">
  <unicode hex="1CD0"/>
  <outline>
    <contour>
      <point x="37" y="829" type="line"/>
      <point x="-13" y="836" type="line"/>
      <point x="101" y="672" type="line"/>
      <point x="105" y="672" type="line"/>
      <point x="143" y="701" type="line"/>
      <point x="9" y="888" type="line"/>
      <point x="5" y="888" type="line"/>
      <point x="-211" y="726" type="line"/>
      <point x="-214" y="718" type="line"/>
      <point x="-169" y="668" type="line"/>
    </contour>
  </outline>
</glyph>
<glyph name="vJihvamuliya" format="2">
  <advance width="540"/>
  <unicode hex="1CF5"/>
  <outline>
    <contour>
      <point x="48" y="-10" type="line"/>
      <point x="539" y="564" type="line"/>
      <point x="492" y="620" type="line"/>
      <point x="485" y="620" type="line"/>
      <point x="-6" y="46" type="line"/>
      <point x="41" y="-10" type="line"/>
    </contour>
    <contour>
      <point x="433" y="0" type="line"/>
      <point x="292" y="316" type="line"/>
      <point x="255" y="282" type="line"/>
      <point x="376" y="-12" type="line"/>
    </contour>
    <contour>
      <point x="292" y="326" type="line"/>
      <point x="171" y="620" type="line"/>
      <point x="114" y="608" type="line"/>
      <point x="255" y="292" type="line"/>
    </contour>
  </outline>
  <guideline angle="90" x="40" y="0"/>
  <guideline angle="90" x="473" y="0"/>
</glyph>
<glyph name="vAtikrama" format="2">
  <advance width="253"/>
  <unicode hex="1CF7"/>
  <outline>
    <contour>
      <point x="71" y="-244" type="line"/>
      <point x="224" y="625" type="line" smooth="yes"/>
      <point x="230" y="657"/>
      <point x="232" y="675"/>
      <point x="233" y="680" type="curve" smooth="yes"/>
      <point x="239" y="711"/>
      <point x="265" y="769"/>
      <point x="337" y="769" type="curve" smooth="yes"/>
      <point x="347" y="769"/>
      <point x="387" y="768"/>
      <point x="418" y="765" type="curve"/>
      <point x="419" y="772" type="line"/>
      <point x="385" y="843" type="line"/>
      <point x="252" y="843"/>
      <point x="189" y="741"/>
      <point x="167" y="628" type="curve" smooth="yes"/>
      <point x="5" y="-197" type="line"/>
      <point x="60" y="-244" type="line"/>
    </contour>
  </outline>
  <guideline angle="0" x="0" y="375"/>
  <guideline angle="100.819" x="200" y="0"/>
</glyph>
<glyph name="dAvagrahacomb" format="2">
  <unicode hex="A8F1"/>
  <outline>
    <contour>
      <point x="94" y="919" type="line"/>
      <point x="63" y="960" type="line"/>
      <point x="50" y="962"/>
      <point x="36" y="964"/>
      <point x="18" y="964" type="curve" smooth="yes"/>
      <point x="-25" y="964"/>
      <point x="-84" y="953"/>
      <point x="-84" y="897" type="curve" smooth="yes"/>
      <point x="-84" y="857"/>
      <point x="-53" y="834"/>
      <point x="-24" y="815" type="curve" smooth="yes"/>
      <point x="8" y="794"/>
      <point x="26" y="783"/>
      <point x="26" y="761" type="curve" smooth="yes"/>
      <point x="26" y="737"/>
      <point x="5" y="715"/>
      <point x="-27" y="715" type="curve" smooth="yes"/>
      <point x="-67" y="715"/>
      <point x="-94" y="748"/>
      <point x="-114" y="777" type="curve"/>
      <point x="-119" y="777" type="line"/>
      <point x="-116" y="743" type="line"/>
      <point x="-96" y="708"/>
      <point x="-58" y="669"/>
      <point x="-10" y="669" type="curve" smooth="yes"/>
      <point x="35" y="669"/>
      <point x="68" y="703"/>
      <point x="68" y="747" type="curve" smooth="yes"/>
      <point x="68" y="789"/>
      <point x="37" y="813"/>
      <point x="9" y="833" type="curve" smooth="yes"/>
      <point x="-24" y="856"/>
      <point x="-38" y="864"/>
      <point x="-38" y="884" type="curve" smooth="yes"/>
      <point x="-38" y="915"/>
      <point x="0" y="919"/>
      <point x="28" y="919" type="curve" smooth="yes"/>
      <point x="47" y="919"/>
      <point x="71" y="917"/>
      <point x="93" y="914" type="curve"/>
    </contour>
  </outline>
  <guideline angle="90" x="81" y="0"/>
</glyph>
<glyph name="bAuMarkReph.alt" format="2">
  <advance width="247"/>
  <outline>
    <contour>
      <point x="234" y="604" type="line"/>
      <point x="237" y="621"/>
      <point x="238" y="639"/>
      <point x="238" y="652" type="curve" smooth="yes"/>
      <point x="238" y="734"/>
      <point x="199" y="794"/>
      <point x="74" y="794" type="curve" smooth="yes"/>
      <point x="23" y="794"/>
      <point x="-74" y="784"/>
      <point x="-127" y="784" type="curve" smooth="yes"/>
      <point x="-185" y="784"/>
      <point x="-210" y="796"/>
      <point x="-210" y="826" type="curve" smooth="yes"/>
      <point x="-210" y="841"/>
      <point x="-204" y="859"/>
      <point x="-182" y="884" type="curve"/>
      <point x="-202" y="904" type="line"/>
      <point x="-210" y="904" type="line"/>
      <point x="-241" y="875"/>
      <point x="-254" y="841"/>
      <point x="-254" y="814" type="curve" smooth="yes"/>
      <point x="-254" y="757"/>
      <point x="-195" y="710"/>
      <point x="-81" y="710" type="curve" smooth="yes"/>
      <point x="-29" y="710"/>
      <point x="74" y="720"/>
      <point x="118" y="720" type="curve" smooth="yes"/>
      <point x="174" y="720"/>
      <point x="196" y="703"/>
      <point x="196" y="669" type="curve" smooth="yes"/>
      <point x="196" y="652"/>
      <point x="190" y="627"/>
      <point x="156" y="604" type="curve"/>
    </contour>
    <contour>
      <point x="116" y="-43" type="line"/>
      <point x="227" y="568" type="line"/>
      <point x="158" y="568" type="line"/>
      <point x="48" y="10" type="line"/>
      <point x="105" y="-43" type="line"/>
    </contour>
    <contour>
      <point x="315" y="552" type="line"/>
      <point x="317" y="560" type="line"/>
      <point x="268" y="620" type="line"/>
      <point x="21" y="620" type="line"/>
      <point x="20" y="612" type="line"/>
      <point x="68" y="552" type="line"/>
    </contour>
    <contour>
      <point x="231" y="911" type="line"/>
      <point x="232" y="915" type="line"/>
      <point x="211" y="921" type="line"/>
      <point x="-102" y="748" type="line"/>
      <point x="-1" y="734" type="line"/>
    </contour>
  </outline>
</glyph>
<glyph name="bAuMarkReph.fina" format="2">
  <advance width="247"/>
  <outline>
    <contour>
      <point x="117" y="-43" type="line"/>
      <point x="234" y="604" type="line" smooth="yes"/>
      <point x="237" y="619"/>
      <point x="238" y="633"/>
      <point x="238" y="645" type="curve" smooth="yes"/>
      <point x="238" y="741"/>
      <point x="169" y="785"/>
      <point x="69" y="785" type="curve" smooth="yes"/>
      <point x="-6" y="785"/>
      <point x="-118" y="776"/>
      <point x="-209" y="776" type="curve" smooth="yes"/>
      <point x="-264" y="776"/>
      <point x="-295" y="788"/>
      <point x="-295" y="819" type="curve" smooth="yes"/>
      <point x="-295" y="833"/>
      <point x="-290" y="851"/>
      <point x="-267" y="876" type="curve"/>
      <point x="-287" y="896" type="line"/>
      <point x="-295" y="896" type="line"/>
      <point x="-327" y="867"/>
      <point x="-340" y="833"/>
      <point x="-340" y="805" type="curve" smooth="yes"/>
      <point x="-340" y="746"/>
      <point x="-284" y="697"/>
      <point x="-171" y="697" type="curve" smooth="yes"/>
      <point x="-99" y="697"/>
      <point x="-37" y="709"/>
      <point x="114" y="709" type="curve" smooth="yes"/>
      <point x="171" y="709"/>
      <point x="197" y="695"/>
      <point x="197" y="664" type="curve" smooth="yes"/>
      <point x="197" y="645"/>
      <point x="187" y="626"/>
      <point x="156" y="603" type="curve"/>
      <point x="159" y="568" type="line"/>
      <point x="48" y="10" type="line"/>
      <point x="106" y="-43" type="line"/>
    </contour>
    <contour>
      <point x="172" y="552" type="line"/>
      <point x="185" y="620" type="line"/>
      <point x="22" y="620" type="line"/>
      <point x="20" y="612" type="line"/>
      <point x="69" y="552" type="line"/>
    </contour>
    <contour>
      <point x="305" y="911" type="line"/>
      <point x="306" y="915" type="line"/>
      <point x="285" y="921" type="line"/>
      <point x="-27" y="748" type="line"/>
      <point x="74" y="734" type="line"/>
    </contour>
  </outline>
</glyph>
<glyph name="bAuMarkReph.finaalt" format="2">
  <advance width="247"/>
  <outline>
    <contour>
      <point x="117" y="-43" type="line"/>
      <point x="232" y="598" type="line" smooth="yes"/>
      <point x="236" y="619"/>
      <point x="238" y="639"/>
      <point x="238" y="656" type="curve" smooth="yes"/>
      <point x="238" y="740"/>
      <point x="191" y="794"/>
      <point x="74" y="794" type="curve" smooth="yes"/>
      <point x="23" y="794"/>
      <point x="-74" y="784"/>
      <point x="-127" y="784" type="curve" smooth="yes"/>
      <point x="-185" y="784"/>
      <point x="-210" y="796"/>
      <point x="-210" y="826" type="curve" smooth="yes"/>
      <point x="-210" y="841"/>
      <point x="-204" y="859"/>
      <point x="-182" y="884" type="curve"/>
      <point x="-202" y="904" type="line"/>
      <point x="-210" y="904" type="line"/>
      <point x="-241" y="875"/>
      <point x="-254" y="841"/>
      <point x="-254" y="814" type="curve" smooth="yes"/>
      <point x="-254" y="757"/>
      <point x="-195" y="710"/>
      <point x="-81" y="710" type="curve" smooth="yes"/>
      <point x="-29" y="710"/>
      <point x="75" y="720"/>
      <point x="118" y="720" type="curve" smooth="yes"/>
      <point x="173" y="720"/>
      <point x="196" y="703"/>
      <point x="196" y="670" type="curve" smooth="yes"/>
      <point x="196" y="655"/>
      <point x="191" y="631"/>
      <point x="155" y="603" type="curve"/>
      <point x="158" y="568" type="line"/>
      <point x="48" y="10" type="line"/>
      <point x="105" y="-43" type="line"/>
    </contour>
    <contour>
      <point x="170" y="552" type="line"/>
      <point x="183" y="620" type="line"/>
      <point x="21" y="620" type="line"/>
      <point x="20" y="612" type="line"/>
      <point x="68" y="552" type="line"/>
    </contour>
    <contour>
      <point x="231" y="911" type="line"/>
      <point x="232" y="915" type="line"/>
      <point x="211" y="921" type="line"/>
      <point x="-102" y="748" type="line"/>
      <point x="-1" y="734" type="line"/>
    </contour>
  </outline>
</glyph>
<glyph name="bBRa_bSignU" format="2">
  <advance width="923"/>
  <outline>
    <contour>
      <point x="522" y="159" type="line"/>
      <point x="504" y="148" type="line"/>
      <point x="446" y="249"/>
      <point x="376" y="295"/>
      <point x="307" y="325" type="curve"/>
      <point x="308" y="327" type="line"/>
      <point x="395" y="368"/>
      <point x="488" y="405"/>
      <point x="575" y="434" type="curve"/>
      <point x="589" y="527" type="line"/>
      <point x="476" y="494"/>
      <point x="328" y="433"/>
      <point x="175" y="359" type="curve"/>
      <point x="242" y="262" type="line"/>
      <point x="386" y="233"/>
      <point x="494" y="152"/>
      <point x="512" y="25" type="curve"/>
    </contour>
    <contour>
      <point x="521" y="58" type="line"/>
      <point x="502" y="49" type="line"/>
      <point x="451" y="105"/>
      <point x="393" y="119"/>
      <point x="323" y="119" type="curve" smooth="yes"/>
      <point x="285" y="119"/>
      <point x="226" y="115"/>
      <point x="195" y="115" type="curve" smooth="yes"/>
      <point x="109" y="115"/>
      <point x="72" y="145"/>
      <point x="72" y="199" type="curve" smooth="yes"/>
      <point x="72" y="233"/>
      <point x="86" y="274"/>
      <point x="114" y="314" type="curve"/>
      <point x="94" y="329" type="line"/>
      <point x="85" y="329" type="line"/>
      <point x="50" y="284"/>
      <point x="22" y="229"/>
      <point x="22" y="175" type="curve" smooth="yes"/>
      <point x="22" y="85"/>
      <point x="99" y="30"/>
      <point x="216" y="30" type="curve" smooth="yes"/>
      <point x="263" y="30"/>
      <point x="329" y="39"/>
      <point x="413" y="39" type="curve" smooth="yes"/>
      <point x="469" y="39"/>
      <point x="505" y="35"/>
      <point x="511" y="-39" type="curve"/>
    </contour>
    <contour>
      <point x="547" y="-56" type="line"/>
      <point x="561" y="41"/>
      <point x="571" y="102"/>
      <point x="585" y="174" type="curve" smooth="yes"/>
      <point x="607" y="287" type="line"/>
      <point x="613" y="342" type="line"/>
      <point x="634" y="421" type="line"/>
      <point x="662" y="568" type="line"/>
      <point x="583" y="568" type="line"/>
      <point x="561" y="453" type="line" smooth="yes"/>
      <point x="526" y="271"/>
      <point x="501" y="149"/>
      <point x="508" y="126" type="curve"/>
      <point x="511" y="-39" type="line"/>
      <point x="536" y="-56" type="line"/>
    </contour>
    <contour>
      <point x="991" y="552" type="line"/>
      <point x="993" y="560" type="line"/>
      <point x="945" y="620" type="line"/>
      <point x="22" y="620" type="line"/>
      <point x="20" y="612" type="line"/>
      <point x="68" y="552" type="line"/>
    </contour>
    <contour>
      <point x="745" y="179" type="curve" smooth="yes"/>
      <point x="818" y="179"/>
      <point x="892" y="233"/>
      <point x="892" y="326" type="curve" smooth="yes"/>
      <point x="892" y="418"/>
      <point x="820" y="454"/>
      <point x="765" y="454" type="curve" smooth="yes"/>
      <point x="711" y="454"/>
      <point x="677" y="419"/>
      <point x="677" y="380" type="curve" smooth="yes"/>
      <point x="677" y="348"/>
      <point x="700" y="321"/>
      <point x="738" y="321" type="curve" smooth="yes"/>
      <point x="776" y="321"/>
      <point x="797" y="349"/>
      <point x="797" y="377" type="curve" smooth="yes"/>
      <point x="797" y="393"/>
      <point x="790" y="408"/>
      <point x="775" y="416" type="curve"/>
      <point x="767" y="376" type="line"/>
      <point x="793" y="402" type="line"/>
      <point x="834" y="402"/>
      <point x="849" y="376"/>
      <point x="849" y="351" type="curve" smooth="yes"/>
      <point x="849" y="308"/>
      <point x="802" y="254"/>
      <point x="727" y="254" type="curve" smooth="yes"/>
      <point x="650" y="254"/>
      <point x="628" y="309"/>
      <point x="628" y="368" type="curve" smooth="yes"/>
      <point x="628" y="386"/>
      <point x="630" y="404"/>
      <point x="634" y="421" type="curve"/>
      <point x="595" y="344" type="line"/>
      <point x="606" y="287" type="line"/>
      <point x="610" y="287" type="line"/>
      <point x="638" y="213"/>
      <point x="687" y="179"/>
    </contour>
  </outline>
</glyph>
<glyph name="bBhRa_bSignUu" format="2">
  <advance width="839"/>
  <outline>
    <contour>
      <point x="521" y="110" type="line"/>
      <point x="495" y="98" type="line"/>
      <point x="450" y="157"/>
      <point x="398" y="168"/>
      <point x="336" y="168" type="curve" smooth="yes"/>
      <point x="295" y="168"/>
      <point x="243" y="163"/>
      <point x="210" y="163" type="curve" smooth="yes"/>
      <point x="121" y="163"/>
      <point x="84" y="198"/>
      <point x="84" y="257" type="curve" smooth="yes"/>
      <point x="84" y="288"/>
      <point x="94" y="334"/>
      <point x="133" y="385" type="curve"/>
      <point x="113" y="400" type="line"/>
      <point x="104" y="400" type="line"/>
      <point x="63" y="351"/>
      <point x="33" y="288"/>
      <point x="33" y="229" type="curve" smooth="yes"/>
      <point x="33" y="135"/>
      <point x="108" y="76"/>
      <point x="226" y="76" type="curve" smooth="yes"/>
      <point x="277" y="76"/>
      <point x="343" y="87"/>
      <point x="403" y="87" type="curve" smooth="yes"/>
      <point x="472" y="87"/>
      <point x="497" y="72"/>
      <point x="507" y="-19" type="curve"/>
    </contour>
    <contour>
      <point x="337" y="295" type="curve" smooth="yes"/>
      <point x="418" y="295"/>
      <point x="491" y="339"/>
      <point x="543" y="405" type="curve"/>
      <point x="568" y="398" type="line"/>
      <point x="527" y="508" type="line"/>
      <point x="522" y="507" type="line"/>
      <point x="462" y="421"/>
      <point x="397" y="376"/>
      <point x="343" y="370" type="curve"/>
      <point x="331" y="405" type="line"/>
      <point x="316" y="360" type="line"/>
      <point x="359" y="373"/>
      <point x="376" y="401"/>
      <point x="376" y="431" type="curve" smooth="yes"/>
      <point x="376" y="474"/>
      <point x="340" y="501"/>
      <point x="297" y="501" type="curve" smooth="yes"/>
      <point x="249" y="501"/>
      <point x="198" y="466"/>
      <point x="198" y="406" type="curve" smooth="yes"/>
      <point x="198" y="345"/>
      <point x="250" y="295"/>
    </contour>
    <contour>
      <point x="543" y="-36" type="line"/>
      <point x="556" y="49"/>
      <point x="576" y="156"/>
      <point x="579" y="170" type="curve" smooth="yes"/>
      <point x="609" y="325" type="line"/>
      <point x="615" y="363"/>
      <point x="620" y="389"/>
      <point x="620" y="402" type="curve" smooth="yes"/>
      <point x="620" y="429"/>
      <point x="596" y="478"/>
      <point x="527" y="508" type="curve"/>
      <point x="546" y="411" type="line"/>
      <point x="529" y="324" type="line" smooth="yes"/>
      <point x="502" y="186"/>
      <point x="497" y="112"/>
      <point x="498" y="95" type="curve"/>
      <point x="507" y="-19" type="line"/>
      <point x="532" y="-36" type="line"/>
    </contour>
    <contour>
      <point x="907" y="552" type="line"/>
      <point x="909" y="560" type="line"/>
      <point x="861" y="620" type="line"/>
      <point x="22" y="620" type="line"/>
      <point x="20" y="612" type="line"/>
      <point x="68" y="552" type="line"/>
    </contour>
    <contour>
      <point x="724" y="-4" type="line"/>
      <point x="736" y="66"/>
      <point x="748" y="137"/>
      <point x="761" y="202" type="curve" smooth="yes"/>
      <point x="774" y="267"/>
      <point x="781" y="297"/>
      <point x="795" y="360" type="curve"/>
      <point x="721" y="435" type="line"/>
      <point x="687" y="424"/>
      <point x="639" y="404"/>
      <point x="602" y="385" type="curve"/>
      <point x="584" y="289" type="line"/>
      <point x="638" y="320"/>
      <point x="700" y="349"/>
      <point x="739" y="360" type="curve"/>
      <point x="724" y="378" type="line"/>
      <point x="712" y="321"/>
      <point x="705" y="296"/>
      <point x="692" y="227" type="curve" smooth="yes"/>
      <point x="681" y="169"/>
      <point x="670" y="110"/>
      <point x="661" y="51" type="curve"/>
      <point x="718" y="-7" type="line"/>
    </contour>
  </outline>
</glyph>
<glyph name="bCBa" format="2">
  <advance width="523"/>
  <outline>
    <contour>
      <point x="263" y="47" type="line"/>
      <point x="351" y="87"/>
      <point x="490" y="215"/>
      <point x="490" y="329" type="curve" smooth="yes"/>
      <point x="490" y="376"/>
      <point x="441" y="412"/>
      <point x="420" y="418" type="curve" smooth="yes"/>
      <point x="347" y="438"/>
      <point x="243" y="431"/>
      <point x="243" y="567" type="curve"/>
      <point x="211" y="470" type="line"/>
      <point x="230" y="476" type="line"/>
      <point x="253" y="360"/>
      <point x="325" y="349"/>
      <point x="413" y="329" type="curve"/>
      <point x="388" y="346" type="line"/>
      <point x="393" y="337"/>
      <point x="395" y="329"/>
      <point x="395" y="320" type="curve" smooth="yes"/>
      <point x="395" y="233"/>
      <point x="238" y="105"/>
      <point x="185" y="105" type="curve" smooth="yes"/>
      <point x="169" y="105"/>
      <point x="163" y="113"/>
      <point x="163" y="132" type="curve" smooth="yes"/>
      <point x="163" y="139"/>
      <point x="164" y="149"/>
      <point x="166" y="160" type="curve" smooth="yes"/>
      <point x="246" y="571" type="line"/>
      <point x="169" y="571" type="line"/>
      <point x="94" y="186" type="line" smooth="yes"/>
      <point x="93" y="180"/>
      <point x="92" y="174"/>
      <point x="92" y="168" type="curve" smooth="yes"/>
      <point x="92" y="127"/>
      <point x="119" y="82"/>
      <point x="153" y="53" type="curve"/>
    </contour>
    <contour>
      <point x="262" y="-221" type="line"/>
      <point x="272" y="-156"/>
      <point x="279" y="-114"/>
      <point x="289" y="-65" type="curve" smooth="yes"/>
      <point x="322" y="107" type="line"/>
      <point x="215" y="107" type="line"/>
      <point x="147" y="80"/>
      <point x="67" y="44"/>
      <point x="-17" y="-1" type="curve"/>
      <point x="35" y="-87" type="line"/>
      <point x="147" y="-98"/>
      <point x="212" y="-141"/>
      <point x="230" y="-206" type="curve"/>
      <point x="230" y="-116" type="line"/>
      <point x="215" y="-129" type="line"/>
      <point x="186" y="-81"/>
      <point x="135" y="-44"/>
      <point x="98" y="-30" type="curve"/>
      <point x="98" y="-27" type="line"/>
      <point x="144" y="-1"/>
      <point x="194" y="20"/>
      <point x="241" y="39" type="curve"/>
      <point x="227" y="-31"/>
      <point x="217" y="-85"/>
      <point x="217" y="-115" type="curve" smooth="yes"/>
      <point x="217" y="-123"/>
      <point x="217" y="-130"/>
      <point x="219" y="-134" type="curve"/>
      <point x="230" y="-206" type="line"/>
      <point x="252" y="-221" type="line"/>
    </contour>
    <contour>
      <point x="591" y="552" type="line"/>
      <point x="593" y="560" type="line"/>
      <point x="544" y="620" type="line"/>
      <point x="21" y="620" type="line"/>
      <point x="20" y="612" type="line"/>
      <point x="68" y="552" type="line"/>
    </contour>
  </outline>
</glyph>
<glyph name="bCChBa" format="2">
  <advance width="925"/>
  <outline>
    <contour>
      <point x="646" y="133" type="line"/>
      <point x="752" y="153"/>
      <point x="880" y="225"/>
      <point x="880" y="345" type="curve" smooth="yes"/>
      <point x="880" y="448"/>
      <point x="773" y="489"/>
      <point x="723" y="489" type="curve" smooth="yes"/>
      <point x="706" y="489"/>
      <point x="677" y="484"/>
      <point x="656" y="484" type="curve" smooth="yes"/>
      <point x="581" y="484"/>
      <point x="543" y="508"/>
      <point x="543" y="568" type="curve"/>
      <point x="510" y="493" type="line"/>
      <point x="535" y="501" type="line"/>
      <point x="551" y="435"/>
      <point x="601" y="417"/>
      <point x="663" y="414" type="curve" smooth="yes"/>
      <point x="709" y="412" type="line"/>
      <point x="736" y="420"/>
      <point x="752" y="422"/>
      <point x="773" y="422" type="curve" smooth="yes"/>
      <point x="802" y="422"/>
      <point x="826" y="404"/>
      <point x="826" y="372" type="curve" smooth="yes"/>
      <point x="826" y="288"/>
      <point x="674" y="197"/>
      <point x="520" y="197" type="curve" smooth="yes"/>
      <point x="488" y="197"/>
      <point x="460" y="201"/>
      <point x="431" y="208" type="curve"/>
      <point x="425" y="203" type="line"/>
    </contour>
    <contour>
      <point x="179" y="100" type="curve" smooth="yes"/>
      <point x="235" y="100"/>
      <point x="422" y="233"/>
      <point x="422" y="370" type="curve" smooth="yes"/>
      <point x="422" y="405"/>
      <point x="386" y="442"/>
      <point x="363" y="449" type="curve" smooth="yes"/>
      <point x="314" y="463"/>
      <point x="220" y="450"/>
      <point x="215" y="562" type="curve"/>
      <point x="186" y="471" type="line"/>
      <point x="205" y="477" type="line"/>
      <point x="222" y="389"/>
      <point x="286" y="379"/>
      <point x="350" y="363" type="curve"/>
      <point x="327" y="379" type="line"/>
      <point x="330" y="372"/>
      <point x="331" y="367"/>
      <point x="331" y="359" type="curve" smooth="yes"/>
      <point x="331" y="278"/>
      <point x="202" y="178"/>
      <point x="162" y="178" type="curve" smooth="yes"/>
      <point x="153" y="178"/>
      <point x="148" y="184"/>
      <point x="148" y="196" type="curve" smooth="yes"/>
      <point x="148" y="200"/>
      <point x="149" y="205"/>
      <point x="150" y="211" type="curve" smooth="yes"/>
      <point x="220" y="570" type="line"/>
      <point x="142" y="570" type="line"/>
      <point x="78" y="240" type="line" smooth="yes"/>
      <point x="77" y="235"/>
      <point x="77" y="230"/>
      <point x="77" y="225" type="curve" smooth="yes"/>
      <point x="77" y="165"/>
      <point x="139" y="100"/>
    </contour>
    <contour>
      <point x="732" y="-187" type="line"/>
      <point x="741" y="-122"/>
      <point x="751" y="-75"/>
      <point x="765" y="0" type="curve" smooth="yes"/>
      <point x="773" y="43" type="line"/>
      <point x="678" y="96" type="line"/>
      <point x="619" y="71"/>
      <point x="548" y="38"/>
      <point x="473" y="-2" type="curve"/>
      <point x="520" y="-79" type="line"/>
      <point x="618" y="-87"/>
      <point x="684" y="-118"/>
      <point x="695" y="-173" type="curve"/>
      <point x="698" y="-85" type="line"/>
      <point x="682" y="-98" type="line"/>
      <point x="660" y="-63"/>
      <point x="614" y="-35"/>
      <point x="581" y="-25" type="curve"/>
      <point x="581" y="-22" type="line"/>
      <point x="618" y="-1"/>
      <point x="664" y="20"/>
      <point x="701" y="35" type="curve"/>
      <point x="692" y="-8"/>
      <point x="683" y="-57"/>
      <point x="683" y="-85" type="curve" smooth="yes"/>
      <point x="683" y="-93"/>
      <point x="684" y="-99"/>
      <point x="686" y="-103" type="curve"/>
      <point x="695" y="-173" type="line"/>
      <point x="722" y="-187" type="line"/>
    </contour>
    <contour>
      <point x="905" y="-100" type="line"/>
      <point x="900" y="-55" type="line"/>
      <point x="862" y="0"/>
      <point x="759" y="90"/>
      <point x="661" y="133" type="curve"/>
      <point x="665" y="152" type="line"/>
      <point x="425" y="203" type="line"/>
      <point x="459" y="104" type="line"/>
      <point x="632" y="93"/>
      <point x="762" y="30"/>
      <point x="898" y="-100" type="curve"/>
    </contour>
    <contour>
      <point x="542" y="250" type="curve" smooth="yes"/>
      <point x="604" y="250"/>
      <point x="721" y="338"/>
      <point x="721" y="425" type="curve"/>
      <point x="628" y="430" type="line"/>
      <point x="633" y="423"/>
      <point x="636" y="415"/>
      <point x="636" y="408" type="curve" smooth="yes"/>
      <point x="636" y="363"/>
      <point x="545" y="309"/>
      <point x="513" y="309" type="curve" smooth="yes"/>
      <point x="503" y="309"/>
      <point x="499" y="313"/>
      <point x="499" y="323" type="curve" smooth="yes"/>
      <point x="499" y="326"/>
      <point x="499" y="330"/>
      <point x="500" y="334" type="curve" smooth="yes"/>
      <point x="546" y="570" type="line"/>
      <point x="468" y="570" type="line"/>
      <point x="425" y="351" type="line" smooth="yes"/>
      <point x="424" y="348"/>
      <point x="424" y="345"/>
      <point x="424" y="341" type="curve" smooth="yes"/>
      <point x="424" y="296"/>
      <point x="482" y="250"/>
    </contour>
    <contour>
      <point x="993" y="552" type="line"/>
      <point x="995" y="560" type="line"/>
      <point x="947" y="620" type="line"/>
      <point x="22" y="620" type="line"/>
      <point x="20" y="612" type="line"/>
      <point x="68" y="552" type="line"/>
    </contour>
  </outline>
</glyph>
<glyph name="bCRa" format="2">
  <advance width="591"/>
  <outline>
    <contour>
      <point x="277" y="32" type="curve" smooth="yes"/>
      <point x="380" y="32"/>
      <point x="558" y="218"/>
      <point x="558" y="327" type="curve" smooth="yes"/>
      <point x="558" y="375"/>
      <point x="514" y="410"/>
      <point x="482" y="419" type="curve" smooth="yes"/>
      <point x="407" y="440"/>
      <point x="312" y="435"/>
      <point x="312" y="569" type="curve"/>
      <point x="264" y="465" type="line"/>
      <point x="299" y="476" type="line"/>
      <point x="321" y="360"/>
      <point x="393" y="349"/>
      <point x="481" y="329" type="curve"/>
      <point x="457" y="345" type="line"/>
      <point x="462" y="335"/>
      <point x="463" y="330"/>
      <point x="463" y="319" type="curve" smooth="yes"/>
      <point x="463" y="234"/>
      <point x="309" y="107"/>
      <point x="253" y="107" type="curve" smooth="yes"/>
      <point x="238" y="107"/>
      <point x="232" y="116"/>
      <point x="232" y="133" type="curve" smooth="yes"/>
      <point x="232" y="141"/>
      <point x="233" y="150"/>
      <point x="235" y="162" type="curve" smooth="yes"/>
      <point x="315" y="571" type="line"/>
      <point x="237" y="571" type="line"/>
      <point x="163" y="188" type="line" smooth="yes"/>
      <point x="162" y="183"/>
      <point x="162" y="178"/>
      <point x="162" y="172" type="curve" smooth="yes"/>
      <point x="162" y="116"/>
      <point x="206" y="32"/>
    </contour>
    <contour>
      <point x="389" y="-78" type="line"/>
      <point x="369" y="-87" type="line"/>
      <point x="324" y="-30"/>
      <point x="256" y="-17"/>
      <point x="209" y="-17" type="curve" smooth="yes"/>
      <point x="183" y="-17"/>
      <point x="132" y="-21"/>
      <point x="108" y="-21" type="curve" smooth="yes"/>
      <point x="61" y="-21"/>
      <point x="40" y="-5"/>
      <point x="40" y="32" type="curve" smooth="yes"/>
      <point x="40" y="57"/>
      <point x="49" y="95"/>
      <point x="72" y="124" type="curve"/>
      <point x="53" y="138" type="line"/>
      <point x="44" y="138" type="line"/>
      <point x="13" y="101"/>
      <point x="-11" y="54"/>
      <point x="-11" y="6" type="curve" smooth="yes"/>
      <point x="-11" y="-53"/>
      <point x="25" y="-105"/>
      <point x="126" y="-105" type="curve" smooth="yes"/>
      <point x="165" y="-105"/>
      <point x="231" y="-97"/>
      <point x="280" y="-97" type="curve" smooth="yes"/>
      <point x="339" y="-97"/>
      <point x="374" y="-109"/>
      <point x="379" y="-175" type="curve"/>
    </contour>
    <contour>
      <point x="415" y="-192" type="line"/>
      <point x="431" y="-77"/>
      <point x="443" y="-11"/>
      <point x="444" y="-4" type="curve" smooth="yes"/>
      <point x="483" y="198" type="line"/>
      <point x="421" y="161" type="line"/>
      <point x="372" y="-92" type="line"/>
      <point x="379" y="-175" type="line"/>
      <point x="404" y="-192" type="line"/>
    </contour>
    <contour>
      <point x="659" y="552" type="line"/>
      <point x="661" y="560" type="line"/>
      <point x="613" y="620" type="line"/>
      <point x="22" y="620" type="line"/>
      <point x="20" y="612" type="line"/>
      <point x="68" y="552" type="line"/>
    </contour>
  </outline>
</glyph>
<glyph name="bDBa" format="2">
  <advance width="589"/>
  <outline>
    <contour>
      <point x="455" y="-78" type="line"/>
      <point x="466" y="2"/>
      <point x="474" y="47"/>
      <point x="484" y="99" type="curve" smooth="yes"/>
      <point x="537" y="369" type="line" smooth="yes"/>
      <point x="538" y="375"/>
      <point x="539" y="381"/>
      <point x="539" y="387" type="curve" smooth="yes"/>
      <point x="539" y="439"/>
      <point x="476" y="488"/>
      <point x="420" y="488" type="curve" smooth="yes"/>
      <point x="354" y="488"/>
      <point x="250" y="423"/>
      <point x="185" y="363" type="curve"/>
      <point x="183" y="364" type="line"/>
      <point x="222" y="568" type="line"/>
      <point x="142" y="568" type="line"/>
      <point x="94" y="317" type="line"/>
      <point x="161" y="236" type="line"/>
      <point x="167" y="236" type="line"/>
      <point x="267" y="340"/>
      <point x="402" y="422"/>
      <point x="454" y="422" type="curve" smooth="yes"/>
      <point x="464" y="422"/>
      <point x="469" y="417"/>
      <point x="469" y="407" type="curve" smooth="yes"/>
      <point x="469" y="401"/>
      <point x="468" y="395"/>
      <point x="466" y="386" type="curve" smooth="yes"/>
      <point x="442" y="262" type="line" smooth="yes"/>
      <point x="424" y="167"/>
      <point x="409" y="85"/>
      <point x="409" y="47" type="curve" smooth="yes"/>
      <point x="409" y="41"/>
      <point x="409" y="36"/>
      <point x="410" y="32" type="curve"/>
      <point x="419" y="-61" type="line"/>
      <point x="444" y="-78" type="line"/>
    </contour>
    <contour>
      <point x="424" y="47" type="line"/>
      <point x="406" y="36" type="line"/>
      <point x="371" y="89"/>
      <point x="309" y="132"/>
      <point x="264" y="148" type="curve"/>
      <point x="263" y="151" type="line"/>
      <point x="327" y="188"/>
      <point x="394" y="219"/>
      <point x="458" y="246" type="curve"/>
      <point x="470" y="332" type="line"/>
      <point x="363" y="289"/>
      <point x="269" y="245"/>
      <point x="141" y="172" type="curve"/>
      <point x="196" y="82" type="line"/>
      <point x="331" y="71"/>
      <point x="394" y="19"/>
      <point x="419" y="-61" type="curve"/>
    </contour>
    <contour>
      <point x="657" y="552" type="line"/>
      <point x="659" y="560" type="line"/>
      <point x="611" y="620" type="line"/>
      <point x="22" y="620" type="line"/>
      <point x="20" y="612" type="line"/>
      <point x="68" y="552" type="line"/>
    </contour>
  </outline>
</glyph>
<glyph name="bDDa" format="2">
  <advance width="779"/>
  <outline>
    <contour>
      <point x="592" y="-90" type="line"/>
      <point x="592" y="-82"/>
      <point x="592" y="-75"/>
      <point x="592" y="-68" type="curve" smooth="yes"/>
      <point x="592" y="79"/>
      <point x="644" y="217"/>
      <point x="750" y="312" type="curve"/>
      <point x="752" y="318" type="line"/>
      <point x="657" y="402" type="line"/>
      <point x="566" y="347"/>
      <point x="457" y="259"/>
      <point x="379" y="180" type="curve"/>
      <point x="360" y="188" type="line"/>
      <point x="318" y="135" type="line"/>
      <point x="379" y="65" type="line"/>
      <point x="385" y="65" type="line"/>
      <point x="444" y="133"/>
      <point x="519" y="209"/>
      <point x="616" y="278" type="curve"/>
      <point x="618" y="275" type="line"/>
      <point x="583" y="222"/>
      <point x="547" y="160"/>
      <point x="547" y="28" type="curve" smooth="yes"/>
      <point x="547" y="-5"/>
      <point x="550" y="-47"/>
      <point x="555" y="-72" type="curve"/>
      <point x="581" y="-90" type="line"/>
    </contour>
    <contour>
      <point x="374" y="168" type="line"/>
      <point x="394" y="268"/>
      <point x="443" y="359"/>
      <point x="525" y="429" type="curve"/>
      <point x="526" y="435" type="line"/>
      <point x="432" y="519" type="line"/>
      <point x="341" y="464"/>
      <point x="240" y="383"/>
      <point x="177" y="323" type="curve"/>
      <point x="175" y="324" type="line"/>
      <point x="222" y="568" type="line"/>
      <point x="142" y="568" type="line"/>
      <point x="83" y="260" type="line"/>
      <point x="150" y="179" type="line"/>
      <point x="156" y="179" type="line"/>
      <point x="215" y="246"/>
      <point x="294" y="326"/>
      <point x="389" y="394" type="curve"/>
      <point x="392" y="392" type="line"/>
      <point x="360" y="339"/>
      <point x="340" y="284"/>
      <point x="329" y="229" type="curve" smooth="yes"/>
      <point x="323" y="198"/>
      <point x="319" y="165"/>
      <point x="318" y="135" type="curve"/>
    </contour>
    <contour>
      <point x="847" y="552" type="line"/>
      <point x="849" y="560" type="line"/>
      <point x="801" y="620" type="line"/>
      <point x="22" y="620" type="line"/>
      <point x="20" y="612" type="line"/>
      <point x="68" y="552" type="line"/>
    </contour>
  </outline>
</glyph>
<glyph name="bDDhBa" format="2">
  <advance width="741"/>
  <outline>
    <contour>
      <point x="445" y="-168" type="line"/>
      <point x="453" y="-107"/>
      <point x="465" y="-20"/>
      <point x="506" y="186" type="curve" smooth="yes"/>
      <point x="543" y="374" type="line" smooth="yes"/>
      <point x="544" y="381"/>
      <point x="545" y="387"/>
      <point x="545" y="393" type="curve" smooth="yes"/>
      <point x="545" y="444"/>
      <point x="479" y="493"/>
      <point x="422" y="493" type="curve" smooth="yes"/>
      <point x="357" y="493"/>
      <point x="255" y="428"/>
      <point x="191" y="369" type="curve"/>
      <point x="189" y="370" type="line"/>
      <point x="227" y="568" type="line"/>
      <point x="147" y="568" type="line"/>
      <point x="100" y="322" type="line"/>
      <point x="167" y="241" type="line"/>
      <point x="173" y="241" type="line"/>
      <point x="274" y="345"/>
      <point x="406" y="427"/>
      <point x="457" y="427" type="curve" smooth="yes"/>
      <point x="470" y="427"/>
      <point x="475" y="422"/>
      <point x="475" y="411" type="curve" smooth="yes"/>
      <point x="475" y="406"/>
      <point x="473" y="397"/>
      <point x="472" y="391" type="curve" smooth="yes"/>
      <point x="454" y="297" type="line"/>
      <point x="445" y="254" type="line" smooth="yes"/>
      <point x="432" y="190"/>
      <point x="425" y="132"/>
      <point x="421" y="93" type="curve"/>
      <point x="418" y="56"/>
      <point x="402" y="-16"/>
      <point x="402" y="-70" type="curve" smooth="yes"/>
      <point x="402" y="-78"/>
      <point x="402" y="-87"/>
      <point x="403" y="-94" type="curve"/>
      <point x="406" y="-154" type="line"/>
      <point x="433" y="-168" type="line"/>
    </contour>
    <contour>
      <point x="415" y="-68" type="line"/>
      <point x="399" y="-81" type="line"/>
      <point x="374" y="-37"/>
      <point x="326" y="-3"/>
      <point x="296" y="11" type="curve"/>
      <point x="296" y="14" type="line"/>
      <point x="343" y="37"/>
      <point x="390" y="55"/>
      <point x="439" y="73" type="curve"/>
      <point x="431" y="144" type="line"/>
      <point x="317" y="100"/>
      <point x="239" y="64"/>
      <point x="184" y="37" type="curve"/>
      <point x="230" y="-40" type="line"/>
      <point x="334" y="-55"/>
      <point x="390" y="-93"/>
      <point x="406" y="-154" type="curve"/>
    </contour>
    <contour>
      <point x="621" y="-57" type="line"/>
      <point x="633" y="14"/>
      <point x="644" y="76"/>
      <point x="657" y="142" type="curve" smooth="yes"/>
      <point x="670" y="208"/>
      <point x="679" y="254"/>
      <point x="694" y="319" type="curve"/>
      <point x="621" y="397" type="line"/>
      <point x="452" y="330"/>
      <point x="290" y="259"/>
      <point x="122" y="177" type="curve"/>
      <point x="174" y="95" type="line"/>
      <point x="227" y="95"/>
      <point x="277" y="85"/>
      <point x="305" y="60" type="curve"/>
      <point x="338" y="77" type="line"/>
      <point x="308" y="111"/>
      <point x="268" y="136"/>
      <point x="236" y="149" type="curve"/>
      <point x="236" y="152" type="line"/>
      <point x="353" y="213"/>
      <point x="527" y="281"/>
      <point x="641" y="324" type="curve"/>
      <point x="623" y="338" type="line"/>
      <point x="611" y="286"/>
      <point x="601" y="240"/>
      <point x="587" y="171" type="curve" smooth="yes"/>
      <point x="575" y="111"/>
      <point x="567" y="60"/>
      <point x="557" y="-1" type="curve"/>
      <point x="614" y="-60" type="line"/>
    </contour>
    <contour>
      <point x="809" y="552" type="line"/>
      <point x="811" y="560" type="line"/>
      <point x="763" y="620" type="line"/>
      <point x="22" y="620" type="line"/>
      <point x="20" y="612" type="line"/>
      <point x="68" y="552" type="line"/>
    </contour>
  </outline>
</glyph>
<glyph name="bDMa" format="2">
  <advance width="692"/>
  <outline>
    <contour>
      <point x="382" y="184" type="line"/>
      <point x="400" y="269"/>
      <point x="448" y="358"/>
      <point x="524" y="431" type="curve"/>
      <point x="525" y="437" type="line"/>
      <point x="432" y="519" type="line"/>
      <point x="339" y="464"/>
      <point x="240" y="385"/>
      <point x="177" y="323" type="curve"/>
      <point x="175" y="324" type="line"/>
      <point x="222" y="568" type="line"/>
      <point x="142" y="568" type="line"/>
      <point x="83" y="260" type="line"/>
      <point x="147" y="183" type="line"/>
      <point x="153" y="183" type="line"/>
      <point x="213" y="250"/>
      <point x="296" y="331"/>
      <point x="390" y="399" type="curve"/>
      <point x="393" y="396" type="line"/>
      <point x="367" y="345"/>
      <point x="349" y="294"/>
      <point x="339" y="241" type="curve" smooth="yes"/>
      <point x="333" y="211"/>
      <point x="333" y="193"/>
      <point x="331" y="177" type="curve"/>
    </contour>
    <contour>
      <point x="526" y="87" type="line"/>
      <point x="508" y="76" type="line"/>
      <point x="464" y="144"/>
      <point x="399" y="203"/>
      <point x="320" y="203" type="curve" smooth="yes"/>
      <point x="250" y="203"/>
      <point x="208" y="158"/>
      <point x="208" y="109" type="curve" smooth="yes"/>
      <point x="208" y="62"/>
      <point x="246" y="27"/>
      <point x="297" y="27" type="curve" smooth="yes"/>
      <point x="359" y="27"/>
      <point x="410" y="80"/>
      <point x="410" y="147" type="curve"/>
      <point x="385" y="107" type="line"/>
      <point x="483" y="96"/>
      <point x="514" y="1"/>
      <point x="520" y="-76" type="curve"/>
    </contour>
    <contour>
      <point x="555" y="-93" type="line"/>
      <point x="571" y="8"/>
      <point x="582" y="72"/>
      <point x="597" y="148" type="curve" smooth="yes"/>
      <point x="679" y="568" type="line"/>
      <point x="599" y="568" type="line"/>
      <point x="558" y="355" type="line" smooth="yes"/>
      <point x="528" y="201"/>
      <point x="510" y="104"/>
      <point x="512" y="66" type="curve" smooth="yes"/>
      <point x="520" y="-76" type="line"/>
      <point x="544" y="-93" type="line"/>
    </contour>
    <contour>
      <point x="760" y="552" type="line"/>
      <point x="762" y="560" type="line"/>
      <point x="714" y="620" type="line"/>
      <point x="22" y="620" type="line"/>
      <point x="20" y="612" type="line"/>
      <point x="68" y="552" type="line"/>
    </contour>
  </outline>
</glyph>
<glyph name="bDNa" format="2">
  <advance width="589"/>
  <outline>
    <contour>
      <point x="456" y="-78" type="line"/>
      <point x="475" y="42"/>
      <point x="482" y="86"/>
      <point x="497" y="163" type="curve" smooth="yes"/>
      <point x="537" y="369" type="line" smooth="yes"/>
      <point x="538" y="375"/>
      <point x="539" y="381"/>
      <point x="539" y="387" type="curve" smooth="yes"/>
      <point x="539" y="438"/>
      <point x="475" y="488"/>
      <point x="417" y="488" type="curve" smooth="yes"/>
      <point x="351" y="488"/>
      <point x="249" y="423"/>
      <point x="185" y="364" type="curve"/>
      <point x="183" y="365" type="line"/>
      <point x="222" y="568" type="line"/>
      <point x="142" y="568" type="line"/>
      <point x="94" y="317" type="line"/>
      <point x="161" y="236" type="line"/>
      <point x="167" y="236" type="line"/>
      <point x="268" y="340"/>
      <point x="400" y="422"/>
      <point x="451" y="422" type="curve" smooth="yes"/>
      <point x="464" y="422"/>
      <point x="469" y="417"/>
      <point x="469" y="405" type="curve" smooth="yes"/>
      <point x="469" y="400"/>
      <point x="468" y="395"/>
      <point x="466" y="386" type="curve" smooth="yes"/>
      <point x="446" y="284" type="line" smooth="yes"/>
      <point x="425" y="179"/>
      <point x="422" y="137"/>
      <point x="421" y="94" type="curve"/>
      <point x="419" y="-60" type="line"/>
      <point x="445" y="-78" type="line"/>
    </contour>
    <contour>
      <point x="437" y="105" type="line"/>
      <point x="418" y="99" type="line"/>
      <point x="370" y="180"/>
      <point x="303" y="206"/>
      <point x="242" y="206" type="curve" smooth="yes"/>
      <point x="156" y="206"/>
      <point x="106" y="154"/>
      <point x="106" y="97" type="curve" smooth="yes"/>
      <point x="106" y="48"/>
      <point x="142" y="13"/>
      <point x="192" y="13" type="curve" smooth="yes"/>
      <point x="248" y="13"/>
      <point x="281" y="55"/>
      <point x="281" y="95" type="curve" smooth="yes"/>
      <point x="281" y="114"/>
      <point x="274" y="136"/>
      <point x="260" y="148" type="curve"/>
      <point x="261" y="150" type="line"/>
      <point x="369" y="143"/>
      <point x="420" y="61"/>
      <point x="419" y="-60" type="curve"/>
    </contour>
    <contour>
      <point x="657" y="552" type="line"/>
      <point x="659" y="560" type="line"/>
      <point x="611" y="620" type="line"/>
      <point x="22" y="620" type="line"/>
      <point x="20" y="612" type="line"/>
      <point x="68" y="552" type="line"/>
    </contour>
  </outline>
</glyph>
<glyph name="bDandaPoetic" format="2">
  <advance width="267"/>
  <outline>
    <contour>
      <point x="135" y="-10" type="curve" smooth="yes"/>
      <point x="174" y="-10"/>
      <point x="203" y="15"/>
      <point x="203" y="50" type="curve" smooth="yes"/>
      <point x="203" y="80"/>
      <point x="182" y="98"/>
      <point x="157" y="98" type="curve" smooth="yes"/>
      <point x="143" y="98"/>
      <point x="131" y="92"/>
      <point x="125" y="87" type="curve"/>
      <point x="158" y="69" type="line"/>
      <point x="132" y="95" type="line"/>
      <point x="143" y="136"/>
      <point x="155" y="186"/>
      <point x="185" y="335" type="curve" smooth="yes"/>
      <point x="215" y="486" type="line" smooth="yes"/>
      <point x="219" y="506"/>
      <point x="221" y="524"/>
      <point x="221" y="537" type="curve" smooth="yes"/>
      <point x="221" y="592"/>
      <point x="187" y="616"/>
      <point x="152" y="616" type="curve" smooth="yes"/>
      <point x="116" y="616"/>
      <point x="84" y="592"/>
      <point x="84" y="556" type="curve" smooth="yes"/>
      <point x="84" y="526"/>
      <point x="106" y="508"/>
      <point x="131" y="508" type="curve" smooth="yes"/>
      <point x="146" y="508"/>
      <point x="161" y="514"/>
      <point x="169" y="523" type="curve"/>
      <point x="129" y="537" type="line"/>
      <point x="155" y="511" type="line"/>
      <point x="144" y="470"/>
      <point x="131" y="420"/>
      <point x="102" y="271" type="curve" smooth="yes"/>
      <point x="73" y="120" type="line" smooth="yes"/>
      <point x="69" y="100"/>
      <point x="67" y="83"/>
      <point x="67" y="69" type="curve" smooth="yes"/>
      <point x="67" y="9"/>
      <point x="101" y="-10"/>
    </contour>
  </outline>
</glyph>
<glyph name="bDdBa" format="2">
  <advance width="606"/>
  <outline>
    <contour>
      <point x="321" y="93" type="curve" smooth="yes"/>
      <point x="480" y="93"/>
      <point x="568" y="212"/>
      <point x="568" y="320" type="curve" smooth="yes"/>
      <point x="568" y="382"/>
      <point x="538" y="450"/>
      <point x="492" y="480" type="curve"/>
      <point x="487" y="479" type="line"/>
      <point x="432" y="418"/>
      <point x="360" y="366"/>
      <point x="331" y="366" type="curve" smooth="yes"/>
      <point x="321" y="366"/>
      <point x="318" y="371"/>
      <point x="318" y="382" type="curve" smooth="yes"/>
      <point x="318" y="386"/>
      <point x="318" y="390"/>
      <point x="319" y="395" type="curve" smooth="yes"/>
      <point x="353" y="568" type="line"/>
      <point x="274" y="568" type="line"/>
      <point x="245" y="421" type="line" smooth="yes"/>
      <point x="244" y="415"/>
      <point x="243" y="410"/>
      <point x="243" y="405" type="curve" smooth="yes"/>
      <point x="243" y="344"/>
      <point x="306" y="287"/>
      <point x="350" y="287" type="curve" smooth="yes"/>
      <point x="391" y="287"/>
      <point x="467" y="335"/>
      <point x="526" y="402" type="curve"/>
      <point x="479" y="393" type="line"/>
      <point x="513" y="384"/>
      <point x="524" y="355"/>
      <point x="524" y="332" type="curve" smooth="yes"/>
      <point x="524" y="267"/>
      <point x="439" y="182"/>
      <point x="323" y="182" type="curve" smooth="yes"/>
      <point x="190" y="182"/>
      <point x="128" y="294"/>
      <point x="124" y="510" type="curve"/>
      <point x="96" y="519" type="line"/>
      <point x="86" y="519" type="line"/>
      <point x="85" y="502"/>
      <point x="85" y="486"/>
      <point x="85" y="470" type="curve" smooth="yes"/>
      <point x="85" y="252"/>
      <point x="149" y="153"/>
      <point x="232" y="115" type="curve"/>
      <point x="232" y="107" type="line"/>
      <point x="261" y="96"/>
      <point x="296" y="93"/>
    </contour>
    <contour>
      <point x="363" y="-181" type="line"/>
      <point x="372" y="-116"/>
      <point x="382" y="-68"/>
      <point x="390" y="-25" type="curve" smooth="yes"/>
      <point x="423" y="146" type="line"/>
      <point x="316" y="148" type="line"/>
      <point x="248" y="120"/>
      <point x="168" y="85"/>
      <point x="84" y="40" type="curve"/>
      <point x="136" y="-46" type="line"/>
      <point x="248" y="-57"/>
      <point x="313" y="-101"/>
      <point x="331" y="-166" type="curve"/>
      <point x="331" y="-76" type="line"/>
      <point x="316" y="-89" type="line"/>
      <point x="287" y="-41"/>
      <point x="236" y="-4"/>
      <point x="199" y="10" type="curve"/>
      <point x="199" y="13" type="line"/>
      <point x="245" y="39"/>
      <point x="295" y="60"/>
      <point x="341" y="79" type="curve"/>
      <point x="327" y="9"/>
      <point x="318" y="-44"/>
      <point x="318" y="-75" type="curve" smooth="yes"/>
      <point x="318" y="-83"/>
      <point x="318" y="-89"/>
      <point x="320" y="-94" type="curve"/>
      <point x="331" y="-166" type="line"/>
      <point x="353" y="-181" type="line"/>
    </contour>
    <contour>
      <point x="674" y="552" type="line"/>
      <point x="676" y="560" type="line"/>
      <point x="628" y="620" type="line"/>
      <point x="22" y="620" type="line"/>
      <point x="20" y="612" type="line"/>
      <point x="68" y="552" type="line"/>
    </contour>
  </outline>
</glyph>
<glyph name="bDdDda" format="2">
  <advance width="1065"/>
  <outline>
    <contour>
      <point x="773" y="38" type="curve" smooth="yes"/>
      <point x="919" y="38"/>
      <point x="1022" y="148"/>
      <point x="1022" y="288" type="curve" smooth="yes"/>
      <point x="1022" y="357"/>
      <point x="997" y="415"/>
      <point x="947" y="451" type="curve"/>
      <point x="942" y="450" type="line"/>
      <point x="882" y="382"/>
      <point x="807" y="326"/>
      <point x="776" y="326" type="curve" smooth="yes"/>
      <point x="766" y="326"/>
      <point x="762" y="331"/>
      <point x="762" y="341" type="curve" smooth="yes"/>
      <point x="762" y="345"/>
      <point x="763" y="350"/>
      <point x="764" y="355" type="curve" smooth="yes"/>
      <point x="805" y="568" type="line"/>
      <point x="726" y="568" type="line"/>
      <point x="690" y="381" type="line" smooth="yes"/>
      <point x="689" y="375"/>
      <point x="688" y="370"/>
      <point x="688" y="365" type="curve" smooth="yes"/>
      <point x="688" y="305"/>
      <point x="750" y="247"/>
      <point x="795" y="247" type="curve" smooth="yes"/>
      <point x="838" y="247"/>
      <point x="914" y="298"/>
      <point x="979" y="374" type="curve"/>
      <point x="935" y="362" type="line"/>
      <point x="964" y="356"/>
      <point x="976" y="326"/>
      <point x="976" y="298" type="curve" smooth="yes"/>
      <point x="976" y="224"/>
      <point x="888" y="131"/>
      <point x="764" y="131" type="curve" smooth="yes"/>
      <point x="617" y="131"/>
      <point x="583" y="262"/>
      <point x="568" y="361" type="curve"/>
      <point x="529" y="231" type="line"/>
      <point x="547" y="231" type="line"/>
      <point x="585" y="87"/>
      <point x="676" y="38"/>
    </contour>
    <contour>
      <point x="329" y="91" type="curve" smooth="yes"/>
      <point x="437" y="91"/>
      <point x="518" y="155"/>
      <point x="550" y="247" type="curve"/>
      <point x="568" y="361" type="line"/>
      <point x="565" y="380"/>
      <point x="555" y="437"/>
      <point x="492" y="480" type="curve"/>
      <point x="487" y="479" type="line"/>
      <point x="432" y="418"/>
      <point x="360" y="366"/>
      <point x="331" y="366" type="curve" smooth="yes"/>
      <point x="321" y="366"/>
      <point x="318" y="371"/>
      <point x="318" y="382" type="curve" smooth="yes"/>
      <point x="318" y="386"/>
      <point x="318" y="390"/>
      <point x="319" y="395" type="curve" smooth="yes"/>
      <point x="353" y="568" type="line"/>
      <point x="274" y="568" type="line"/>
      <point x="245" y="421" type="line" smooth="yes"/>
      <point x="244" y="415"/>
      <point x="243" y="410"/>
      <point x="243" y="405" type="curve" smooth="yes"/>
      <point x="243" y="344"/>
      <point x="306" y="287"/>
      <point x="350" y="287" type="curve" smooth="yes"/>
      <point x="391" y="287"/>
      <point x="465" y="335"/>
      <point x="525" y="402" type="curve"/>
      <point x="479" y="392" type="line"/>
      <point x="510" y="384"/>
      <point x="524" y="359"/>
      <point x="524" y="333" type="curve" smooth="yes"/>
      <point x="524" y="268"/>
      <point x="438" y="182"/>
      <point x="322" y="182" type="curve" smooth="yes"/>
      <point x="193" y="182"/>
      <point x="128" y="289"/>
      <point x="124" y="510" type="curve"/>
      <point x="96" y="519" type="line"/>
      <point x="86" y="519" type="line"/>
      <point x="85" y="501"/>
      <point x="85" y="483"/>
      <point x="85" y="466" type="curve" smooth="yes"/>
      <point x="85" y="179"/>
      <point x="202" y="91"/>
    </contour>
    <contour>
      <point x="1133" y="552" type="line"/>
      <point x="1135" y="560" type="line"/>
      <point x="1087" y="620" type="line"/>
      <point x="22" y="620" type="line"/>
      <point x="20" y="612" type="line"/>
      <point x="68" y="552" type="line"/>
    </contour>
  </outline>
  <guideline angle="0" x="0" y="519"/>
</glyph>
<glyph name="bDdhRa" format="2">
  <advance width="584"/>
  <outline>
    <contour>
      <point x="279" y="66" type="curve" smooth="yes"/>
      <point x="350" y="66"/>
      <point x="554" y="220"/>
      <point x="554" y="365" type="curve" smooth="yes"/>
      <point x="554" y="428"/>
      <point x="516" y="472"/>
      <point x="457" y="472" type="curve" smooth="yes"/>
      <point x="399" y="472"/>
      <point x="363" y="429"/>
      <point x="363" y="386" type="curve" smooth="yes"/>
      <point x="363" y="341"/>
      <point x="401" y="316"/>
      <point x="435" y="316" type="curve" smooth="yes"/>
      <point x="454" y="316"/>
      <point x="469" y="323"/>
      <point x="478" y="330" type="curve"/>
      <point x="460" y="341" type="line"/>
      <point x="442" y="240"/>
      <point x="306" y="146"/>
      <point x="256" y="146" type="curve" smooth="yes"/>
      <point x="242" y="146"/>
      <point x="234" y="154"/>
      <point x="234" y="170" type="curve" smooth="yes"/>
      <point x="234" y="178"/>
      <point x="236" y="189"/>
      <point x="239" y="202" type="curve" smooth="yes"/>
      <point x="310" y="568" type="line"/>
      <point x="233" y="568" type="line"/>
      <point x="166" y="225" type="line" smooth="yes"/>
      <point x="165" y="219"/>
      <point x="164" y="213"/>
      <point x="164" y="207" type="curve" smooth="yes"/>
      <point x="164" y="143"/>
      <point x="229" y="66"/>
    </contour>
    <contour>
      <point x="391" y="-48" type="line"/>
      <point x="371" y="-57" type="line"/>
      <point x="327" y="-3"/>
      <point x="265" y="13"/>
      <point x="211" y="13" type="curve" smooth="yes"/>
      <point x="187" y="13"/>
      <point x="136" y="10"/>
      <point x="115" y="10" type="curve" smooth="yes"/>
      <point x="67" y="10"/>
      <point x="46" y="26"/>
      <point x="46" y="64" type="curve" smooth="yes"/>
      <point x="46" y="89"/>
      <point x="55" y="126"/>
      <point x="78" y="155" type="curve"/>
      <point x="59" y="169" type="line"/>
      <point x="50" y="169" type="line"/>
      <point x="19" y="132"/>
      <point x="-5" y="85"/>
      <point x="-5" y="37" type="curve" smooth="yes"/>
      <point x="-5" y="-22"/>
      <point x="31" y="-74"/>
      <point x="133" y="-74" type="curve" smooth="yes"/>
      <point x="170" y="-74"/>
      <point x="234" y="-67"/>
      <point x="279" y="-67" type="curve" smooth="yes"/>
      <point x="346" y="-67"/>
      <point x="376" y="-82"/>
      <point x="381" y="-145" type="curve"/>
    </contour>
    <contour>
      <point x="417" y="-162" type="line"/>
      <point x="433" y="-47"/>
      <point x="445" y="19"/>
      <point x="446" y="26" type="curve" smooth="yes"/>
      <point x="487" y="235" type="line"/>
      <point x="422" y="187" type="line"/>
      <point x="375" y="-59" type="line"/>
      <point x="381" y="-145" type="line"/>
      <point x="406" y="-162" type="line"/>
    </contour>
    <contour>
      <point x="652" y="552" type="line"/>
      <point x="654" y="560" type="line"/>
      <point x="606" y="620" type="line"/>
      <point x="22" y="620" type="line"/>
      <point x="20" y="612" type="line"/>
      <point x="68" y="552" type="line"/>
    </contour>
  </outline>
</glyph>
<glyph name="bDhRa_bSignUu" format="2">
  <advance width="793"/>
  <outline>
    <contour>
      <point x="494" y="-52" type="line"/>
      <point x="511" y="63"/>
      <point x="522" y="129"/>
      <point x="537" y="204" type="curve" smooth="yes"/>
      <point x="605" y="552" type="line"/>
      <point x="862" y="552" type="line"/>
      <point x="863" y="560" type="line"/>
      <point x="815" y="620" type="line"/>
      <point x="539" y="620" type="line"/>
      <point x="507" y="455" type="line" smooth="yes"/>
      <point x="478" y="304"/>
      <point x="456" y="196"/>
      <point x="456" y="146" type="curve" smooth="yes"/>
      <point x="456" y="141"/>
      <point x="457" y="137"/>
      <point x="457" y="133" type="curve"/>
      <point x="459" y="-35" type="line"/>
      <point x="483" y="-52" type="line"/>
    </contour>
    <contour>
      <point x="471" y="63" type="line"/>
      <point x="449" y="53" type="line"/>
      <point x="406" y="107"/>
      <point x="341" y="123"/>
      <point x="288" y="123" type="curve" smooth="yes"/>
      <point x="253" y="123"/>
      <point x="173" y="116"/>
      <point x="139" y="116" type="curve" smooth="yes"/>
      <point x="93" y="116"/>
      <point x="66" y="129"/>
      <point x="66" y="169" type="curve" smooth="yes"/>
      <point x="66" y="192"/>
      <point x="75" y="230"/>
      <point x="99" y="260" type="curve"/>
      <point x="80" y="274" type="line"/>
      <point x="71" y="274" type="line"/>
      <point x="39" y="236"/>
      <point x="16" y="189"/>
      <point x="16" y="143" type="curve" smooth="yes"/>
      <point x="16" y="83"/>
      <point x="55" y="32"/>
      <point x="158" y="32" type="curve" smooth="yes"/>
      <point x="206" y="32"/>
      <point x="298" y="43"/>
      <point x="366" y="43" type="curve" smooth="yes"/>
      <point x="406" y="43"/>
      <point x="455" y="39"/>
      <point x="459" y="-35" type="curve"/>
    </contour>
    <contour>
      <point x="471" y="154" type="line"/>
      <point x="453" y="143" type="line"/>
      <point x="402" y="226"/>
      <point x="333" y="273"/>
      <point x="269" y="298" type="curve"/>
      <point x="269" y="301" type="line"/>
      <point x="345" y="348"/>
      <point x="430" y="392"/>
      <point x="523" y="438" type="curve"/>
      <point x="541" y="528" type="line"/>
      <point x="337" y="426"/>
      <point x="295" y="407"/>
      <point x="147" y="327" type="curve"/>
      <point x="202" y="234" type="line"/>
      <point x="350" y="214"/>
      <point x="438" y="135"/>
      <point x="462" y="32" type="curve"/>
    </contour>
    <contour>
      <point x="529" y="519" type="line"/>
      <point x="533" y="538" type="line"/>
      <point x="475" y="505"/>
      <point x="396" y="452"/>
      <point x="330" y="452" type="curve" smooth="yes"/>
      <point x="281" y="452"/>
      <point x="259" y="480"/>
      <point x="259" y="512" type="curve" smooth="yes"/>
      <point x="259" y="543"/>
      <point x="280" y="570"/>
      <point x="320" y="570" type="curve" smooth="yes"/>
      <point x="331" y="570"/>
      <point x="341" y="568"/>
      <point x="353" y="565" type="curve"/>
      <point x="357" y="595" type="line"/>
      <point x="333" y="594"/>
      <point x="312" y="581"/>
      <point x="312" y="554" type="curve" smooth="yes"/>
      <point x="312" y="525"/>
      <point x="336" y="509"/>
      <point x="363" y="509" type="curve" smooth="yes"/>
      <point x="397" y="509"/>
      <point x="422" y="534"/>
      <point x="422" y="566" type="curve" smooth="yes"/>
      <point x="422" y="600"/>
      <point x="393" y="638"/>
      <point x="325" y="638" type="curve" smooth="yes"/>
      <point x="249" y="638"/>
      <point x="189" y="590"/>
      <point x="189" y="523" type="curve" smooth="yes"/>
      <point x="189" y="457"/>
      <point x="246" y="420"/>
      <point x="301" y="420" type="curve" smooth="yes"/>
      <point x="310" y="420"/>
      <point x="318" y="421"/>
      <point x="323" y="422" type="curve"/>
      <point x="327" y="404" type="line"/>
    </contour>
    <contour>
      <point x="679" y="-4" type="line"/>
      <point x="691" y="69"/>
      <point x="705" y="143"/>
      <point x="718" y="211" type="curve" smooth="yes"/>
      <point x="731" y="279"/>
      <point x="743" y="336"/>
      <point x="758" y="403" type="curve"/>
      <point x="684" y="481" type="line"/>
      <point x="652" y="473"/>
      <point x="603" y="454"/>
      <point x="563" y="433" type="curve"/>
      <point x="549" y="341" type="line"/>
      <point x="600" y="370"/>
      <point x="664" y="396"/>
      <point x="704" y="405" type="curve"/>
      <point x="687" y="419" type="line"/>
      <point x="676" y="371"/>
      <point x="663" y="309"/>
      <point x="649" y="239" type="curve" smooth="yes"/>
      <point x="637" y="177"/>
      <point x="626" y="114"/>
      <point x="616" y="51" type="curve"/>
      <point x="672" y="-7" type="line"/>
    </contour>
  </outline>
</glyph>
<glyph name="bGDha" format="2">
  <advance width="741"/>
  <outline>
    <contour>
      <point x="427" y="12" type="line"/>
      <point x="408" y="1" type="line"/>
      <point x="374" y="54"/>
      <point x="311" y="95"/>
      <point x="266" y="111" type="curve"/>
      <point x="265" y="114" type="line"/>
      <point x="379" y="179"/>
      <point x="514" y="237"/>
      <point x="638" y="289" type="curve"/>
      <point x="618" y="302" type="line"/>
      <point x="608" y="251"/>
      <point x="598" y="204"/>
      <point x="584" y="135" type="curve" smooth="yes"/>
      <point x="572" y="74"/>
      <point x="563" y="23"/>
      <point x="553" y="-38" type="curve"/>
      <point x="610" y="-96" type="line"/>
      <point x="616" y="-93" type="line"/>
      <point x="628" y="-22"/>
      <point x="639" y="40"/>
      <point x="652" y="107" type="curve" smooth="yes"/>
      <point x="665" y="173"/>
      <point x="675" y="219"/>
      <point x="689" y="284" type="curve"/>
      <point x="616" y="362" type="line"/>
      <point x="439" y="288"/>
      <point x="330" y="235"/>
      <point x="141" y="137" type="curve"/>
      <point x="197" y="47" type="line"/>
      <point x="331" y="40"/>
      <point x="397" y="-16"/>
      <point x="422" y="-96" type="curve"/>
    </contour>
    <contour>
      <point x="204" y="190" type="line"/>
      <point x="344" y="254"/>
      <point x="358" y="327"/>
      <point x="358" y="358" type="curve" smooth="yes"/>
      <point x="358" y="411"/>
      <point x="318" y="456"/>
      <point x="252" y="456" type="curve" smooth="yes"/>
      <point x="228" y="456"/>
      <point x="205" y="450"/>
      <point x="175" y="437" type="curve"/>
      <point x="190" y="489"/>
      <point x="247" y="546"/>
      <point x="327" y="546" type="curve" smooth="yes"/>
      <point x="429" y="546"/>
      <point x="465" y="452"/>
      <point x="465" y="357" type="curve" smooth="yes"/>
      <point x="465" y="335"/>
      <point x="463" y="315"/>
      <point x="459" y="298" type="curve"/>
      <point x="521" y="459" type="line"/>
      <point x="493" y="452" type="line"/>
      <point x="473" y="526"/>
      <point x="410" y="620"/>
      <point x="292" y="620" type="curve" smooth="yes"/>
      <point x="169" y="620"/>
      <point x="62" y="518"/>
      <point x="62" y="414" type="curve" smooth="yes"/>
      <point x="62" y="362"/>
      <point x="89" y="337"/>
      <point x="115" y="337" type="curve" smooth="yes"/>
      <point x="127" y="337"/>
      <point x="135" y="342"/>
      <point x="137" y="343" type="curve" smooth="yes"/>
      <point x="166" y="361"/>
      <point x="237" y="406"/>
      <point x="276" y="406" type="curve" smooth="yes"/>
      <point x="293" y="406"/>
      <point x="302" y="398"/>
      <point x="302" y="387" type="curve" smooth="yes"/>
      <point x="302" y="365"/>
      <point x="269" y="319"/>
      <point x="157" y="267" type="curve"/>
    </contour>
    <contour>
      <point x="457" y="-113" type="line"/>
      <point x="469" y="-33"/>
      <point x="477" y="12"/>
      <point x="487" y="64" type="curve" smooth="yes"/>
      <point x="582" y="552" type="line"/>
      <point x="810" y="552" type="line"/>
      <point x="811" y="560" type="line"/>
      <point x="763" y="620" type="line"/>
      <point x="523" y="620" type="line"/>
      <point x="521" y="608" type="line" smooth="yes"/>
      <point x="510" y="544"/>
      <point x="500" y="495"/>
      <point x="496" y="437" type="curve"/>
      <point x="459" y="298" type="line"/>
      <point x="445" y="227" type="line" smooth="yes"/>
      <point x="427" y="134"/>
      <point x="412" y="50"/>
      <point x="412" y="12" type="curve" smooth="yes"/>
      <point x="412" y="6"/>
      <point x="412" y="1"/>
      <point x="413" y="-3" type="curve"/>
      <point x="422" y="-96" type="line"/>
      <point x="446" y="-113" type="line"/>
    </contour>
  </outline>
</glyph>
<glyph name="bGNa" format="2">
  <advance width="593"/>
  <outline>
    <contour>
      <point x="233" y="209" type="line"/>
      <point x="330" y="266"/>
      <point x="366" y="311"/>
      <point x="366" y="365" type="curve" smooth="yes"/>
      <point x="366" y="422"/>
      <point x="328" y="468"/>
      <point x="259" y="468" type="curve" smooth="yes"/>
      <point x="236" y="468"/>
      <point x="207" y="463"/>
      <point x="178" y="454" type="curve"/>
      <point x="191" y="496"/>
      <point x="248" y="544"/>
      <point x="325" y="544" type="curve" smooth="yes"/>
      <point x="423" y="544"/>
      <point x="451" y="467"/>
      <point x="451" y="357" type="curve" smooth="yes"/>
      <point x="451" y="311"/>
      <point x="446" y="262"/>
      <point x="438" y="216" type="curve"/>
      <point x="503" y="457" type="line"/>
      <point x="482" y="452" type="line"/>
      <point x="461" y="527"/>
      <point x="410" y="620"/>
      <point x="289" y="620" type="curve" smooth="yes"/>
      <point x="168" y="620"/>
      <point x="65" y="526"/>
      <point x="65" y="428" type="curve" smooth="yes"/>
      <point x="65" y="380"/>
      <point x="90" y="356"/>
      <point x="116" y="356" type="curve" smooth="yes"/>
      <point x="126" y="356"/>
      <point x="135" y="360"/>
      <point x="139" y="362" type="curve" smooth="yes"/>
      <point x="167" y="376"/>
      <point x="232" y="420"/>
      <point x="280" y="420" type="curve" smooth="yes"/>
      <point x="301" y="420"/>
      <point x="309" y="412"/>
      <point x="309" y="398" type="curve" smooth="yes"/>
      <point x="309" y="371"/>
      <point x="273" y="332"/>
      <point x="167" y="272" type="curve"/>
    </contour>
    <contour>
      <point x="438" y="99" type="line"/>
      <point x="419" y="93" type="line"/>
      <point x="381" y="160"/>
      <point x="317" y="198"/>
      <point x="247" y="198" type="curve" smooth="yes"/>
      <point x="155" y="198"/>
      <point x="106" y="141"/>
      <point x="106" y="86" type="curve" smooth="yes"/>
      <point x="106" y="39"/>
      <point x="142" y="0"/>
      <point x="196" y="0" type="curve" smooth="yes"/>
      <point x="252" y="0"/>
      <point x="287" y="42"/>
      <point x="287" y="84" type="curve" smooth="yes"/>
      <point x="287" y="104"/>
      <point x="279" y="129"/>
      <point x="263" y="142" type="curve"/>
      <point x="264" y="144" type="line"/>
      <point x="365" y="139"/>
      <point x="421" y="60"/>
      <point x="421" y="-75" type="curve"/>
    </contour>
    <contour>
      <point x="457" y="-93" type="line"/>
      <point x="473" y="8"/>
      <point x="485" y="82"/>
      <point x="499" y="158" type="curve" smooth="yes"/>
      <point x="572" y="552" type="line"/>
      <point x="661" y="552" type="line"/>
      <point x="663" y="560" type="line"/>
      <point x="615" y="620" type="line"/>
      <point x="512" y="620" type="line"/>
      <point x="510" y="608" type="line" smooth="yes"/>
      <point x="499" y="544"/>
      <point x="488" y="495"/>
      <point x="485" y="437" type="curve"/>
      <point x="438" y="216" type="line"/>
      <point x="427" y="153"/>
      <point x="423" y="110"/>
      <point x="423" y="85" type="curve"/>
      <point x="421" y="-75" type="line"/>
      <point x="446" y="-93" type="line"/>
    </contour>
  </outline>
</glyph>
<glyph name="bGRa_bSignUu" format="2">
  <advance width="866"/>
  <outline>
    <contour>
      <point x="550" y="97" type="line"/>
      <point x="528" y="87" type="line"/>
      <point x="482" y="146"/>
      <point x="417" y="160"/>
      <point x="343" y="160" type="curve" smooth="yes"/>
      <point x="298" y="160"/>
      <point x="245" y="155"/>
      <point x="210" y="155" type="curve" smooth="yes"/>
      <point x="118" y="155"/>
      <point x="80" y="189"/>
      <point x="80" y="245" type="curve" smooth="yes"/>
      <point x="80" y="275"/>
      <point x="91" y="313"/>
      <point x="115" y="351" type="curve"/>
      <point x="95" y="366" type="line"/>
      <point x="86" y="366" type="line"/>
      <point x="54" y="324"/>
      <point x="31" y="270"/>
      <point x="31" y="220" type="curve" smooth="yes"/>
      <point x="31" y="128"/>
      <point x="107" y="71"/>
      <point x="230" y="71" type="curve" smooth="yes"/>
      <point x="282" y="71"/>
      <point x="345" y="81"/>
      <point x="423" y="81" type="curve" smooth="yes"/>
      <point x="504" y="81"/>
      <point x="529" y="70"/>
      <point x="533" y="-26" type="curve"/>
      <point x="558" y="-43" type="line"/>
    </contour>
    <contour>
      <point x="346" y="198" type="line"/>
      <point x="442" y="264"/>
      <point x="473" y="311"/>
      <point x="473" y="364" type="curve" smooth="yes"/>
      <point x="473" y="422"/>
      <point x="436" y="468"/>
      <point x="367" y="468" type="curve" smooth="yes"/>
      <point x="344" y="468"/>
      <point x="315" y="463"/>
      <point x="286" y="454" type="curve"/>
      <point x="298" y="496"/>
      <point x="355" y="544"/>
      <point x="430" y="544" type="curve" smooth="yes"/>
      <point x="574" y="544"/>
      <point x="570" y="370"/>
      <point x="557" y="295" type="curve"/>
      <point x="620" y="459" type="line"/>
      <point x="590" y="452" type="line"/>
      <point x="567" y="531"/>
      <point x="512" y="620"/>
      <point x="395" y="620" type="curve" smooth="yes"/>
      <point x="275" y="620"/>
      <point x="173" y="526"/>
      <point x="173" y="429" type="curve" smooth="yes"/>
      <point x="173" y="382"/>
      <point x="198" y="356"/>
      <point x="224" y="356" type="curve" smooth="yes"/>
      <point x="234" y="356"/>
      <point x="242" y="360"/>
      <point x="248" y="364" type="curve" smooth="yes"/>
      <point x="325" y="411"/>
      <point x="373" y="420"/>
      <point x="392" y="420" type="curve" smooth="yes"/>
      <point x="409" y="420"/>
      <point x="417" y="412"/>
      <point x="417" y="400" type="curve" smooth="yes"/>
      <point x="417" y="375"/>
      <point x="383" y="333"/>
      <point x="277" y="270" type="curve"/>
    </contour>
    <contour>
      <point x="751" y="-4" type="line"/>
      <point x="763" y="69"/>
      <point x="777" y="143"/>
      <point x="790" y="211" type="curve" smooth="yes"/>
      <point x="803" y="279"/>
      <point x="815" y="336"/>
      <point x="830" y="403" type="curve"/>
      <point x="756" y="481" type="line"/>
      <point x="724" y="473"/>
      <point x="675" y="454"/>
      <point x="635" y="433" type="curve"/>
      <point x="621" y="341" type="line"/>
      <point x="672" y="370"/>
      <point x="736" y="396"/>
      <point x="776" y="405" type="curve"/>
      <point x="759" y="419" type="line"/>
      <point x="748" y="371"/>
      <point x="735" y="309"/>
      <point x="721" y="239" type="curve" smooth="yes"/>
      <point x="709" y="177"/>
      <point x="698" y="114"/>
      <point x="688" y="51" type="curve"/>
      <point x="745" y="-7" type="line"/>
    </contour>
    <contour>
      <point x="569" y="-43" type="line"/>
      <point x="676" y="552" type="line"/>
      <point x="934" y="552" type="line"/>
      <point x="936" y="560" type="line"/>
      <point x="887" y="620" type="line"/>
      <point x="620" y="620" type="line"/>
      <point x="618" y="608" type="line" smooth="yes"/>
      <point x="607" y="544"/>
      <point x="596" y="495"/>
      <point x="593" y="437" type="curve"/>
      <point x="557" y="295" type="line"/>
      <point x="551" y="264" type="line" smooth="yes"/>
      <point x="539" y="200"/>
      <point x="528" y="128"/>
      <point x="531" y="89" type="curve"/>
      <point x="558" y="-43" type="line"/>
    </contour>
  </outline>
</glyph>
<glyph name="bGhBa" format="2">
  <advance width="577"/>
  <outline>
    <contour>
      <point x="432" y="170" type="line"/>
      <point x="412" y="158" type="line"/>
      <point x="362" y="232"/>
      <point x="291" y="276"/>
      <point x="221" y="294" type="curve"/>
      <point x="221" y="297" type="line"/>
      <point x="279" y="333"/>
      <point x="339" y="366"/>
      <point x="403" y="402" type="curve"/>
      <point x="361" y="475" type="line"/>
      <point x="267" y="415" type="line"/>
      <point x="243" y="409" type="line"/>
      <point x="96" y="324" type="line"/>
      <point x="143" y="245" type="line"/>
      <point x="294" y="230"/>
      <point x="367" y="176"/>
      <point x="410" y="99" type="curve"/>
    </contour>
    <contour>
      <point x="404" y="-4" type="line"/>
      <point x="389" y="-17" type="line"/>
      <point x="362" y="29"/>
      <point x="308" y="63"/>
      <point x="273" y="77" type="curve"/>
      <point x="273" y="80" type="line"/>
      <point x="315" y="102"/>
      <point x="363" y="121"/>
      <point x="408" y="138" type="curve"/>
      <point x="344" y="189" type="line"/>
      <point x="279" y="162"/>
      <point x="219" y="135"/>
      <point x="163" y="105" type="curve"/>
      <point x="213" y="22" type="line"/>
      <point x="320" y="12"/>
      <point x="380" y="-27"/>
      <point x="400" y="-90" type="curve"/>
    </contour>
    <contour>
      <point x="361" y="475" type="line"/>
      <point x="314" y="446"/>
      <point x="279" y="434"/>
      <point x="252" y="434" type="curve" smooth="yes"/>
      <point x="219" y="434"/>
      <point x="201" y="452"/>
      <point x="201" y="479" type="curve" smooth="yes"/>
      <point x="201" y="505"/>
      <point x="219" y="546"/>
      <point x="272" y="564" type="curve"/>
      <point x="145" y="571" type="line"/>
      <point x="105" y="535"/>
      <point x="97" y="508"/>
      <point x="97" y="485" type="curve" smooth="yes"/>
      <point x="97" y="429"/>
      <point x="145" y="401"/>
      <point x="198" y="401" type="curve" smooth="yes"/>
      <point x="208" y="401"/>
      <point x="218" y="402"/>
      <point x="229" y="404" type="curve"/>
      <point x="231" y="386" type="line"/>
    </contour>
    <contour>
      <point x="435" y="-106" type="line"/>
      <point x="444" y="-44"/>
      <point x="452" y="-4"/>
      <point x="466" y="68" type="curve" smooth="yes"/>
      <point x="563" y="568" type="line"/>
      <point x="484" y="568" type="line"/>
      <point x="458" y="433" type="line" smooth="yes"/>
      <point x="432" y="297"/>
      <point x="415" y="195"/>
      <point x="415" y="154" type="curve"/>
      <point x="407" y="128" type="line"/>
      <point x="394" y="60"/>
      <point x="387" y="-1"/>
      <point x="393" y="-23" type="curve"/>
      <point x="400" y="-90" type="line"/>
      <point x="426" y="-106" type="line"/>
    </contour>
    <contour>
      <point x="645" y="552" type="line"/>
      <point x="647" y="560" type="line"/>
      <point x="599" y="620" type="line"/>
      <point x="22" y="620" type="line"/>
      <point x="20" y="612" type="line"/>
      <point x="68" y="552" type="line"/>
    </contour>
  </outline>
</glyph>
<glyph name="bHLa" format="2">
  <advance width="575"/>
  <outline>
    <contour>
      <point x="422" y="-178" type="line"/>
      <point x="432" y="-109"/>
      <point x="444" y="-39"/>
      <point x="458" y="29" type="curve"/>
      <point x="407" y="53" type="line"/>
      <point x="393" y="-56" type="line"/>
      <point x="384" y="-160" type="line"/>
      <point x="411" y="-178" type="line"/>
    </contour>
    <contour>
      <point x="643" y="552" type="line"/>
      <point x="645" y="560" type="line"/>
      <point x="596" y="620" type="line"/>
      <point x="21" y="620" type="line"/>
      <point x="20" y="612" type="line"/>
      <point x="68" y="552" type="line"/>
    </contour>
    <contour>
      <point x="271" y="167" type="line"/>
      <point x="422" y="196"/>
      <point x="517" y="264"/>
      <point x="517" y="362" type="curve" smooth="yes"/>
      <point x="517" y="461"/>
      <point x="421" y="509"/>
      <point x="322" y="509" type="curve" smooth="yes"/>
      <point x="229" y="509"/>
      <point x="119" y="466"/>
      <point x="119" y="391" type="curve" smooth="yes"/>
      <point x="119" y="351"/>
      <point x="150" y="326"/>
      <point x="198" y="326" type="curve" smooth="yes"/>
      <point x="267" y="326"/>
      <point x="327" y="378"/>
      <point x="346" y="458" type="curve"/>
      <point x="313" y="423" type="line"/>
      <point x="343" y="436"/>
      <point x="364" y="444"/>
      <point x="390" y="444" type="curve" smooth="yes"/>
      <point x="430" y="444"/>
      <point x="462" y="425"/>
      <point x="462" y="388" type="curve" smooth="yes"/>
      <point x="462" y="308"/>
      <point x="310" y="248"/>
      <point x="199" y="248" type="curve" smooth="yes"/>
      <point x="167" y="248"/>
      <point x="134" y="253"/>
      <point x="66" y="281" type="curve"/>
      <point x="60" y="276" type="line"/>
      <point x="102" y="157" type="line"/>
    </contour>
    <contour>
      <point x="553" y="-83" type="line"/>
      <point x="548" y="-37" type="line"/>
      <point x="511" y="8"/>
      <point x="446" y="82"/>
      <point x="289" y="168" type="curve"/>
      <point x="294" y="192" type="line"/>
      <point x="102" y="157" type="line"/>
      <point x="270" y="118"/>
      <point x="408" y="52"/>
      <point x="546" y="-83" type="curve"/>
    </contour>
    <contour>
      <point x="346" y="486" type="line"/>
      <point x="347" y="492"/>
      <point x="347" y="499"/>
      <point x="347" y="505" type="curve" smooth="yes"/>
      <point x="347" y="532"/>
      <point x="341" y="556"/>
      <point x="332" y="565" type="curve"/>
      <point x="263" y="565" type="line"/>
      <point x="285" y="551"/>
      <point x="299" y="527"/>
      <point x="299" y="504" type="curve" smooth="yes"/>
      <point x="299" y="498"/>
      <point x="298" y="493"/>
      <point x="297" y="488" type="curve"/>
    </contour>
    <contour>
      <point x="102" y="-171" type="curve" smooth="yes"/>
      <point x="159" y="-171"/>
      <point x="191" y="-136"/>
      <point x="191" y="-103" type="curve" smooth="yes"/>
      <point x="191" y="-79"/>
      <point x="174" y="-57"/>
      <point x="145" y="-57" type="curve" smooth="yes"/>
      <point x="115" y="-57"/>
      <point x="93" y="-79"/>
      <point x="93" y="-105" type="curve" smooth="yes"/>
      <point x="93" y="-118"/>
      <point x="98" y="-129"/>
      <point x="106" y="-134" type="curve"/>
      <point x="125" y="-105" type="line"/>
      <point x="99" y="-131" type="line"/>
      <point x="64" y="-131"/>
      <point x="48" y="-109"/>
      <point x="48" y="-82" type="curve" smooth="yes"/>
      <point x="48" y="-39"/>
      <point x="89" y="-3"/>
      <point x="143" y="-3" type="curve" smooth="yes"/>
      <point x="197" y="-3"/>
      <point x="235" y="-38"/>
      <point x="248" y="-86" type="curve"/>
      <point x="267" y="-96" type="line"/>
      <point x="244" y="-14" type="line"/>
      <point x="217" y="27"/>
      <point x="182" y="69"/>
      <point x="120" y="69" type="curve" smooth="yes"/>
      <point x="48" y="69"/>
      <point x="-16" y="14"/>
      <point x="-16" y="-57" type="curve" smooth="yes"/>
      <point x="-16" y="-119"/>
      <point x="34" y="-171"/>
    </contour>
    <contour>
      <point x="411" y="-35" type="line"/>
      <point x="392" y="-41" type="line"/>
      <point x="370" y="20"/>
      <point x="341" y="47"/>
      <point x="303" y="47" type="curve" smooth="yes"/>
      <point x="269" y="47"/>
      <point x="238" y="26"/>
      <point x="228" y="-23" type="curve"/>
      <point x="267" y="-96" type="line"/>
      <point x="273" y="-94" type="line"/>
      <point x="278" y="-62"/>
      <point x="290" y="-22"/>
      <point x="326" y="-22" type="curve" smooth="yes"/>
      <point x="352" y="-22"/>
      <point x="379" y="-43"/>
      <point x="384" y="-160" type="curve"/>
    </contour>
  </outline>
</glyph>
<glyph name="bHMa" format="2">
  <advance width="817"/>
  <outline>
    <contour>
      <point x="701" y="-8" type="line"/>
      <point x="714" y="65"/>
      <point x="727" y="139"/>
      <point x="740" y="207" type="curve" smooth="yes"/>
      <point x="753" y="275"/>
      <point x="768" y="342"/>
      <point x="783" y="409" type="curve"/>
      <point x="709" y="487" type="line"/>
      <point x="623" y="462"/>
      <point x="510" y="446"/>
      <point x="426" y="446" type="curve" smooth="yes"/>
      <point x="356" y="446"/>
      <point x="314" y="456"/>
      <point x="269" y="473" type="curve"/>
      <point x="342" y="394" type="line"/>
      <point x="354" y="412" type="line"/>
      <point x="401" y="385"/>
      <point x="458" y="375"/>
      <point x="517" y="375" type="curve" smooth="yes"/>
      <point x="569" y="375"/>
      <point x="655" y="385"/>
      <point x="738" y="417" type="curve"/>
      <point x="712" y="425" type="line"/>
      <point x="702" y="381"/>
      <point x="686" y="305"/>
      <point x="672" y="235" type="curve" smooth="yes"/>
      <point x="660" y="173"/>
      <point x="648" y="110"/>
      <point x="638" y="47" type="curve"/>
      <point x="695" y="-11" type="line"/>
    </contour>
    <contour>
      <point x="885" y="552" type="line"/>
      <point x="887" y="560" type="line"/>
      <point x="839" y="620" type="line"/>
      <point x="22" y="620" type="line"/>
      <point x="20" y="612" type="line"/>
      <point x="68" y="552" type="line"/>
    </contour>
    <contour>
      <point x="498" y="158" type="line"/>
      <point x="479" y="152" type="line"/>
      <point x="446" y="236"/>
      <point x="375" y="299"/>
      <point x="293" y="299" type="curve" smooth="yes"/>
      <point x="226" y="299"/>
      <point x="186" y="256"/>
      <point x="186" y="209" type="curve" smooth="yes"/>
      <point x="186" y="164"/>
      <point x="222" y="137"/>
      <point x="263" y="137" type="curve" smooth="yes"/>
      <point x="331" y="137"/>
      <point x="388" y="210"/>
      <point x="388" y="294" type="curve" smooth="yes"/>
      <point x="388" y="404"/>
      <point x="289" y="493"/>
      <point x="182" y="493" type="curve" smooth="yes"/>
      <point x="101" y="493"/>
      <point x="51" y="441"/>
      <point x="51" y="391" type="curve" smooth="yes"/>
      <point x="51" y="350"/>
      <point x="83" y="321"/>
      <point x="125" y="321" type="curve" smooth="yes"/>
      <point x="173" y="321"/>
      <point x="226" y="359"/>
      <point x="226" y="447" type="curve" smooth="yes"/>
      <point x="226" y="479"/>
      <point x="219" y="532"/>
      <point x="195" y="568" type="curve"/>
      <point x="91" y="552" type="line"/>
      <point x="146" y="552"/>
      <point x="187" y="538"/>
      <point x="187" y="425" type="curve"/>
      <point x="177" y="413" type="line"/>
      <point x="194" y="418"/>
      <point x="214" y="422"/>
      <point x="235" y="422" type="curve" smooth="yes"/>
      <point x="298" y="422"/>
      <point x="331" y="386"/>
      <point x="331" y="344" type="curve" smooth="yes"/>
      <point x="331" y="317"/>
      <point x="318" y="299"/>
      <point x="299" y="285" type="curve"/>
      <point x="350" y="212" type="line"/>
      <point x="442" y="203"/>
      <point x="481" y="108"/>
      <point x="481" y="-15" type="curve"/>
    </contour>
    <contour>
      <point x="519" y="-33" type="line"/>
      <point x="534" y="68"/>
      <point x="546" y="132"/>
      <point x="561" y="208" type="curve" smooth="yes"/>
      <point x="631" y="569" type="line"/>
      <point x="553" y="569" type="line"/>
      <point x="510" y="350" type="line" smooth="yes"/>
      <point x="487" y="234"/>
      <point x="482" y="181"/>
      <point x="482" y="143" type="curve" smooth="yes"/>
      <point x="481" y="-15" type="line"/>
      <point x="507" y="-33" type="line"/>
    </contour>
  </outline>
</glyph>
<glyph name="bHNna.alt" format="2">
  <advance width="555"/>
  <outline>
    <contour>
      <point x="623" y="552" type="line"/>
      <point x="625" y="560" type="line"/>
      <point x="577" y="620" type="line"/>
      <point x="22" y="620" type="line"/>
      <point x="20" y="612" type="line"/>
      <point x="68" y="552" type="line"/>
    </contour>
    <contour>
      <point x="251" y="167" type="line"/>
      <point x="402" y="196"/>
      <point x="497" y="264"/>
      <point x="497" y="362" type="curve" smooth="yes"/>
      <point x="497" y="461"/>
      <point x="401" y="509"/>
      <point x="302" y="509" type="curve" smooth="yes"/>
      <point x="209" y="509"/>
      <point x="99" y="466"/>
      <point x="99" y="391" type="curve" smooth="yes"/>
      <point x="99" y="351"/>
      <point x="130" y="326"/>
      <point x="178" y="326" type="curve" smooth="yes"/>
      <point x="247" y="326"/>
      <point x="307" y="378"/>
      <point x="326" y="458" type="curve"/>
      <point x="293" y="423" type="line"/>
      <point x="323" y="436"/>
      <point x="344" y="444"/>
      <point x="370" y="444" type="curve" smooth="yes"/>
      <point x="410" y="444"/>
      <point x="442" y="425"/>
      <point x="442" y="388" type="curve" smooth="yes"/>
      <point x="442" y="308"/>
      <point x="290" y="248"/>
      <point x="179" y="248" type="curve" smooth="yes"/>
      <point x="147" y="248"/>
      <point x="114" y="253"/>
      <point x="46" y="281" type="curve"/>
      <point x="40" y="276" type="line"/>
      <point x="82" y="157" type="line"/>
    </contour>
    <contour>
      <point x="532" y="-88" type="line"/>
      <point x="527" y="-42" type="line"/>
      <point x="490" y="4"/>
      <point x="425" y="80"/>
      <point x="269" y="168" type="curve"/>
      <point x="274" y="192" type="line"/>
      <point x="82" y="157" type="line"/>
      <point x="250" y="117"/>
      <point x="387" y="50"/>
      <point x="525" y="-88" type="curve"/>
    </contour>
    <contour>
      <point x="326" y="486" type="line"/>
      <point x="327" y="492"/>
      <point x="327" y="499"/>
      <point x="327" y="505" type="curve" smooth="yes"/>
      <point x="327" y="532"/>
      <point x="321" y="556"/>
      <point x="312" y="565" type="curve"/>
      <point x="243" y="565" type="line"/>
      <point x="265" y="551"/>
      <point x="279" y="527"/>
      <point x="279" y="504" type="curve" smooth="yes"/>
      <point x="279" y="498"/>
      <point x="278" y="493"/>
      <point x="277" y="488" type="curve"/>
    </contour>
    <contour>
      <point x="399" y="-208" type="line"/>
      <point x="414" y="-107"/>
      <point x="426" y="-37"/>
      <point x="439" y="29" type="curve"/>
      <point x="373" y="58" type="line"/>
      <point x="372" y="53" type="line" smooth="yes"/>
      <point x="359" y="-12"/>
      <point x="363" y="-65"/>
      <point x="376" y="-91" type="curve"/>
      <point x="362" y="-190" type="line"/>
      <point x="388" y="-208" type="line"/>
    </contour>
    <contour>
      <point x="383" y="-57" type="line"/>
      <point x="365" y="-65" type="line"/>
      <point x="335" y="14"/>
      <point x="271" y="52"/>
      <point x="209" y="52" type="curve" smooth="yes"/>
      <point x="135" y="52"/>
      <point x="62" y="-1"/>
      <point x="62" y="-83" type="curve" smooth="yes"/>
      <point x="62" y="-156"/>
      <point x="121" y="-198"/>
      <point x="188" y="-198" type="curve" smooth="yes"/>
      <point x="257" y="-198"/>
      <point x="291" y="-153"/>
      <point x="291" y="-115" type="curve" smooth="yes"/>
      <point x="291" y="-85"/>
      <point x="270" y="-57"/>
      <point x="233" y="-57" type="curve" smooth="yes"/>
      <point x="196" y="-57"/>
      <point x="173" y="-85"/>
      <point x="173" y="-115" type="curve" smooth="yes"/>
      <point x="173" y="-134"/>
      <point x="183" y="-153"/>
      <point x="196" y="-158" type="curve"/>
      <point x="200" y="-127" type="line"/>
      <point x="187" y="-155" type="line"/>
      <point x="139" y="-157"/>
      <point x="120" y="-128"/>
      <point x="120" y="-96" type="curve" smooth="yes"/>
      <point x="120" y="-53"/>
      <point x="154" y="-6"/>
      <point x="223" y="-6" type="curve" smooth="yes"/>
      <point x="296" y="-6"/>
      <point x="362" y="-60"/>
      <point x="363" y="-175" type="curve" smooth="yes"/>
      <point x="363" y="-177"/>
      <point x="363" y="-180"/>
      <point x="362" y="-190" type="curve"/>
    </contour>
  </outline>
</glyph>
<glyph name="bHRa" format="2">
  <advance width="627"/>
  <outline>
    <contour>
      <point x="456" y="-45" type="line"/>
      <point x="436" y="-54" type="line"/>
      <point x="391" y="0"/>
      <point x="323" y="17"/>
      <point x="266" y="17" type="curve" smooth="yes"/>
      <point x="238" y="17"/>
      <point x="165" y="13"/>
      <point x="137" y="13" type="curve" smooth="yes"/>
      <point x="76" y="13"/>
      <point x="47" y="33"/>
      <point x="47" y="73" type="curve" smooth="yes"/>
      <point x="47" y="96"/>
      <point x="57" y="133"/>
      <point x="79" y="162" type="curve"/>
      <point x="60" y="176" type="line"/>
      <point x="51" y="176" type="line"/>
      <point x="21" y="140"/>
      <point x="-3" y="92"/>
      <point x="-3" y="47" type="curve" smooth="yes"/>
      <point x="-3" y="-13"/>
      <point x="39" y="-70"/>
      <point x="156" y="-70" type="curve" smooth="yes"/>
      <point x="199" y="-70"/>
      <point x="282" y="-62"/>
      <point x="338" y="-62" type="curve" smooth="yes"/>
      <point x="409" y="-62"/>
      <point x="439" y="-75"/>
      <point x="445" y="-140" type="curve"/>
    </contour>
    <contour>
      <point x="480" y="-157" type="line"/>
      <point x="497" y="-42"/>
      <point x="500" y="-20"/>
      <point x="504" y="2" type="curve"/>
      <point x="458" y="48" type="line"/>
      <point x="439" y="-62" type="line"/>
      <point x="445" y="-140" type="line"/>
      <point x="469" y="-157" type="line"/>
    </contour>
    <contour>
      <point x="695" y="552" type="line"/>
      <point x="697" y="560" type="line"/>
      <point x="648" y="620" type="line"/>
      <point x="21" y="620" type="line"/>
      <point x="20" y="612" type="line"/>
      <point x="68" y="552" type="line"/>
    </contour>
    <contour>
      <point x="323" y="167" type="line"/>
      <point x="474" y="196"/>
      <point x="569" y="264"/>
      <point x="569" y="362" type="curve" smooth="yes"/>
      <point x="569" y="461"/>
      <point x="473" y="509"/>
      <point x="374" y="509" type="curve" smooth="yes"/>
      <point x="281" y="509"/>
      <point x="171" y="466"/>
      <point x="171" y="391" type="curve" smooth="yes"/>
      <point x="171" y="351"/>
      <point x="202" y="326"/>
      <point x="250" y="326" type="curve" smooth="yes"/>
      <point x="319" y="326"/>
      <point x="379" y="378"/>
      <point x="398" y="458" type="curve"/>
      <point x="365" y="423" type="line"/>
      <point x="395" y="436"/>
      <point x="416" y="444"/>
      <point x="442" y="444" type="curve" smooth="yes"/>
      <point x="482" y="444"/>
      <point x="514" y="425"/>
      <point x="514" y="388" type="curve" smooth="yes"/>
      <point x="514" y="308"/>
      <point x="362" y="248"/>
      <point x="251" y="248" type="curve" smooth="yes"/>
      <point x="219" y="248"/>
      <point x="186" y="253"/>
      <point x="118" y="281" type="curve"/>
      <point x="112" y="276" type="line"/>
      <point x="154" y="157" type="line"/>
    </contour>
    <contour>
      <point x="604" y="-88" type="line"/>
      <point x="599" y="-42" type="line"/>
      <point x="562" y="4"/>
      <point x="497" y="80"/>
      <point x="341" y="168" type="curve"/>
      <point x="346" y="192" type="line"/>
      <point x="154" y="157" type="line"/>
      <point x="322" y="117"/>
      <point x="459" y="50"/>
      <point x="597" y="-88" type="curve"/>
    </contour>
    <contour>
      <point x="398" y="486" type="line"/>
      <point x="399" y="492"/>
      <point x="399" y="499"/>
      <point x="399" y="505" type="curve" smooth="yes"/>
      <point x="399" y="532"/>
      <point x="393" y="556"/>
      <point x="384" y="565" type="curve"/>
      <point x="315" y="565" type="line"/>
      <point x="337" y="551"/>
      <point x="351" y="527"/>
      <point x="351" y="504" type="curve" smooth="yes"/>
      <point x="351" y="498"/>
      <point x="350" y="493"/>
      <point x="349" y="488" type="curve"/>
    </contour>
  </outline>
</glyph>
<glyph name="bHYa" format="2">
  <advance width="774"/>
  <outline>
    <contour>
      <point x="461" y="-65" type="line"/>
      <point x="615" y="-30"/>
      <point x="675" y="61"/>
      <point x="675" y="250" type="curve" smooth="yes"/>
      <point x="675" y="458"/>
      <point x="694" y="530"/>
      <point x="806" y="558" type="curve"/>
      <point x="713" y="568" type="line"/>
      <point x="715" y="548" type="line"/>
      <point x="632" y="491"/>
      <point x="588" y="438"/>
      <point x="588" y="256" type="curve" smooth="yes"/>
      <point x="588" y="99"/>
      <point x="584" y="-4"/>
      <point x="451" y="-33" type="curve"/>
    </contour>
    <contour>
      <point x="842" y="552" type="line"/>
      <point x="844" y="560" type="line"/>
      <point x="796" y="620" type="line"/>
      <point x="22" y="620" type="line"/>
      <point x="20" y="612" type="line"/>
      <point x="68" y="552" type="line"/>
    </contour>
    <contour>
      <point x="246" y="134" type="line"/>
      <point x="389" y="165"/>
      <point x="484" y="241"/>
      <point x="484" y="347" type="curve" smooth="yes"/>
      <point x="484" y="452"/>
      <point x="393" y="501"/>
      <point x="297" y="501" type="curve" smooth="yes"/>
      <point x="204" y="501"/>
      <point x="94" y="458"/>
      <point x="94" y="383" type="curve" smooth="yes"/>
      <point x="94" y="343"/>
      <point x="125" y="318"/>
      <point x="173" y="318" type="curve" smooth="yes"/>
      <point x="242" y="318"/>
      <point x="302" y="370"/>
      <point x="321" y="450" type="curve"/>
      <point x="288" y="415" type="line"/>
      <point x="318" y="428"/>
      <point x="339" y="436"/>
      <point x="365" y="436" type="curve" smooth="yes"/>
      <point x="400" y="436"/>
      <point x="429" y="419"/>
      <point x="429" y="377" type="curve" smooth="yes"/>
      <point x="429" y="287"/>
      <point x="281" y="215"/>
      <point x="172" y="215" type="curve" smooth="yes"/>
      <point x="143" y="215"/>
      <point x="109" y="220"/>
      <point x="41" y="248" type="curve"/>
      <point x="35" y="243" type="line"/>
      <point x="77" y="124" type="line"/>
    </contour>
    <contour>
      <point x="522" y="-129" type="line"/>
      <point x="519" y="-85" type="line"/>
      <point x="481" y="-34"/>
      <point x="419" y="44"/>
      <point x="264" y="135" type="curve"/>
      <point x="269" y="159" type="line"/>
      <point x="77" y="124" type="line"/>
      <point x="243" y="83"/>
      <point x="378" y="13"/>
      <point x="515" y="-129" type="curve"/>
    </contour>
    <contour>
      <point x="326" y="486" type="line"/>
      <point x="327" y="492"/>
      <point x="327" y="499"/>
      <point x="327" y="505" type="curve" smooth="yes"/>
      <point x="327" y="532"/>
      <point x="321" y="556"/>
      <point x="312" y="565" type="curve"/>
      <point x="243" y="565" type="line"/>
      <point x="265" y="551"/>
      <point x="279" y="527"/>
      <point x="279" y="504" type="curve" smooth="yes"/>
      <point x="279" y="498"/>
      <point x="278" y="493"/>
      <point x="277" y="488" type="curve"/>
    </contour>
  </outline>
</glyph>
<glyph name="bHa_bSignU" format="2">
  <advance width="610"/>
  <outline>
    <contour>
      <point x="314" y="102" type="line"/>
      <point x="449" y="130"/>
      <point x="558" y="199"/>
      <point x="558" y="318" type="curve" smooth="yes"/>
      <point x="558" y="367"/>
      <point x="540" y="398"/>
      <point x="521" y="424" type="curve" smooth="yes"/>
      <point x="504" y="447"/>
      <point x="479" y="476"/>
      <point x="477" y="510" type="curve"/>
      <point x="454" y="520" type="line"/>
      <point x="422" y="477"/>
      <point x="374" y="446"/>
      <point x="341" y="399" type="curve"/>
      <point x="337" y="306" type="line"/>
      <point x="359" y="296" type="line"/>
      <point x="393" y="361"/>
      <point x="464" y="403"/>
      <point x="481" y="441" type="curve"/>
      <point x="454" y="449" type="line"/>
      <point x="489" y="417"/>
      <point x="506" y="385"/>
      <point x="506" y="353" type="curve" smooth="yes"/>
      <point x="506" y="257"/>
      <point x="353" y="181"/>
      <point x="235" y="181" type="curve" smooth="yes"/>
      <point x="211" y="181"/>
      <point x="176" y="184"/>
      <point x="109" y="212" type="curve"/>
      <point x="103" y="207" type="line"/>
      <point x="144" y="92" type="line"/>
    </contour>
    <contour>
      <point x="577" y="-136" type="line"/>
      <point x="572" y="-91" type="line"/>
      <point x="536" y="-45"/>
      <point x="471" y="26"/>
      <point x="332" y="103" type="curve"/>
      <point x="336" y="122" type="line"/>
      <point x="144" y="92" type="line"/>
      <point x="304" y="55"/>
      <point x="436" y="-8"/>
      <point x="570" y="-136" type="curve"/>
    </contour>
    <contour>
      <point x="168" y="254" type="curve" smooth="yes"/>
      <point x="216" y="254"/>
      <point x="246" y="286"/>
      <point x="246" y="321" type="curve" smooth="yes"/>
      <point x="246" y="355"/>
      <point x="218" y="374"/>
      <point x="189" y="374" type="curve" smooth="yes"/>
      <point x="170" y="374"/>
      <point x="154" y="366"/>
      <point x="144" y="357" type="curve"/>
      <point x="159" y="342" type="line"/>
      <point x="159" y="394"/>
      <point x="191" y="430"/>
      <point x="249" y="430" type="curve" smooth="yes"/>
      <point x="302" y="430"/>
      <point x="335" y="400"/>
      <point x="337" y="306" type="curve"/>
      <point x="365" y="410" type="line"/>
      <point x="346" y="410" type="line"/>
      <point x="327" y="477"/>
      <point x="282" y="502"/>
      <point x="226" y="502" type="curve" smooth="yes"/>
      <point x="134" y="502"/>
      <point x="66" y="434"/>
      <point x="66" y="356" type="curve" smooth="yes"/>
      <point x="66" y="289"/>
      <point x="117" y="254"/>
    </contour>
    <contour>
      <point x="678" y="552" type="line"/>
      <point x="680" y="560" type="line"/>
      <point x="632" y="620" type="line"/>
      <point x="22" y="620" type="line"/>
      <point x="20" y="612" type="line"/>
      <point x="68" y="552" type="line"/>
    </contour>
  </outline>
</glyph>
<glyph name="bHeadline4" format="2">
  <outline>
    <contour>
      <point x="147" y="552" type="line"/>
      <point x="149" y="560" type="line"/>
      <point x="101" y="620" type="line"/>
      <point x="22" y="620" type="line"/>
      <point x="20" y="612" type="line"/>
      <point x="68" y="552" type="line"/>
    </contour>
  </outline>
  <guideline angle="90" x="88" y="0"/>
</glyph>
<glyph name="bKBa" format="2">
  <advance width="728"/>
  <outline>
    <contour>
      <point x="562" y="168" type="curve" smooth="yes"/>
      <point x="617" y="168"/>
      <point x="687" y="213"/>
      <point x="687" y="317" type="curve" smooth="yes"/>
      <point x="687" y="434"/>
      <point x="597" y="514"/>
      <point x="470" y="514" type="curve" smooth="yes"/>
      <point x="368" y="514"/>
      <point x="252" y="462"/>
      <point x="38" y="355" type="curve"/>
      <point x="93" y="265" type="line"/>
      <point x="137" y="264"/>
      <point x="173" y="261"/>
      <point x="206" y="237" type="curve"/>
      <point x="256" y="254" type="line"/>
      <point x="230" y="285"/>
      <point x="198" y="307"/>
      <point x="165" y="324" type="curve"/>
      <point x="166" y="327" type="line"/>
      <point x="297" y="393"/>
      <point x="395" y="431"/>
      <point x="476" y="431" type="curve" smooth="yes"/>
      <point x="580" y="431"/>
      <point x="651" y="368"/>
      <point x="651" y="310" type="curve" smooth="yes"/>
      <point x="651" y="291"/>
      <point x="644" y="269"/>
      <point x="606" y="246" type="curve"/>
      <point x="635" y="234" type="line"/>
      <point x="635" y="284"/>
      <point x="604" y="306"/>
      <point x="570" y="306" type="curve" smooth="yes"/>
      <point x="531" y="306"/>
      <point x="491" y="277"/>
      <point x="491" y="232" type="curve" smooth="yes"/>
      <point x="491" y="192"/>
      <point x="523" y="168"/>
    </contour>
    <contour>
      <point x="356" y="53" type="line"/>
      <point x="338" y="42" type="line"/>
      <point x="296" y="101"/>
      <point x="246" y="134"/>
      <point x="196" y="151" type="curve"/>
      <point x="197" y="154" type="line"/>
      <point x="243" y="181"/>
      <point x="320" y="221"/>
      <point x="390" y="235" type="curve"/>
      <point x="399" y="320" type="line"/>
      <point x="298" y="301"/>
      <point x="196" y="248"/>
      <point x="71" y="178" type="curve"/>
      <point x="122" y="94" type="line"/>
      <point x="251" y="84"/>
      <point x="335" y="24"/>
      <point x="349" y="-82" type="curve"/>
    </contour>
    <contour>
      <point x="384" y="-98" type="line"/>
      <point x="401" y="3"/>
      <point x="413" y="67"/>
      <point x="428" y="143" type="curve" smooth="yes"/>
      <point x="511" y="568" type="line"/>
      <point x="433" y="568" type="line"/>
      <point x="409" y="440" type="line"/>
      <point x="372" y="255" type="line" smooth="yes"/>
      <point x="358" y="183"/>
      <point x="338" y="62"/>
      <point x="342" y="38" type="curve"/>
      <point x="349" y="-82" type="line"/>
      <point x="373" y="-98" type="line"/>
    </contour>
    <contour>
      <point x="796" y="552" type="line"/>
      <point x="798" y="560" type="line"/>
      <point x="750" y="620" type="line"/>
      <point x="22" y="620" type="line"/>
      <point x="20" y="612" type="line"/>
      <point x="68" y="552" type="line"/>
    </contour>
  </outline>
</glyph>
<glyph name="bKLa" format="2">
  <advance width="773"/>
  <outline>
    <contour>
      <point x="425" y="192" type="line"/>
      <point x="407" y="181" type="line"/>
      <point x="356" y="273"/>
      <point x="283" y="312"/>
      <point x="214" y="334" type="curve"/>
      <point x="215" y="336" type="line"/>
      <point x="352" y="403"/>
      <point x="447" y="434"/>
      <point x="521" y="434" type="curve" smooth="yes"/>
      <point x="628" y="434"/>
      <point x="697" y="370"/>
      <point x="697" y="314" type="curve" smooth="yes"/>
      <point x="697" y="289"/>
      <point x="684" y="264"/>
      <point x="658" y="247" type="curve"/>
      <point x="682" y="232" type="line"/>
      <point x="680" y="286"/>
      <point x="645" y="306"/>
      <point x="613" y="306" type="curve" smooth="yes"/>
      <point x="575" y="306"/>
      <point x="536" y="277"/>
      <point x="536" y="232" type="curve" smooth="yes"/>
      <point x="536" y="192"/>
      <point x="568" y="168"/>
      <point x="607" y="168" type="curve" smooth="yes"/>
      <point x="662" y="168"/>
      <point x="733" y="216"/>
      <point x="733" y="319" type="curve" smooth="yes"/>
      <point x="733" y="441"/>
      <point x="635" y="518"/>
      <point x="516" y="518" type="curve" smooth="yes"/>
      <point x="427" y="518"/>
      <point x="300" y="475"/>
      <point x="84" y="367" type="curve"/>
      <point x="144" y="268" type="line"/>
      <point x="328" y="253"/>
      <point x="408" y="191"/>
      <point x="410" y="26" type="curve"/>
    </contour>
    <contour>
      <point x="111" y="-77" type="curve" smooth="yes"/>
      <point x="170" y="-77"/>
      <point x="201" y="-40"/>
      <point x="201" y="-8" type="curve" smooth="yes"/>
      <point x="201" y="14"/>
      <point x="185" y="38"/>
      <point x="154" y="38" type="curve" smooth="yes"/>
      <point x="124" y="38"/>
      <point x="103" y="15"/>
      <point x="103" y="-11" type="curve" smooth="yes"/>
      <point x="103" y="-28"/>
      <point x="112" y="-41"/>
      <point x="133" y="-48" type="curve"/>
      <point x="135" y="-10" type="line"/>
      <point x="109" y="-36" type="line"/>
      <point x="74" y="-36"/>
      <point x="58" y="-14"/>
      <point x="58" y="12" type="curve" smooth="yes"/>
      <point x="58" y="58"/>
      <point x="106" y="92"/>
      <point x="160" y="92" type="curve" smooth="yes"/>
      <point x="204" y="92"/>
      <point x="247" y="70"/>
      <point x="261" y="9" type="curve"/>
      <point x="257" y="81" type="line"/>
      <point x="231" y="122"/>
      <point x="197" y="164"/>
      <point x="133" y="164" type="curve" smooth="yes"/>
      <point x="59" y="164"/>
      <point x="-6" y="108"/>
      <point x="-6" y="36" type="curve" smooth="yes"/>
      <point x="-6" y="-25"/>
      <point x="40" y="-77"/>
    </contour>
    <contour>
      <point x="424" y="62" type="line"/>
      <point x="405" y="54" type="line"/>
      <point x="383" y="121"/>
      <point x="355" y="152"/>
      <point x="317" y="152" type="curve" smooth="yes"/>
      <point x="285" y="152"/>
      <point x="255" y="128"/>
      <point x="242" y="76" type="curve"/>
      <point x="261" y="9" type="line"/>
      <point x="280" y="-1" type="line"/>
      <point x="287" y="1" type="line"/>
      <point x="288" y="31"/>
      <point x="303" y="83"/>
      <point x="341" y="83" type="curve" smooth="yes"/>
      <point x="362" y="83"/>
      <point x="390" y="66"/>
      <point x="394" y="-65" type="curve"/>
    </contour>
    <contour>
      <point x="432" y="-83" type="line"/>
      <point x="449" y="18"/>
      <point x="461" y="83"/>
      <point x="476" y="159" type="curve" smooth="yes"/>
      <point x="556" y="569" type="line"/>
      <point x="477" y="569" type="line"/>
      <point x="452" y="440" type="line" smooth="yes"/>
      <point x="420" y="274"/>
      <point x="410" y="219"/>
      <point x="410" y="176" type="curve"/>
      <point x="408" y="40" type="line"/>
      <point x="394" y="-65" type="line"/>
      <point x="421" y="-83" type="line"/>
    </contour>
    <contour>
      <point x="842" y="552" type="line"/>
      <point x="843" y="560" type="line"/>
      <point x="795" y="620" type="line"/>
      <point x="22" y="620" type="line"/>
      <point x="20" y="612" type="line"/>
      <point x="69" y="552" type="line"/>
    </contour>
  </outline>
</glyph>
<glyph name="bKNa" format="2">
  <advance width="734"/>
  <outline>
    <contour>
      <point x="385" y="192" type="line"/>
      <point x="367" y="181" type="line"/>
      <point x="316" y="273"/>
      <point x="244" y="312"/>
      <point x="175" y="334" type="curve"/>
      <point x="175" y="336" type="line"/>
      <point x="312" y="403"/>
      <point x="407" y="434"/>
      <point x="481" y="434" type="curve" smooth="yes"/>
      <point x="588" y="434"/>
      <point x="658" y="370"/>
      <point x="658" y="314" type="curve" smooth="yes"/>
      <point x="658" y="290"/>
      <point x="645" y="266"/>
      <point x="616" y="247" type="curve"/>
      <point x="641" y="239" type="line"/>
      <point x="641" y="284"/>
      <point x="610" y="306"/>
      <point x="575" y="306" type="curve" smooth="yes"/>
      <point x="537" y="306"/>
      <point x="497" y="277"/>
      <point x="497" y="232" type="curve" smooth="yes"/>
      <point x="497" y="192"/>
      <point x="529" y="168"/>
      <point x="568" y="168" type="curve" smooth="yes"/>
      <point x="623" y="168"/>
      <point x="694" y="215"/>
      <point x="694" y="319" type="curve" smooth="yes"/>
      <point x="694" y="442"/>
      <point x="595" y="518"/>
      <point x="479" y="518" type="curve" smooth="yes"/>
      <point x="392" y="518"/>
      <point x="260" y="475"/>
      <point x="45" y="367" type="curve"/>
      <point x="104" y="268" type="line"/>
      <point x="284" y="257"/>
      <point x="370" y="180"/>
      <point x="362" y="26" type="curve"/>
    </contour>
    <contour>
      <point x="378" y="62" type="line"/>
      <point x="359" y="56" type="line"/>
      <point x="326" y="134"/>
      <point x="254" y="162"/>
      <point x="193" y="162" type="curve" smooth="yes"/>
      <point x="110" y="162"/>
      <point x="65" y="109"/>
      <point x="65" y="57" type="curve" smooth="yes"/>
      <point x="65" y="12"/>
      <point x="99" y="-22"/>
      <point x="147" y="-22" type="curve" smooth="yes"/>
      <point x="199" y="-22"/>
      <point x="231" y="19"/>
      <point x="231" y="59" type="curve" smooth="yes"/>
      <point x="231" y="71"/>
      <point x="228" y="89"/>
      <point x="220" y="100" type="curve"/>
      <point x="222" y="102" type="line"/>
      <point x="331" y="98"/>
      <point x="353" y="4"/>
      <point x="356" y="-65" type="curve"/>
    </contour>
    <contour>
      <point x="393" y="-83" type="line"/>
      <point x="410" y="18"/>
      <point x="422" y="82"/>
      <point x="437" y="158" type="curve" smooth="yes"/>
      <point x="517" y="568" type="line"/>
      <point x="437" y="568" type="line"/>
      <point x="412" y="439" type="line" smooth="yes"/>
      <point x="380" y="273"/>
      <point x="370" y="218"/>
      <point x="371" y="174" type="curve"/>
      <point x="356" y="-65" type="line"/>
      <point x="382" y="-83" type="line"/>
    </contour>
    <contour>
      <point x="802" y="552" type="line"/>
      <point x="804" y="560" type="line"/>
      <point x="756" y="620" type="line"/>
      <point x="22" y="620" type="line"/>
      <point x="20" y="612" type="line"/>
      <point x="68" y="552" type="line"/>
    </contour>
  </outline>
</glyph>
<glyph name="bKSa" format="2">
  <advance width="731"/>
  <outline>
    <contour>
      <point x="321" y="253" type="line"/>
      <point x="303" y="242" type="line"/>
      <point x="260" y="307"/>
      <point x="208" y="343"/>
      <point x="156" y="362" type="curve"/>
      <point x="157" y="365" type="line"/>
      <point x="207" y="390"/>
      <point x="281" y="421"/>
      <point x="347" y="433" type="curve"/>
      <point x="363" y="518" type="line"/>
      <point x="247" y="498"/>
      <point x="141" y="448"/>
      <point x="31" y="391" type="curve"/>
      <point x="82" y="307" type="line"/>
      <point x="214" y="296"/>
      <point x="312" y="226"/>
      <point x="326" y="115" type="curve"/>
    </contour>
    <contour>
      <point x="241" y="-13" type="curve" smooth="yes"/>
      <point x="274" y="-13"/>
      <point x="296" y="4"/>
      <point x="372" y="63" type="curve" smooth="yes"/>
      <point x="426" y="105"/>
      <point x="457" y="119"/>
      <point x="483" y="119" type="curve" smooth="yes"/>
      <point x="514" y="119"/>
      <point x="539" y="100"/>
      <point x="539" y="53" type="curve" smooth="yes"/>
      <point x="539" y="44"/>
      <point x="538" y="36"/>
      <point x="536" y="27" type="curve"/>
      <point x="581" y="119" type="line"/>
      <point x="557" y="108" type="line"/>
      <point x="533" y="173"/>
      <point x="495" y="204"/>
      <point x="455" y="204" type="curve" smooth="yes"/>
      <point x="417" y="204"/>
      <point x="373" y="175"/>
      <point x="334" y="146" type="curve" smooth="yes"/>
      <point x="279" y="105"/>
      <point x="239" y="71"/>
      <point x="209" y="71" type="curve" smooth="yes"/>
      <point x="187" y="71"/>
      <point x="172" y="89"/>
      <point x="162" y="128" type="curve"/>
      <point x="154" y="128" type="line"/>
      <point x="120" y="108" type="line"/>
      <point x="143" y="39"/>
      <point x="183" y="-13"/>
    </contour>
    <contour>
      <point x="358" y="119" type="line"/>
      <point x="369" y="229"/>
      <point x="376" y="269"/>
      <point x="391" y="345" type="curve" smooth="yes"/>
      <point x="435" y="572" type="line"/>
      <point x="358" y="572" type="line"/>
      <point x="335" y="451" type="line"/>
      <point x="319" y="367"/>
      <point x="306" y="282"/>
      <point x="306" y="248" type="curve" smooth="yes"/>
      <point x="306" y="244"/>
      <point x="307" y="240"/>
      <point x="307" y="238" type="curve"/>
      <point x="326" y="115" type="line"/>
    </contour>
    <contour>
      <point x="471" y="237" type="curve" smooth="yes"/>
      <point x="529" y="237"/>
      <point x="566" y="297"/>
      <point x="566" y="361" type="curve" smooth="yes"/>
      <point x="566" y="429"/>
      <point x="524" y="508"/>
      <point x="407" y="518" type="curve"/>
      <point x="401" y="437" type="line"/>
      <point x="461" y="437"/>
      <point x="533" y="402"/>
      <point x="533" y="349" type="curve" smooth="yes"/>
      <point x="533" y="330"/>
      <point x="523" y="308"/>
      <point x="506" y="291" type="curve"/>
      <point x="553" y="308" type="line"/>
      <point x="518" y="308" type="line"/>
      <point x="511" y="332"/>
      <point x="490" y="343"/>
      <point x="469" y="343" type="curve" smooth="yes"/>
      <point x="440" y="343"/>
      <point x="413" y="322"/>
      <point x="413" y="289" type="curve" smooth="yes"/>
      <point x="413" y="258"/>
      <point x="437" y="237"/>
    </contour>
    <contour>
      <point x="595" y="-73" type="line"/>
      <point x="713" y="572" type="line"/>
      <point x="643" y="572" type="line"/>
      <point x="588" y="289" type="line" smooth="yes"/>
      <point x="567" y="181"/>
      <point x="560" y="143"/>
      <point x="559" y="98" type="curve"/>
      <point x="536" y="27" type="line"/>
      <point x="526" y="-20" type="line"/>
      <point x="584" y="-73" type="line"/>
    </contour>
    <contour>
      <point x="799" y="552" type="line"/>
      <point x="801" y="560" type="line"/>
      <point x="753" y="620" type="line"/>
      <point x="22" y="620" type="line"/>
      <point x="20" y="612" type="line"/>
      <point x="68" y="552" type="line"/>
    </contour>
  </outline>
</glyph>
<glyph name="bKSsRa" format="2">
  <advance width="860"/>
  <outline>
    <contour>
      <point x="505" y="40" type="line"/>
      <point x="498" y="196" type="line"/>
      <point x="475" y="190" type="line"/>
      <point x="452" y="252"/>
      <point x="364" y="329"/>
      <point x="285" y="329" type="curve" smooth="yes"/>
      <point x="236" y="329"/>
      <point x="191" y="299"/>
      <point x="191" y="250" type="curve" smooth="yes"/>
      <point x="191" y="210"/>
      <point x="222" y="185"/>
      <point x="262" y="185" type="curve" smooth="yes"/>
      <point x="312" y="185"/>
      <point x="375" y="225"/>
      <point x="375" y="315" type="curve" smooth="yes"/>
      <point x="375" y="417"/>
      <point x="296" y="499"/>
      <point x="194" y="499" type="curve" smooth="yes"/>
      <point x="118" y="499"/>
      <point x="69" y="454"/>
      <point x="69" y="406" type="curve" smooth="yes"/>
      <point x="69" y="368"/>
      <point x="100" y="341"/>
      <point x="139" y="341" type="curve" smooth="yes"/>
      <point x="186" y="341"/>
      <point x="236" y="379"/>
      <point x="236" y="477" type="curve" smooth="yes"/>
      <point x="236" y="513"/>
      <point x="229" y="548"/>
      <point x="212" y="568" type="curve"/>
      <point x="111" y="552" type="line"/>
      <point x="167" y="552"/>
      <point x="194" y="544"/>
      <point x="194" y="438" type="curve"/>
      <point x="213" y="428" type="line"/>
      <point x="221" y="431"/>
      <point x="234" y="433"/>
      <point x="245" y="433" type="curve" smooth="yes"/>
      <point x="289" y="433"/>
      <point x="325" y="405"/>
      <point x="325" y="365" type="curve" smooth="yes"/>
      <point x="325" y="344"/>
      <point x="315" y="328"/>
      <point x="295" y="314" type="curve"/>
      <point x="336" y="243" type="line"/>
      <point x="421" y="229"/>
      <point x="467" y="181"/>
      <point x="467" y="89" type="curve" smooth="yes"/>
      <point x="467" y="70"/>
      <point x="465" y="56"/>
      <point x="463" y="40" type="curve"/>
    </contour>
    <contour>
      <point x="489" y="57" type="line"/>
      <point x="460" y="43" type="line"/>
      <point x="417" y="97"/>
      <point x="345" y="112"/>
      <point x="299" y="112" type="curve" smooth="yes"/>
      <point x="267" y="112"/>
      <point x="176" y="105"/>
      <point x="143" y="105" type="curve" smooth="yes"/>
      <point x="86" y="105"/>
      <point x="63" y="126"/>
      <point x="63" y="160" type="curve" smooth="yes"/>
      <point x="63" y="186"/>
      <point x="76" y="218"/>
      <point x="101" y="258" type="curve"/>
      <point x="82" y="272" type="line"/>
      <point x="73" y="272" type="line"/>
      <point x="36" y="226"/>
      <point x="14" y="178"/>
      <point x="14" y="133" type="curve" smooth="yes"/>
      <point x="14" y="72"/>
      <point x="55" y="22"/>
      <point x="159" y="22" type="curve" smooth="yes"/>
      <point x="207" y="22"/>
      <point x="315" y="33"/>
      <point x="368" y="33" type="curve" smooth="yes"/>
      <point x="427" y="33"/>
      <point x="465" y="19"/>
      <point x="470" y="-45" type="curve"/>
    </contour>
    <contour>
      <point x="505" y="-62" type="line"/>
      <point x="522" y="53"/>
      <point x="533" y="119"/>
      <point x="548" y="194" type="curve" smooth="yes"/>
      <point x="621" y="568" type="line"/>
      <point x="542" y="568" type="line"/>
      <point x="507" y="388" type="line" smooth="yes"/>
      <point x="485" y="273"/>
      <point x="480" y="220"/>
      <point x="478" y="182" type="curve"/>
      <point x="470" y="-45" type="line"/>
      <point x="494" y="-62" type="line"/>
    </contour>
    <contour>
      <point x="700" y="191" type="curve" smooth="yes"/>
      <point x="756" y="191"/>
      <point x="824" y="239"/>
      <point x="824" y="324" type="curve" smooth="yes"/>
      <point x="824" y="409"/>
      <point x="755" y="472"/>
      <point x="676" y="472" type="curve" smooth="yes"/>
      <point x="631" y="472"/>
      <point x="524" y="452"/>
      <point x="488" y="452" type="curve" smooth="yes"/>
      <point x="451" y="452"/>
      <point x="425" y="473"/>
      <point x="425" y="506" type="curve" smooth="yes"/>
      <point x="425" y="524"/>
      <point x="433" y="544"/>
      <point x="454" y="563" type="curve"/>
      <point x="365" y="563" type="line"/>
      <point x="382" y="455"/>
      <point x="455" y="374"/>
      <point x="547" y="374" type="curve" smooth="yes"/>
      <point x="586" y="374"/>
      <point x="655" y="389"/>
      <point x="707" y="389" type="curve" smooth="yes"/>
      <point x="766" y="389"/>
      <point x="792" y="370"/>
      <point x="792" y="336" type="curve" smooth="yes"/>
      <point x="792" y="305"/>
      <point x="770" y="283"/>
      <point x="750" y="273" type="curve"/>
      <point x="774" y="266" type="line"/>
      <point x="768" y="304"/>
      <point x="735" y="324"/>
      <point x="703" y="324" type="curve" smooth="yes"/>
      <point x="666" y="324"/>
      <point x="628" y="298"/>
      <point x="628" y="254" type="curve" smooth="yes"/>
      <point x="628" y="213"/>
      <point x="662" y="191"/>
    </contour>
    <contour>
      <point x="929" y="552" type="line"/>
      <point x="930" y="560" type="line"/>
      <point x="882" y="620" type="line"/>
      <point x="22" y="620" type="line"/>
      <point x="20" y="612" type="line"/>
      <point x="69" y="552" type="line"/>
    </contour>
  </outline>
</glyph>
<glyph name="bKTta" format="2">
  <advance width="623"/>
  <outline>
    <contour>
      <point x="285" y="-63" type="curve" smooth="yes"/>
      <point x="406" y="-63"/>
      <point x="524" y="18"/>
      <point x="524" y="113" type="curve" smooth="yes"/>
      <point x="524" y="162"/>
      <point x="493" y="190"/>
      <point x="453" y="190" type="curve" smooth="yes"/>
      <point x="410" y="190"/>
      <point x="381" y="157"/>
      <point x="381" y="125" type="curve" smooth="yes"/>
      <point x="381" y="97"/>
      <point x="403" y="70"/>
      <point x="440" y="70" type="curve"/>
      <point x="424" y="93" type="line"/>
      <point x="396" y="34"/>
      <point x="307" y="-2"/>
      <point x="242" y="-2" type="curve" smooth="yes"/>
      <point x="203" y="-2"/>
      <point x="184" y="11"/>
      <point x="184" y="38" type="curve" smooth="yes"/>
      <point x="184" y="119"/>
      <point x="362" y="136"/>
      <point x="419" y="428" type="curve" smooth="yes"/>
      <point x="446" y="568" type="line"/>
      <point x="368" y="568" type="line"/>
      <point x="341" y="425" type="line" smooth="yes"/>
      <point x="294" y="174"/>
      <point x="126" y="193"/>
      <point x="126" y="72" type="curve" smooth="yes"/>
      <point x="126" y="11"/>
      <point x="169" y="-63"/>
    </contour>
    <contour>
      <point x="301" y="227" type="line"/>
      <point x="271" y="289"/>
      <point x="205" y="340"/>
      <point x="157" y="362" type="curve"/>
      <point x="157" y="365" type="line"/>
      <point x="254" y="413"/>
      <point x="355" y="445"/>
      <point x="418" y="445" type="curve" smooth="yes"/>
      <point x="482" y="445"/>
      <point x="561" y="412"/>
      <point x="561" y="357" type="curve" smooth="yes"/>
      <point x="561" y="341"/>
      <point x="554" y="315"/>
      <point x="521" y="297" type="curve"/>
      <point x="547" y="296" type="line"/>
      <point x="546" y="330"/>
      <point x="522" y="350"/>
      <point x="493" y="350" type="curve" smooth="yes"/>
      <point x="463" y="350"/>
      <point x="429" y="327"/>
      <point x="429" y="290" type="curve" smooth="yes"/>
      <point x="429" y="259"/>
      <point x="454" y="234"/>
      <point x="492" y="234" type="curve" smooth="yes"/>
      <point x="541" y="234"/>
      <point x="598" y="276"/>
      <point x="598" y="359" type="curve" smooth="yes"/>
      <point x="598" y="460"/>
      <point x="512" y="522"/>
      <point x="407" y="522" type="curve" smooth="yes"/>
      <point x="354" y="522"/>
      <point x="254" y="506"/>
      <point x="34" y="392" type="curve"/>
      <point x="90" y="300" type="line"/>
      <point x="174" y="290"/>
      <point x="240" y="264"/>
      <point x="277" y="212" type="curve"/>
    </contour>
    <contour>
      <point x="691" y="552" type="line"/>
      <point x="693" y="560" type="line"/>
      <point x="645" y="620" type="line"/>
      <point x="22" y="620" type="line"/>
      <point x="20" y="612" type="line"/>
      <point x="68" y="552" type="line"/>
    </contour>
    <contour>
      <point x="583" y="605" type="line"/>
      <point x="585" y="618"/>
      <point x="587" y="634"/>
      <point x="587" y="649" type="curve" smooth="yes"/>
      <point x="587" y="719"/>
      <point x="540" y="785"/>
      <point x="426" y="785" type="curve" smooth="yes"/>
      <point x="384" y="785"/>
      <point x="326" y="776"/>
      <point x="279" y="776" type="curve" smooth="yes"/>
      <point x="224" y="776"/>
      <point x="198" y="788"/>
      <point x="198" y="819" type="curve" smooth="yes"/>
      <point x="198" y="833"/>
      <point x="203" y="851"/>
      <point x="226" y="876" type="curve"/>
      <point x="206" y="896" type="line"/>
      <point x="198" y="896" type="line"/>
      <point x="167" y="867"/>
      <point x="154" y="833"/>
      <point x="154" y="804" type="curve" smooth="yes"/>
      <point x="154" y="745"/>
      <point x="207" y="694"/>
      <point x="317" y="694" type="curve" smooth="yes"/>
      <point x="365" y="694"/>
      <point x="433" y="704"/>
      <point x="471" y="704" type="curve" smooth="yes"/>
      <point x="523" y="704"/>
      <point x="546" y="686"/>
      <point x="546" y="663" type="curve" smooth="yes"/>
      <point x="546" y="647"/>
      <point x="534" y="627"/>
      <point x="504" y="604" type="curve"/>
    </contour>
  </outline>
</glyph>
<glyph name="bLGa" format="2">
  <advance width="672"/>
  <outline>
    <contour>
      <point x="220" y="-147" type="line"/>
      <point x="341" y="-84"/>
      <point x="368" y="-33"/>
      <point x="368" y="14" type="curve" smooth="yes"/>
      <point x="368" y="70"/>
      <point x="329" y="102"/>
      <point x="268" y="102" type="curve" smooth="yes"/>
      <point x="243" y="102"/>
      <point x="218" y="97"/>
      <point x="192" y="86" type="curve"/>
      <point x="200" y="128"/>
      <point x="253" y="158"/>
      <point x="319" y="158" type="curve" smooth="yes"/>
      <point x="433" y="158"/>
      <point x="489" y="69"/>
      <point x="489" y="-115" type="curve"/>
      <point x="514" y="96" type="line"/>
      <point x="494" y="89" type="line"/>
      <point x="469" y="147"/>
      <point x="411" y="231"/>
      <point x="291" y="231" type="curve" smooth="yes"/>
      <point x="177" y="231"/>
      <point x="86" y="156"/>
      <point x="86" y="68" type="curve" smooth="yes"/>
      <point x="86" y="20"/>
      <point x="113" y="-6"/>
      <point x="141" y="-6" type="curve" smooth="yes"/>
      <point x="148" y="-6"/>
      <point x="157" y="-4"/>
      <point x="164" y="1" type="curve" smooth="yes"/>
      <point x="175" y="8"/>
      <point x="252" y="56"/>
      <point x="294" y="56" type="curve" smooth="yes"/>
      <point x="308" y="56"/>
      <point x="313" y="51"/>
      <point x="313" y="42" type="curve" smooth="yes"/>
      <point x="313" y="17"/>
      <point x="276" y="-20"/>
      <point x="155" y="-82" type="curve"/>
    </contour>
    <contour>
      <point x="203" y="231" type="curve" smooth="yes"/>
      <point x="255" y="231"/>
      <point x="313" y="257"/>
      <point x="313" y="308" type="curve" smooth="yes"/>
      <point x="313" y="341"/>
      <point x="288" y="364"/>
      <point x="255" y="364" type="curve" smooth="yes"/>
      <point x="219" y="364"/>
      <point x="193" y="337"/>
      <point x="193" y="304" type="curve" smooth="yes"/>
      <point x="193" y="292"/>
      <point x="196" y="281"/>
      <point x="200" y="271" type="curve"/>
      <point x="212" y="308" type="line"/>
      <point x="196" y="276" type="line"/>
      <point x="153" y="276"/>
      <point x="137" y="303"/>
      <point x="137" y="334" type="curve" smooth="yes"/>
      <point x="137" y="392"/>
      <point x="192" y="437"/>
      <point x="266" y="437" type="curve" smooth="yes"/>
      <point x="323" y="437"/>
      <point x="360" y="411"/>
      <point x="375" y="341" type="curve"/>
      <point x="377" y="423" type="line"/>
      <point x="350" y="474"/>
      <point x="305" y="521"/>
      <point x="232" y="521" type="curve" smooth="yes"/>
      <point x="141" y="521"/>
      <point x="68" y="448"/>
      <point x="68" y="362" type="curve" smooth="yes"/>
      <point x="68" y="289"/>
      <point x="123" y="231"/>
    </contour>
    <contour>
      <point x="527" y="-134" type="line"/>
      <point x="548" y="-4"/>
      <point x="550" y="8"/>
      <point x="570" y="118" type="curve"/>
      <point x="655" y="571" type="line"/>
      <point x="582" y="571" type="line"/>
      <point x="568" y="497"/>
      <point x="558" y="453"/>
      <point x="559" y="402" type="curve"/>
      <point x="532" y="309" type="line"/>
      <point x="518" y="231"/>
      <point x="504" y="156"/>
      <point x="497" y="74" type="curve"/>
      <point x="489" y="-115" type="line"/>
      <point x="516" y="-134" type="line"/>
    </contour>
    <contour>
      <point x="553" y="328" type="line"/>
      <point x="572" y="423" type="line"/>
      <point x="555" y="415" type="line"/>
      <point x="535" y="477"/>
      <point x="504" y="512"/>
      <point x="464" y="512" type="curve" smooth="yes"/>
      <point x="423" y="512"/>
      <point x="382" y="474"/>
      <point x="360" y="415" type="curve"/>
      <point x="375" y="341" type="line"/>
      <point x="397" y="330" type="line"/>
      <point x="403" y="332" type="line"/>
      <point x="427" y="405"/>
      <point x="451" y="434"/>
      <point x="480" y="434" type="curve" smooth="yes"/>
      <point x="509" y="434"/>
      <point x="535" y="406"/>
      <point x="535" y="347" type="curve" smooth="yes"/>
      <point x="535" y="335"/>
      <point x="534" y="323"/>
      <point x="532" y="309" type="curve"/>
    </contour>
    <contour>
      <point x="740" y="552" type="line"/>
      <point x="742" y="560" type="line"/>
      <point x="694" y="620" type="line"/>
      <point x="22" y="620" type="line"/>
      <point x="20" y="612" type="line"/>
      <point x="68" y="552" type="line"/>
    </contour>
  </outline>
</glyph>
<glyph name="bLMa" format="2">
  <advance width="804"/>
  <outline>
    <contour>
      <point x="644" y="111" type="line"/>
      <point x="626" y="100" type="line"/>
      <point x="573" y="188"/>
      <point x="498" y="233"/>
      <point x="428" y="233" type="curve" smooth="yes"/>
      <point x="357" y="233"/>
      <point x="316" y="187"/>
      <point x="316" y="138" type="curve" smooth="yes"/>
      <point x="316" y="91"/>
      <point x="354" y="57"/>
      <point x="404" y="57" type="curve" smooth="yes"/>
      <point x="466" y="57"/>
      <point x="517" y="110"/>
      <point x="528" y="182" type="curve"/>
      <point x="530" y="209"/>
      <point x="540" y="270"/>
      <point x="555" y="346" type="curve" smooth="yes"/>
      <point x="599" y="570" type="line"/>
      <point x="520" y="570" type="line"/>
      <point x="506" y="500"/>
      <point x="491" y="423"/>
      <point x="493" y="391" type="curve"/>
      <point x="476" y="224" type="line"/>
      <point x="496" y="138" type="line"/>
      <point x="598" y="117"/>
      <point x="629" y="29"/>
      <point x="638" y="-46" type="curve"/>
    </contour>
    <contour>
      <point x="501" y="226" type="line"/>
      <point x="508" y="407" type="line"/>
      <point x="491" y="399" type="line"/>
      <point x="471" y="458"/>
      <point x="442" y="488"/>
      <point x="404" y="488" type="curve" smooth="yes"/>
      <point x="365" y="488"/>
      <point x="328" y="457"/>
      <point x="310" y="403" type="curve"/>
      <point x="322" y="335" type="line"/>
      <point x="343" y="325" type="line"/>
      <point x="350" y="327" type="line"/>
      <point x="366" y="382"/>
      <point x="392" y="414"/>
      <point x="424" y="414" type="curve" smooth="yes"/>
      <point x="455" y="414"/>
      <point x="478" y="383"/>
      <point x="478" y="280" type="curve" smooth="yes"/>
      <point x="478" y="263"/>
      <point x="477" y="245"/>
      <point x="476" y="224" type="curve"/>
    </contour>
    <contour>
      <point x="673" y="-63" type="line"/>
      <point x="688" y="38"/>
      <point x="700" y="102"/>
      <point x="715" y="178" type="curve" smooth="yes"/>
      <point x="791" y="570" type="line"/>
      <point x="712" y="570" type="line"/>
      <point x="676" y="385" type="line" smooth="yes"/>
      <point x="646" y="231"/>
      <point x="629" y="144"/>
      <point x="629" y="97" type="curve"/>
      <point x="638" y="-46" type="line"/>
      <point x="662" y="-63" type="line"/>
    </contour>
    <contour>
      <point x="872" y="552" type="line"/>
      <point x="874" y="560" type="line"/>
      <point x="826" y="620" type="line"/>
      <point x="22" y="620" type="line"/>
      <point x="20" y="612" type="line"/>
      <point x="68" y="552" type="line"/>
    </contour>
    <contour>
      <point x="189" y="183" type="curve" smooth="yes"/>
      <point x="255" y="183"/>
      <point x="298" y="224"/>
      <point x="298" y="271" type="curve" smooth="yes"/>
      <point x="298" y="308"/>
      <point x="272" y="335"/>
      <point x="236" y="335" type="curve" smooth="yes"/>
      <point x="198" y="335"/>
      <point x="171" y="307"/>
      <point x="171" y="274" type="curve" smooth="yes"/>
      <point x="171" y="254"/>
      <point x="181" y="231"/>
      <point x="203" y="222" type="curve"/>
      <point x="203" y="264" type="line"/>
      <point x="182" y="233" type="line"/>
      <point x="134" y="233"/>
      <point x="113" y="266"/>
      <point x="113" y="304" type="curve" smooth="yes"/>
      <point x="113" y="368"/>
      <point x="170" y="415"/>
      <point x="234" y="415" type="curve" smooth="yes"/>
      <point x="274" y="415"/>
      <point x="309" y="397"/>
      <point x="322" y="335" type="curve"/>
      <point x="326" y="411" type="line"/>
      <point x="305" y="453"/>
      <point x="266" y="493"/>
      <point x="205" y="493" type="curve" smooth="yes"/>
      <point x="123" y="493"/>
      <point x="46" y="423"/>
      <point x="46" y="332" type="curve" smooth="yes"/>
      <point x="46" y="255"/>
      <point x="101" y="183"/>
    </contour>
  </outline>
</glyph>
